<svg xmlns="http://www.w3.org/2000/svg" width="109" height="119" style=""><rect id="backgroundrect" width="100%" height="100%" x="0" y="0" fill="none" stroke="none"/>
    
<g class="currentLayer" style=""><title>Layer 1</title><g fill="none" fill-rule="evenodd" id="svg_1" class="">
        <g fill-rule="nonzero" id="svg_2">
            <path fill="#F05562" d="M90.77 87.807c8.304 0 15.035-6.731 15.035-15.034 0-8.304-6.731-15.035-15.034-15.035v30.069z" id="svg_3"/>
            <g fill="#434A54" id="svg_4">
                <path d="M94.364 13.832C85.444 4.912 73.63 0 61.1 0 48.571 0 36.758 4.912 27.84 13.832a47.536 47.536 0 0 0-8.387 11.31c-1.403 3.833 3.126 4.769 4.225 2.22C30.78 13.942 44.89 4.78 61.1 4.78c23.332 0 42.314 18.982 42.314 42.313v13.708c-3.178-3.355-7.67-5.454-12.644-5.454a2.39 2.39 0 0 0-2.39 2.39v30.069a2.39 2.39 0 0 0 2.39 2.39c9.518 0 17.274-7.672 17.418-17.157.002-.03.004-8.678.007-25.946 0-12.53-4.913-24.343-13.832-33.262zM93.16 85.19V60.355c5.833 1.12 10.254 6.263 10.254 12.418 0 6.154-4.42 11.296-10.254 12.417zM103.838 87.566c-.606 0-1.201.247-1.63.676a2.324 2.324 0 0 0-.675 1.632c0 .604.246 1.199.675 1.63a2.32 2.32 0 0 0 1.63.673 2.32 2.32 0 0 0 1.63-.673 2.327 2.327 0 0 0 .675-1.63c0-.609-.246-1.204-.675-1.632a2.323 2.323 0 0 0-1.63-.676zM102.53 95.08a2.39 2.39 0 0 0-3.267.874c-4.639 8.031-11.93 13.554-21.176 16.084l-1.203-5.66a2.39 2.39 0 0 0-2.836-1.842l-8.068 1.715a2.39 2.39 0 0 0-1.841 2.835l1.715 8.07a2.39 2.39 0 0 0 2.835 1.84l8.069-1.715c11.713-2.49 20.927-9.037 26.645-18.935a2.39 2.39 0 0 0-.874-3.266zm-33.218 15.35l3.392-.72.721 3.392-3.392.721-.721-3.392z" id="svg_5"/>
            </g>
        </g>
        <path fill="#55C6D9" fill-rule="nonzero" d="M8.852 36.64a3.689 3.689 0 0 0-3.688 3.688v42.554a3.689 3.689 0 0 0 3.688 3.689h54.575l6.26 7.712a.738.738 0 0 0 1.31-.465v-53.49a3.689 3.689 0 0 0-3.688-3.689H8.852zm0 54.357a8.115 8.115 0 0 1-8.114-8.115V40.328a8.115 8.115 0 0 1 8.114-8.115H67.31a8.115 8.115 0 0 1 8.114 8.115v53.49a5.164 5.164 0 0 1-9.173 3.254l-4.93-6.075H8.851z" id="svg_6"/>
        <path fill="#434A54" d="M10 67.062v-3.408l7.868-8.139c1.482-1.555 2.634-3.077 2.634-4.631 0-1.853-1.251-3.011-2.996-3.011-1.777 0-3.094 1.058-3.851 2.713l-3.819-2.25c1.481-3.309 4.477-4.897 7.604-4.897 3.95 0 7.605 2.647 7.605 7.28 0 2.811-1.613 5.226-3.786 7.41l-4.51 4.533h8.658v4.4H10zm35.81-8.172v4.235h-2.47v3.937h-4.575v-3.937H27.869V58.89l7.936-15.45h4.872l-7.903 15.45h5.991v-5.492h4.576v5.492h2.469zm5.865.413h14.88v3.87l-7.803 19.29h-4.806l7.572-18.793h-9.843v-4.367z" id="svg_7"/>
        <path fill="#F05562" d="M56.717 44.26L36.162 82.461h1.992L58.695 44.26z" id="svg_8"/>
    </g><path fill="none" fill-opacity="1" stroke="#fe980f" stroke-opacity="1" stroke-width="1" stroke-dasharray="none" stroke-linejoin="miter" stroke-linecap="butt" stroke-dashoffset="" fill-rule="evenodd" opacity="1" marker-start="" marker-mid="" marker-end="" d="M57.18293113668794,44.35121965062257L36.69512578208564,82.40000102345539" id="svg_10"/><path fill="none" fill-opacity="1" stroke="#fe980f" stroke-opacity="1" stroke-width="1" stroke-dasharray="none" stroke-linejoin="miter" stroke-linecap="butt" stroke-dashoffset="" fill-rule="evenodd" opacity="1" marker-start="" marker-mid="" marker-end="" d="M58.158540915478525,44.35121965062257L37.670735560876224,82.40000102345539" id="svg_12"/><path fill="none" fill-opacity="1" stroke="#fe980f" stroke-opacity="1" stroke-width="1" stroke-dasharray="none" stroke-linejoin="miter" stroke-linecap="butt" stroke-dashoffset="" fill-rule="evenodd" opacity="1" marker-start="" marker-mid="" marker-end="" d="M93.28049295193956,60.692683445364864L93.52439539663722,85.32683035982714" id="svg_14"/><path fill="#fe980f" fill-opacity="1" stroke="#fe980f" stroke-opacity="1" stroke-width="1" stroke-dasharray="none" stroke-linejoin="miter" stroke-linecap="butt" stroke-dashoffset="" fill-rule="evenodd" opacity="1" marker-start="" marker-mid="" marker-end="" d="M94.01220028603252,65.32682989462015L94.01220028603252,73.37561056964248" id="svg_16"/><path fill="#fe980f" fill-opacity="1" stroke="#fe980f" stroke-opacity="1" stroke-width="1" stroke-dasharray="none" stroke-linejoin="miter" stroke-linecap="butt" stroke-dashoffset="" fill-rule="evenodd" opacity="1" marker-start="" marker-mid="" marker-end="" d="M94.01220028603252,62.156098113550755L94.25610273073015,84.35122058103656" id="svg_18"/><path fill="#fe980f" fill-opacity="1" stroke="#fe980f" stroke-opacity="1" stroke-width="1" stroke-dasharray="none" stroke-linejoin="miter" stroke-linecap="butt" stroke-dashoffset="" fill-rule="evenodd" opacity="1" marker-start="" marker-mid="" marker-end="" d="M94.01220028603252,61.42439077945781L94.01220028603252,67.27804945220132" id="svg_20"/><path fill="#fe980f" fill-opacity="1" stroke="#fe980f" stroke-opacity="1" stroke-width="1" stroke-dasharray="none" stroke-linejoin="miter" stroke-linecap="butt" stroke-dashoffset="" fill-rule="evenodd" opacity="1" marker-start="" marker-mid="" marker-end="" d="M94.5000051754278,61.42439077945781L94.74390762012546,83.61951324694363" id="svg_22"/><path fill="#fe980f" fill-opacity="1" stroke="#fe980f" stroke-opacity="1" stroke-width="1" stroke-dasharray="none" stroke-linejoin="miter" stroke-linecap="butt" stroke-dashoffset="" fill-rule="evenodd" opacity="1" marker-start="" marker-mid="" marker-end="" d="M94.98781006482311,61.66829322415546L95.47561495421839,82.64390346815304" id="svg_24"/><path fill="#fe980f" fill-opacity="1" stroke="#fe980f" stroke-opacity="1" stroke-width="1" stroke-dasharray="none" stroke-linejoin="miter" stroke-linecap="butt" stroke-dashoffset="" fill-rule="evenodd" opacity="1" marker-start="" marker-mid="" marker-end="" d="M95.96341984361369,61.9121956688531L96.20732228831132,82.15609857875775" id="svg_26"/><path fill="#fe980f" fill-opacity="1" stroke="#fe980f" stroke-opacity="1" stroke-width="1" stroke-dasharray="none" stroke-linejoin="miter" stroke-linecap="butt" stroke-dashoffset="" fill-rule="evenodd" opacity="1" marker-start="" marker-mid="" marker-end="" d="M96.20732228831132,62.400000558248394L96.69512717770662,81.66829368936246" id="svg_28"/><path fill="#fe980f" fill-opacity="1" stroke="#fe980f" stroke-opacity="1" stroke-width="1" stroke-dasharray="none" stroke-linejoin="miter" stroke-linecap="butt" stroke-dashoffset="" fill-rule="evenodd" opacity="1" marker-start="" marker-mid="" marker-end="" d="M97.1829320671019,62.64390300294604L97.42683451179956,80.93658635526951" id="svg_30"/><path fill="#fe980f" fill-opacity="1" stroke="#fe980f" stroke-opacity="1" stroke-width="1" stroke-dasharray="none" stroke-linejoin="miter" stroke-linecap="butt" stroke-dashoffset="" fill-rule="evenodd" opacity="1" marker-start="" marker-mid="" marker-end="" d="M98.40244429059014,63.61951278173663L98.40244429059014,79.71707413178127" id="svg_32"/><path fill="#fe980f" fill-opacity="1" stroke="#fe980f" stroke-opacity="1" stroke-width="1" stroke-dasharray="none" stroke-linejoin="miter" stroke-linecap="butt" stroke-dashoffset="" fill-rule="evenodd" opacity="1" marker-start="" marker-mid="" marker-end="" d="M97.42683451179956,63.61951278173663L97.91463940119486,82.15609857875775" id="svg_34"/><path fill="#fe980f" fill-opacity="1" stroke="#fe980f" stroke-opacity="1" stroke-width="1" stroke-dasharray="none" stroke-linejoin="miter" stroke-linecap="butt" stroke-dashoffset="" fill-rule="evenodd" opacity="1" marker-start="" marker-mid="" marker-end="" d="M99.1341516246831,64.59512256052722L99.37805406938072,79.47317168708364" id="svg_36"/><path fill="#fe980f" fill-opacity="1" stroke="#fe980f" stroke-opacity="1" stroke-width="1" stroke-dasharray="none" stroke-linejoin="miter" stroke-linecap="butt" stroke-dashoffset="" fill-rule="evenodd" opacity="1" marker-start="" marker-mid="" marker-end="" d="M100.10976140347368,65.81463478401544L100.10976140347368,77.7658545742001" id="svg_38"/><path fill="#fe980f" fill-opacity="1" stroke="#fe980f" stroke-opacity="1" stroke-width="1" stroke-dasharray="none" stroke-linejoin="miter" stroke-linecap="butt" stroke-dashoffset="" fill-rule="evenodd" opacity="1" marker-start="" marker-mid="" marker-end="" d="M100.59756629286896,67.27804945220132L100.59756629286896,77.7658545742001" id="svg_40"/><path fill="#fe980f" fill-opacity="1" stroke="#fe980f" stroke-opacity="1" stroke-width="1" stroke-dasharray="none" stroke-linejoin="miter" stroke-linecap="butt" stroke-dashoffset="" fill-rule="evenodd" opacity="1" marker-start="" marker-mid="" marker-end="" d="M101.57317607165955,68.00975678629426L101.32927362696189,76.79024479540952" id="svg_42"/><path fill="#fe980f" fill-opacity="1" stroke="#fe980f" stroke-opacity="1" stroke-width="1" stroke-dasharray="none" stroke-linejoin="miter" stroke-linecap="butt" stroke-dashoffset="" fill-rule="evenodd" opacity="1" marker-start="" marker-mid="" marker-end="" d="M102.30488340575248,69.96097634387543L101.8170785163572,74.83902523782835" id="svg_44"/><path fill="#fe980f" fill-opacity="1" stroke="#fe980f" stroke-opacity="1" stroke-width="1" stroke-dasharray="none" stroke-linejoin="miter" stroke-linecap="butt" stroke-dashoffset="" fill-rule="evenodd" opacity="1" marker-start="" marker-mid="" marker-end="" id="svg_9" d="M93.03659050724194,60.692683445364864 " style="color: rgb(254, 152, 15);"/><path fill="#fe980f" fill-opacity="1" stroke="#fe980f" stroke-opacity="1" stroke-width="1" stroke-dasharray="none" stroke-linejoin="miter" stroke-linecap="butt" stroke-dashoffset="" fill-rule="evenodd" opacity="1" marker-start="" marker-mid="" marker-end="" id="svg_11" d="M 92.54878561784663 60.448781000667225 C 92.54878561784663 60.448781000667225 96.45122473300897 61.9121956688531 96.45122473300897 61.9121956688531 C 96.45122473300897 61.9121956688531 100.35366384817131 65.32682989462015 100.2439024390244 65.1219512195122 C 100.35366384817131 65.32682989462015 102.54878585045013 70.20487878857307 102.54878585045013 70.20487878857307 C 102.54878585045013 70.20487878857307 102.06098096105485 76.30243990601423 102.06098096105485 76.30243990601423 C 102.06098096105485 76.30243990601423 99.86585895877603 80.69268391057186 99.86585895877603 80.69268391057186 C 99.86585895877603 80.69268391057186 95.23171250952073 84.10731813633892 95.23171250952073 84.10731813633892 C 95.23171250952073 84.10731813633892 93.03659050724194 85.0829279151295 92.92682926829269 84.87804878048782" style="color: rgb(254, 152, 15);"/><path fill="#fe980f" fill-opacity="1" stroke="#fe980f" stroke-opacity="1" stroke-width="1" stroke-dasharray="none" stroke-linejoin="miter" stroke-linecap="butt" stroke-dashoffset="" fill-rule="evenodd" opacity="1" marker-start="" marker-mid="" marker-end="" id="svg_13" d="M 102.54878585045013 69.47317145448014 C 102.54878585045013 69.47317145448014 102.79268829514778 73.13170812494484 102.79268829514778 73.13170812494484 C 102.79268829514778 73.13170812494484 101.8170785163572 78.00975701889776 101.8170785163572 78.00975701889776 C 101.8170785163572 78.00975701889776 102.54878585045013 69.47317145448014 102.54878585045013 69.47317145448014 z" style="color: rgb(254, 152, 15);"/><polyline fill="none" stroke="#fe980f" stroke-dashoffset="" fill-rule="evenodd" marker-start="" marker-mid="" marker-end="" id="svg_17" points="99.86585895877603,64.83902500522485 99.86585895877603,64.83902500522485 100.10976140347368,65.08292744992251 100.10976140347368,65.32682989462015 100.10976140347368,65.32682989462015 100.10976140347368,65.5707323393178 100.35366384817131,65.5707323393178 100.35366384817131,65.81463478401544 100.35366384817131,66.05853722871309 " style="color: rgb(254, 152, 15);"/><polyline fill="none" stroke="#fe980f" stroke-dashoffset="" fill-rule="evenodd" marker-start="" marker-mid="" marker-end="" id="svg_19" points="101.32927362696189,67.03414700750368 101.32927362696189,67.52195189689897 101.32927362696189,67.76585434159661 101.32927362696189,68.00975678629426 101.57317607165955,68.00975678629426 101.8170785163572,68.00975678629426 102.06098096105485,68.2536592309919 102.06098096105485,68.49756167568955 102.06098096105485,68.74146412038719 102.06098096105485,68.98536656508485 102.30488340575248,68.98536656508485 102.30488340575248,69.22926900978248 102.30488340575248,69.47317145448014 " style="color: rgb(254, 152, 15);"/><polyline fill="none" stroke="#fe980f" stroke-dashoffset="" fill-rule="evenodd" marker-start="" marker-mid="" marker-end="" id="svg_15" points="101.57317607165955,78.49756190829305 101.57317607165955,78.49756190829305 " style="color: rgb(254, 152, 15);"/><path fill="#fe980f" fill-opacity="1" stroke="#fe980f" stroke-opacity="1" stroke-width="1" stroke-dasharray="none" stroke-linejoin="miter" stroke-linecap="butt" stroke-dashoffset="" fill-rule="evenodd" opacity="1" marker-start="" marker-mid="" marker-end="" d="M101.57317607165955,78.00975701889776L98.40244429059014,81.4243912446648" id="svg_21"/></g></svg>