<svg xmlns="http://www.w3.org/2000/svg" viewBox="0 0 158 106"><style><![CDATA[.B{stroke:#fe980f}.C{fill-rule:nonzero}.D{fill-rule:evenodd}]]></style><g class="D"><path d="M86.75 13l47.734 14.917v23.36l-15.793 5.14V34.216L69 18.375z" fill="#f05562"/><g fill="#434a54" class="C"><path d="M89.024 12.944l48.042 15.35a2.5 2.5 0 0 1 1.739 2.38v20.27a2.5 2.5 0 0 1-1.668 2.358l-4.695 1.658a2.5 2.5 0 0 1-1.665-4.715l3.028-1.07V32.502l-53.5-17.094c-2.293-.733-2.327-3.967-.048-4.747l17.6-6.025a2.5 2.5 0 0 1 1.562-.02l56 17.67a2.5 2.5 0 0 1 1.748 2.385v60.964a2.5 2.5 0 0 1-1.746 2.383l-56 17.715a2.5 2.5 0 0 1-1.517-.003l-55.3-17.715a2.5 2.5 0 0 1-1.738-2.381v-8.252a2.5 2.5 0 1 1 5 0V83.8l52.807 16.916 53.495-16.922v-57.3L98.7 9.63l-9.675 3.312z"/><path d="M153.913 22.616a2.5 2.5 0 1 1 1.508 4.768l-56 17.714a2.5 2.5 0 0 1-1.512 0L55.173 31.505a2.5 2.5 0 0 1 1.516-4.764l41.98 13.35 55.244-17.476z"/><path d="M123.62 52.464a2.5 2.5 0 0 1 1.567 4.748l-6.165 2.036a2.5 2.5 0 0 1-3.284-2.374V38.43L62.24 21.335c-2.306-.736-2.323-3.993-.025-4.754l21-6.954a2.5 2.5 0 1 1 1.572 4.746l-13.708 4.54 47.92 15.3a2.5 2.5 0 0 1 1.74 2.382v16.812l2.88-.952z"/><path d="M45.85 26.94v12.047a2.5 2.5 0 1 1-5 0V25.105a2.5 2.5 0 0 1 1.751-2.385l19.863-6.237a2.5 2.5 0 1 1 1.498 4.77L45.85 26.94z"/></g><g fill="#55c6d9"><path d="M66.965 44.5a2.5 2.5 0 1 1 0 5H22a2.5 2.5 0 1 1 0-5h44.965zm-25 11a2.5 2.5 0 1 1 0 5H3a2.5 2.5 0 1 1 0-5h38.965z" class="C"/><circle cx="14.5" cy="47" r="2.5"/><circle cx="21.5" cy="69" r="2.5"/><path d="M53.965 66.5a2.5 2.5 0 1 1 0 5H29a2.5 2.5 0 1 1 0-5h24.965zm25-66a2.5 2.5 0 1 1 0 5H40a2.5 2.5 0 1 1 0-5h38.965zm-39 12a2.5 2.5 0 1 1 0 5H21a2.5 2.5 0 1 1 0-5h18.965z" class="C"/></g><path d="M101.5 103.125a2.5 2.5 0 1 1-5 0V90.76a2.5 2.5 0 1 1 5 0v12.365zm0-22.41a2.5 2.5 0 1 1-5 0V45a2.5 2.5 0 1 1 5 0v35.714z" fill="#434a54" class="C"/><g fill="#fe980f" class="B"><path d="M77 18h7v1h-7z"/><path d="M81.195 15.405l46.34 14.878s-10 4.146-10 3.902S71.682 18.82 71.682 18.82m49.268 19.512v14.4l11.95-3.415"/><path d="M133.33 48.824V34.742l-12.04 3.878 1.77 12.196c.065.05 10.27-1.992 10.27-1.992z"/></g></g><g fill="none" class="B"><path d="M128.35 50.703v1.035l-.17.172H128v.173h-.18v.172h-.17l-.17.173h-.35l-.17-.173-.17-.172h-.34V51.9h-.18v-.517h1.2"/><path d="M125.25 51.738h1.03l.18.172v.173l.17.172v.173h.34v.517h.7l.17-.173h.18V52.6l.17-.172v-1.035H128v-.172h-.18"/><path d="M127.83 51.738h-.17m1.74-1.724l-.35.345v.344h-.17v.345l-.17.173v.172h-.18m-.01.345v.7"/></g><path d="M124.73 51.9s1.724.517 1.552.7" fill="#fe980f" class="B D"/><path d="M127.66 50.014l-.17.517v.517l-.17.173v.172h-.18v.345h-.17v.172h-.17v.173h-.17v.172h-.17v.173h-.18v-.345l-.17-.173m1.03.862v.518h-.17m6.73-4.3l-1.034.345M128.7 52.6l-1.034.517" fill="none" class="B"/></svg>