<svg xmlns="http://www.w3.org/2000/svg" width="158" height="106" style=""><rect id="backgroundrect" width="100%" height="100%" x="0" y="0" fill="none" stroke="none"/>
    
<g class="currentLayer" style=""><title>Layer 1</title><g fill="none" fill-rule="evenodd" id="svg_1" class="">
        <path fill="#F05562" d="M86.751 13l47.734 14.917v23.36l-15.793 5.141V34.216L69 18.375z" id="svg_2"/>
        <path fill="#434A54" fill-rule="nonzero" d="M89.024 12.944l48.042 15.35a2.5 2.5 0 0 1 1.739 2.38v20.271a2.5 2.5 0 0 1-1.668 2.358l-4.695 1.658a2.5 2.5 0 0 1-1.665-4.715l3.028-1.07V32.502l-53.5-17.094c-2.293-.733-2.327-3.967-.048-4.747l17.6-6.025a2.5 2.5 0 0 1 1.562-.02l56 17.671a2.5 2.5 0 0 1 1.748 2.385v60.964a2.5 2.5 0 0 1-1.746 2.383l-56 17.715a2.5 2.5 0 0 1-1.517-.003L42.603 88.016a2.5 2.5 0 0 1-1.738-2.381v-8.252a2.5 2.5 0 1 1 5 0v6.427l52.807 16.916 53.495-16.922v-57.3L98.699 9.631l-9.675 3.312z" id="svg_3"/>
        <path fill="#434A54" fill-rule="nonzero" d="M153.913 22.616a2.5 2.5 0 1 1 1.508 4.768l-56 17.714a2.5 2.5 0 0 1-1.512 0L55.173 31.505a2.5 2.5 0 0 1 1.516-4.764l41.98 13.35 55.244-17.476z" id="svg_4"/>
        <path fill="#434A54" fill-rule="nonzero" d="M123.62 52.464a2.5 2.5 0 0 1 1.567 4.748l-6.165 2.036a2.5 2.5 0 0 1-3.284-2.374V38.429L62.24 21.335c-2.306-.736-2.323-3.993-.025-4.754l21.001-6.954a2.5 2.5 0 1 1 1.572 4.746L71.08 18.912 119 34.222a2.5 2.5 0 0 1 1.74 2.382v16.812l2.88-.952z" id="svg_5"/>
        <path fill="#434A54" fill-rule="nonzero" d="M45.851 26.94v12.047a2.5 2.5 0 1 1-5 0V25.105a2.5 2.5 0 0 1 1.751-2.385l19.863-6.237a2.5 2.5 0 1 1 1.498 4.77L45.851 26.94z" id="svg_6"/>
        <path fill="#55C6D9" fill-rule="nonzero" d="M66.965 44.5a2.5 2.5 0 1 1 0 5H22a2.5 2.5 0 1 1 0-5h44.965zM41.965 55.5a2.5 2.5 0 1 1 0 5H3a2.5 2.5 0 1 1 0-5h38.965z" id="svg_7"/>
        <circle cx="14.5" cy="47" r="2.5" fill="#55C6D9" id="svg_8"/>
        <circle cx="21.5" cy="69" r="2.5" fill="#55C6D9" id="svg_9"/>
        <path fill="#55C6D9" fill-rule="nonzero" d="M53.965 66.5a2.5 2.5 0 1 1 0 5H29a2.5 2.5 0 1 1 0-5h24.965zM78.965.5a2.5 2.5 0 1 1 0 5H40a2.5 2.5 0 1 1 0-5h38.965zM39.965 12.5a2.5 2.5 0 1 1 0 5H21a2.5 2.5 0 1 1 0-5h18.965z" id="svg_10"/>
        <path fill="#434A54" fill-rule="nonzero" d="M101.5 103.125a2.5 2.5 0 1 1-5 0V90.76a2.5 2.5 0 1 1 5 0v12.365zM101.5 80.714a2.5 2.5 0 1 1-5 0V45a2.5 2.5 0 1 1 5 0v35.714z" id="svg_11"/>
    </g><rect fill="#fe980f" stroke="#fe980f" stroke-dashoffset="" fill-rule="evenodd" id="svg_12" x="77" y="18" width="7" height="1" style="color: rgb(254, 152, 15);"/><path fill="#fe980f" fill-opacity="1" stroke="#fe980f" stroke-opacity="1" stroke-width="1" stroke-dasharray="none" stroke-linejoin="miter" stroke-linecap="butt" stroke-dashoffset="" fill-rule="evenodd" opacity="1" marker-start="" marker-mid="" marker-end="" id="svg_13" d="M 81.19512235118405 15.404879300300767 C 81.19512235118405 15.404879300300767 127.53658684373686 30.282928426857193 127.53658684373686 30.282928426857193 C 127.53658684373686 30.282928426857193 117.53658661113336 34.42926998671719 117.53658661113336 34.185367542019534 C 117.53658661113336 33.94146509732188 71.68292700797586 18.81951352606782 71.68292700797586 18.81951352606782" style="color: rgb(254, 152, 15);"/><path fill="#fe980f" fill-opacity="1" stroke="#fe980f" stroke-opacity="1" stroke-width="1" stroke-dasharray="none" stroke-linejoin="miter" stroke-linecap="butt" stroke-dashoffset="" fill-rule="evenodd" opacity="1" marker-start="" marker-mid="" marker-end="" id="svg_15" d="M 120.95122083690039 38.331709101879525 C 120.95122083690039 38.331709101879525 120.95122083690039 52.72195333904065 120.95122083690039 52.72195333904065 C 120.95122083690039 52.72195333904065 132.90244062708507 49.30731911327361 132.90244062708507 49.30731911327361" style="color: rgb(254, 152, 15);"/><path fill="#fe980f" fill-opacity="1" stroke="#fe980f" stroke-opacity="1" stroke-width="1" stroke-dasharray="none" stroke-linejoin="miter" stroke-linecap="butt" stroke-dashoffset="" fill-rule="evenodd" opacity="1" marker-start="" marker-mid="" marker-end="" id="svg_14" d="M133.53469277333838,34.53877595903872 " style="color: rgb(254, 152, 15);"/><path fill="#fe980f" fill-opacity="1" stroke="#fe980f" stroke-opacity="1" stroke-width="1" stroke-dasharray="none" stroke-linejoin="miter" stroke-linecap="butt" stroke-dashoffset="" fill-rule="evenodd" opacity="1" marker-start="" marker-mid="" marker-end="" id="svg_16" d="M 133.33061114465733 48.824489966713855 C 133.33061114465733 48.824489966713855 133.33061114465733 34.74285758771979 133.33061114465733 34.74285758771979 C 133.33061114465733 34.74285758771979 121.289795052474 38.620408532660186 121.289795052474 38.620408532660186 C 121.289795052474 38.620408532660186 123.12652971060363 50.86530625352458 123.0612244897959 50.816326530612244 C 123.12652971060363 50.86530625352458 133.33061114465733 48.824489966713855 133.33061114465733 48.824489966713855 z" style="color: rgb(254, 152, 15);"/><polyline fill="none" stroke="#fe980f" stroke-dashoffset="" fill-rule="evenodd" marker-start="" marker-mid="" marker-end="" id="svg_17" points="128.35172033797556,50.70344692416201 128.35172033797556,51.2206882864627 128.35172033797556,51.393102073896266 128.35172033797556,51.565515861329835 128.35172033797556,51.7379296487634 128.179306550542,51.91034343619697 128.00689276310845,51.91034343619697 128.00689276310845,52.08275722363053 127.83447897567488,52.08275722363053 127.83447897567488,52.25517101106409 127.66206518824134,52.25517101106409 127.48965140080776,52.427584798497655 127.31723761337419,52.427584798497655 127.14482382594062,52.427584798497655 126.97241003850706,52.25517101106409 126.7999962510735,52.08275722363053 126.62758246363992,52.08275722363053 126.45516867620637,52.08275722363053 126.45516867620637,51.91034343619697 126.2827548887728,51.91034343619697 126.2827548887728,51.7379296487634 126.2827548887728,51.565515861329835 126.2827548887728,51.393102073896266 126.45516867620637,51.393102073896266 126.62758246363992,51.393102073896266 126.7999962510735,51.393102073896266 126.97241003850706,51.393102073896266 127.14482382594062,51.393102073896266 127.31723761337419,51.393102073896266 127.48965140080776,51.393102073896266 " style="color: rgb(254, 152, 15);"/><polyline fill="none" stroke="#fe980f" stroke-dashoffset="" fill-rule="evenodd" marker-start="" marker-mid="" marker-end="" id="svg_18" points="125.24827216417141,51.7379296487634 125.24827216417141,51.7379296487634 125.42068595160495,51.7379296487634 125.59309973903854,51.7379296487634 125.7655135264721,51.7379296487634 125.93792731390566,51.7379296487634 126.11034110133923,51.7379296487634 126.2827548887728,51.7379296487634 126.45516867620637,51.91034343619697 126.45516867620637,52.08275722363053 126.62758246363992,52.25517101106409 126.62758246363992,52.427584798497655 126.7999962510735,52.427584798497655 126.97241003850706,52.427584798497655 126.97241003850706,52.59999858593122 126.97241003850706,52.772412373364794 126.97241003850706,52.94482616079836 127.14482382594062,52.94482616079836 127.31723761337419,52.94482616079836 127.48965140080776,52.94482616079836 127.66206518824134,52.94482616079836 127.83447897567488,52.772412373364794 128.00689276310845,52.772412373364794 128.00689276310845,52.59999858593122 128.179306550542,52.427584798497655 128.179306550542,52.25517101106409 128.179306550542,52.08275722363053 128.179306550542,51.91034343619697 128.179306550542,51.7379296487634 128.179306550542,51.565515861329835 128.179306550542,51.393102073896266 128.00689276310845,51.393102073896266 128.00689276310845,51.2206882864627 127.83447897567488,51.2206882864627 " style="color: rgb(254, 152, 15);" class=""/><polyline fill="none" stroke="#fe980f" stroke-dashoffset="" fill-rule="evenodd" marker-start="" marker-mid="" marker-end="" id="svg_19" points="127.83447897567488,51.7379296487634 127.66206518824134,51.7379296487634 " style="color: rgb(254, 152, 15);"/><polyline fill="none" stroke="#fe980f" stroke-dashoffset="" fill-rule="evenodd" marker-start="" marker-mid="" marker-end="" id="svg_20" points="129.38620306257698,50.013791774427744 129.04137548770984,50.358619349294884 129.04137548770984,50.531033136728446 129.04137548770984,50.531033136728446 129.04137548770984,50.70344692416201 128.8689617002763,50.70344692416201 128.8689617002763,50.87586071159557 128.8689617002763,51.048274499029134 128.6965479128427,51.2206882864627 128.6965479128427,51.393102073896266 128.52413412540915,51.393102073896266 " style="color: rgb(254, 152, 15);"/><polyline fill="none" stroke="#fe980f" stroke-dashoffset="" fill-rule="evenodd" marker-start="" marker-mid="" marker-end="" id="svg_21" points="128.52413412540915,51.7379296487634 128.52413412540915,52.08275722363052 128.52413412540915,52.25517101106409 128.52413412540915,52.427584798497655 " style="color: rgb(254, 152, 15);"/><path fill="#fe980f" fill-opacity="1" stroke="#fe980f" stroke-opacity="1" stroke-width="1" stroke-dasharray="none" stroke-linejoin="miter" stroke-linecap="butt" stroke-dashoffset="" fill-rule="evenodd" opacity="1" marker-start="" marker-mid="" marker-end="" id="svg_22" d="M 124.73103080187072 51.91034343619697 C 124.73103080187072 51.91034343619697 126.45516867620634 52.42758479849766 126.28275488877279 52.59999858593123" style="color: rgb(254, 152, 15);"/><polyline fill="none" stroke="#fe980f" stroke-dashoffset="" fill-rule="evenodd" marker-start="" marker-mid="" marker-end="" id="svg_23" points="127.66206518824131,50.013791774427744 127.48965140080776,50.531033136728446 127.48965140080776,50.70344692416201 127.48965140080776,50.87586071159558 127.48965140080776,51.048274499029134 127.31723761337417,51.2206882864627 127.31723761337417,51.39310207389627 127.14482382594062,51.39310207389627 127.14482382594062,51.56551586132985 127.14482382594062,51.7379296487634 126.97241003850706,51.7379296487634 126.97241003850706,51.91034343619697 126.79999625107348,51.91034343619697 126.79999625107348,52.08275722363053 126.62758246363992,52.08275722363053 126.62758246363992,52.25517101106409 126.45516867620637,52.25517101106409 126.45516867620637,52.427584798497655 126.28275488877279,52.427584798497655 126.28275488877279,52.25517101106409 126.28275488877279,52.08275722363053 126.11034110133923,51.91034343619697 " style="color: rgb(254, 152, 15);"/><polyline fill="none" stroke="#fe980f" stroke-dashoffset="" fill-rule="evenodd" marker-start="" marker-mid="" marker-end="" id="svg_24" points="127.14482382594062,52.7724123733648 127.14482382594062,52.7724123733648 127.14482382594062,52.94482616079836 127.14482382594062,53.117239948231926 127.14482382594062,53.289653735665496 126.97241003850706,53.289653735665496 " style="color: rgb(254, 152, 15);"/><path fill="none" fill-opacity="1" stroke="#fe980f" stroke-opacity="1" stroke-width="1" stroke-dasharray="none" stroke-linejoin="miter" stroke-linecap="butt" stroke-dashoffset="" fill-rule="evenodd" opacity="1" marker-start="" marker-mid="" marker-end="" d="M133.6965477484161,48.97930904982634L132.6620650238147,49.32413662469348" id="svg_26"/><path fill="none" fill-opacity="1" stroke="#fe980f" stroke-opacity="1" stroke-width="1" stroke-dasharray="none" stroke-linejoin="miter" stroke-linecap="butt" stroke-dashoffset="" fill-rule="evenodd" opacity="1" marker-start="" marker-mid="" marker-end="" d="M128.6965479128427,52.59999858593123L127.66206518824134,53.117239948231926" id="svg_28"/></g></svg>