<svg xmlns="http://www.w3.org/2000/svg" viewBox="0 0 117 120"><g fill-rule="evenodd"><path d="M46.573 8.182L94.306 23.1v23.36L78.514 51.6V29.398L28.82 13.557z" fill="#f05562"/><g fill="#434a54" fill-rule="nonzero"><path d="M116.014 19.464a2.075 2.075 0 0 0-.647-1.088 2.588 2.588 0 0 0-.47-.373 2.567 2.567 0 0 0-.3-.15c-.048-.028-18.584-5.94-55.61-17.735a2.52 2.52 0 0 0-1.526 0L2.075 17.742a2.518 2.518 0 0 0-1.762 2.396V80.56a2.52 2.52 0 0 0 1.762 2.4l19.45 6.575c.33.105.873-1.358 1.626-4.39L5.348 78.72V21.98l16.785-5.34 47.08 14.982-10.995 3.497-42.044-13.373a2.517 2.517 0 1 0-1.526 4.798L55.7 39.602v29.924a2.518 2.518 0 0 0 5.035 0V39.602l14.268-4.532v16.702a2.518 2.518 0 0 0 3.273 2.4l5.873-1.874a2.517 2.517 0 1 0-1.526-4.798l-2.593.825V33.472l13.006-4.14v14.854l-2.86.9a2.517 2.517 0 0 0 .756 4.916c.256 0 .5-.04.755-.118l4.617-1.468a2.517 2.517 0 0 0 1.762-2.4V27.722l13.02-4.14V78.72l-3.272 1.045a2.518 2.518 0 1 0 1.371 4.845l5.175-1.648a2.517 2.517 0 0 0 1.762-2.4V20.14a2.517 2.517 0 0 0-.109-.674zm-38.496 9.514l-47.08-14.98 9.74-3.1 47.08 14.98-9.738 3.1zm18.04-5.74L48.483 8.255 58.22 5.16l47.08 14.98-9.738 3.1z"/><path d="M13.345 63A2.345 2.345 0 0 0 11 65.345V82.38a2.345 2.345 0 0 0 4.69 0V65.345A2.345 2.345 0 0 0 13.345 63zm-.001-7c-.617 0-1.22.25-1.657.687a2.363 2.363 0 0 0-.687 1.66c0 .613.25 1.218.687 1.656a2.36 2.36 0 0 0 3.313.001c.436-.438.687-1.04.687-1.657s-.25-1.223-.687-1.66A2.361 2.361 0 0 0 13.344 56zm9 29c-.617 0-1.22.25-1.657.687a2.363 2.363 0 0 0-.687 1.66c0 .613.25 1.218.687 1.656a2.36 2.36 0 0 0 3.313.001c.436-.438.686-1.04.686-1.657s-.25-1.223-.686-1.66A2.361 2.361 0 0 0 22.344 85z"/></g><path d="M98.5 53.47a2.518 2.518 0 0 0-2.518 2.517v26.246c-.014 12.508-10.15 22.645-22.66 22.66h-30.2a2.518 2.518 0 0 0-2.518 2.517v5.235L22.327 99.857 40.595 87.07v5.234a2.518 2.518 0 0 0 2.517 2.517h22.66c8.34-.008 15.097-6.766 15.105-15.105v-1.07a2.518 2.518 0 0 0-5.035 0v1.07c0 5.56-4.51 10.07-10.07 10.07H45.63v-7.553a2.518 2.518 0 0 0-3.96-2.062L16.493 97.795a2.517 2.517 0 0 0 0 4.124l25.177 17.623a2.517 2.517 0 0 0 3.96-2.062v-7.553h27.693C88.61 109.91 101 97.52 101.017 82.233V55.987a2.518 2.518 0 0 0-2.518-2.518z" fill="#55c6d9" fill-rule="nonzero"/><path d="M20 41h25.183v6.52L31.98 80h-8.135L36.66 48.354H20z" fill="#f05562"/><g fill="#fe980f" stroke="#fe980f"><path d="M30.786 13.897l46.552 15 9.655-3.103c.172 0-46.897-15-46.897-15l-9.3 3.103zm-10.69 27.07l24.828.172-.097 6.103c.097.103-13.007 32.862-13.007 32.862l-7.93-.172 11.552-31.897H20.097v-7.07zm60-7.414l-.172 14.3 12.834-4.07c.097.103.097-14.207.097-14.207l-12.76 3.965zm8.275 12.24l-.172 2.24"/><path d="M87.855 44.586l.345 3.103-2.07.7-1.303-3.897c.097.103 3.028.103 3.028.103z"/></g></g><g fill="none"><path stroke="#fe980f" d="M86.476 46.655h-.862l-.173-.172h-.344l-.173-.173h-.172.172v.173h.517l.173.172v.173h-1.207v-.173h.7l.172.173.172.172v.345h-.172"/><path stroke="#fe980f" d="M86.476 48.207l-.173-.345V47.7h-.344v-.173h-.173l-.172-.172h-.173v-.173h-.172V47m2.76-1.38h.172v-.345h.172"/><path stroke="#fe980f" d="M85.097 46.483v.345h-.173V47h-.172 1.034v.172h-.862V47h-.172v-.172m1.034 1.034v-.345h-.345m3.104-3.103v.517m3.955-1.724v.172h-.172v.173h-.172"/></g></svg>