<svg xmlns="http://www.w3.org/2000/svg" viewBox="0 0 126 120"><style><![CDATA[.B{stroke:#fe980f}.C{fill-rule:evenodd}.D{fill-rule:nonzero}]]></style><g class="C"><g class="D"><path d="M35.476 117.433H13.02a4.678 4.678 0 0 1-4.678-4.678v-38.13a4.679 4.679 0 0 1 4.678-4.68h22.457a4.678 4.678 0 0 1 4.679 4.68v38.13a4.679 4.679 0 0 1-4.679 4.678z" fill="#f05562"/><path d="M110.14 83.748h-7.322a5.614 5.614 0 1 0 0-11.229h-40.57l1.956-2.505V58.206l-11.387 4.192-12.66 12.694v34.388l6.45 5.626a9.448 9.448 0 0 0 6.21 2.327H97.03c3.147 0 5.8-2.575 5.74-5.722a5.614 5.614 0 0 0-5.614-5.506h7.854c3.148 0 5.8-2.576 5.74-5.723a5.614 5.614 0 0 0-5.614-5.505h5.005a5.614 5.614 0 0 0 0-11.23z" fill="#fff"/><path d="M24.248 105.737a2.36 2.36 0 0 0-1.654.685 2.357 2.357 0 0 0-.686 1.654 2.35 2.35 0 0 0 .686 1.654 2.357 2.357 0 0 0 1.654.686 2.35 2.35 0 0 0 1.653-.686 2.356 2.356 0 0 0 .686-1.654c0-.615-.25-1.22-.686-1.654a2.355 2.355 0 0 0-1.653-.685zm89.936-60.63c-.615 0-1.22.25-1.654.686a2.358 2.358 0 0 0-.685 1.654 2.35 2.35 0 0 0 .685 1.653 2.357 2.357 0 0 0 1.654.686 2.35 2.35 0 0 0 1.654-3.993 2.352 2.352 0 0 0-1.654-.686zm10.904-17.42a2.34 2.34 0 0 0-1.655-.685l-57.546.003a2.34 2.34 0 0 0-2.34 2.34V55.3a67.055 67.055 0 0 0-9.353 4.108c-2.94 1.57-4.657 2.985-5.495 3.822l-7.43 7.43a7.015 7.015 0 0 0-5.793-3.063H13.02a7.026 7.026 0 0 0-7.017 7.018v38.13a7.026 7.026 0 0 0 7.017 7.019h22.458a7.01 7.01 0 0 0 6.8-5.33l2.782 2.426a11.786 11.786 0 0 0 7.748 2.904h70.617a2.34 2.34 0 0 0 2.339-2.34V29.34c0-.62-.247-1.215-.685-1.654zm-89.612 87.408H13.02c-1.3 0-2.34-1.05-2.34-2.34v-38.13c0-1.3 1.05-2.34 2.34-2.34h8.9v26.948a2.34 2.34 0 0 0 4.678 0V72.285h8.9c1.3 0 2.34 1.05 2.34 2.34v38.13c0 1.3-1.05 2.34-2.34 2.34zm12.668-1.75l-5.65-4.928V76.06l7.576-7.687c2.146-1.858 3.94-3.194 5.386-4 3.045-1.717 5.74-2.913 8.085-3.588v6.3l-2.266 6.03a2.34 2.34 0 0 0 2.266 1.76l39.277.003a3.279 3.279 0 0 1 3.276 3.275 3.279 3.279 0 0 1-3.276 3.275H79.252a2.34 2.34 0 0 0 0 4.679h30.9a3.279 3.279 0 0 1 3.275 3.275 3.279 3.279 0 0 1-3.275 3.275H79.25a2.34 2.34 0 0 0 0 4.679h25.884a3.279 3.279 0 0 1 3.275 3.275 3.279 3.279 0 0 1-3.275 3.275H79.252a2.34 2.34 0 0 0 0 4.679h17.904a3.279 3.279 0 0 1 3.275 3.275 3.279 3.279 0 0 1-3.275 3.275h-44.34a7.113 7.113 0 0 1-4.672-1.752zm56.257 1.75c.453-1 .708-2.108.708-3.275a7.905 7.905 0 0 0-.708-3.275h.734c4.386 0 7.954-3.568 7.954-7.954a7.9 7.9 0 0 0-.845-3.56c3.368-.924 5.85-4 5.85-7.668a7.91 7.91 0 0 0-1.57-4.739v-29.65a2.34 2.34 0 0 0-4.679 0v26.62a7.956 7.956 0 0 0-1.705-.186c.377-1 .632-2.108.632-3.275 0-4.385-3.568-7.953-7.954-7.953h-34.6V32.676l52.867-.002v82.42H104.4z" fill="#434a54"/></g><path d="M76.005 32h13v39h-13z" fill="#434a54"/><path d="M26.404 63.276a2.5 2.5 0 0 1-3.808 0C7.9 45.982.5 33.213.5 24.5c0-13.255 10.745-24 24-24s24 10.745 24 24c0 8.713-7.4 21.482-22.096 38.776zM43.5 24.5c0-10.493-8.507-19-19-19s-19 8.507-19 19c0 6.788 6.313 18.014 19 33.272 12.687-15.258 19-26.484 19-33.272zm-19 11.75a11.75 11.75 0 1 1 0-23.5 11.75 11.75 0 1 1 0 23.5zm0-4.5a7.25 7.25 0 1 0 0-14.5 7.25 7.25 0 0 0 0 14.5z" fill="#55c6d9" class="D"/><g fill="#fe980f" class="B"><path d="M26.67 72.172h8.966l1.207.7.7 1.207v38.276l-.517 2.07"/><path d="M27.186 72.862l.517 41.724 7.586-.172s1.38-.862 1.262-.966c.117.103-9.366-40.586-9.366-40.586zm-5.862-.345l-.517 42.07s-8.448 0-8.565-.103c.117.103-1.262-1.62-1.38-1.724.117.103.117-38.345.117-38.345l1.897-1.897h8.448z"/><path d="M21.324 110.62h6.724v3.448l-8.103.345m-2.07-13.273l13.966 1.38-.807 4.207c.117.103-12.986-3.172-13.103-3.276.117.103-.055-2.3-.055-2.3z"/></g></g><g fill="none" class="B"><path d="M27.876 113.55h-.173v.17h-.7l-.173.18h-.172.172v.17h.173v.17H24.77l.173.17h2.24m.52-.34H24.6v.17h-2.586m14.138-.86v1.03h-.7m-23.266-2.58v.5l-.172.35v.52l-.173.17v.86"/><path d="M19.255 107.34l.862-1.2v-.17l.345-.35h.172l.173-.17.345-.17v-.18h.345l.172-.17h.172l.173-.17h.7v.17l-.344.52-.173.17h-.517l-.172.17-.173.18h-.517v.17h-.173v.17h-.172v-.52l.172-.17h.173l.172-.17h.173l.345-.17v-.18h.344l.173-.17h.517v-.17h.172M11.67 112v2.07h.517v.17h.173"/></g><g fill="#fe980f" class="C B"><path d="M27.703 79.76l-.345 23.448M20.98 84.586l.517 18.966"/><path d="M24.428 103.38l5.345-5.172m-3.103 6.552l.862 3.276m1.206-1.206l-3.276 5.345m-6.724-3.455l3.793 2.24"/></g><g fill="none" class="B"><path d="M22.014 110.8v-.34l-.173-.17v-.18h-.344v-.17h-.173v-.52h-.172v-2.07h.172v-1.55l.173-.17v-.52h.172v-1.38m3.965.5v.86h.345v.18h.7v.17h.172v1.03h.173v.18-.7h-.7v-.52"/><path d="M24.255 104.6h-.517l-.172.17h-.173v.17h-.517v.17h-.345v.18h-.172v.17h-.173v.17h-.172v.17h-.173v.18h-.172v.34h-.172v.52h-.173v.17l-.172.17m6.55 7.42h-7.758"/><path d="M25.807 110.62l.345-.34h.345v-.35h.172v-.17h.172v-.35h.173v-.34h.172v-.35l.173-.17v-2.07"/><path d="M26.67 105.45v.86h.345v.52h.172v.34h.173v1.55m-1.553-5v-.34h.172v-.35h.173l.172-.17v-.17h.345v-.35h.172v-1.37h.173v-.18h.172v-.17h.173v-.86h.172v-.345"/><path d="M24.6 102.34h.345l.345-.17.172-.17h.517v-.17h.173v-.17h.172v-.18h.173v-.17l.344-.34"/><path d="M26.84 101.14v-.35h.173v-.34h.172M21.67 102v-1.2h.172v-.17.17m5.86 5.5h-.172v.52h-.172v.7m-3.276-2.6h-.862l-.173.17h-.172v.18"/><path d="M23.566 104.93h-.518v.17l-.172.18h-.173 1.035v-.18m3.448-17.928v6.38h.173v2.24h.172v.862l.172.173v2.07"/><path d="M27.186 81.3v20"/></g></svg>