<svg xmlns="http://www.w3.org/2000/svg" width="117" height="120" style=""><rect id="backgroundrect" width="100%" height="100%" x="0" y="0" fill="none" stroke="none"/>
    
<g class="currentLayer" style=""><title>Layer 1</title><g fill="none" fill-rule="evenodd" id="svg_1">
        <path fill="#F05562" d="M46.573 8.182l47.733 14.917v23.36L78.514 51.6V29.398L28.821 13.557z" id="svg_2"/>
        <path fill="#434A54" fill-rule="nonzero" d="M116.014 19.464a2.075 2.075 0 0 0-.647-1.088 2.588 2.588 0 0 0-.47-.373 2.567 2.567 0 0 0-.3-.15c-.048-.028-18.584-5.94-55.609-17.735a2.52 2.52 0 0 0-1.526 0L2.075 17.742a2.518 2.518 0 0 0-1.762 2.396v60.423c0 1.098.714 2.07 1.762 2.4l19.451 6.575c.33.105.873-1.358 1.626-4.389L5.348 78.72V21.98l16.785-5.34 47.08 14.982-10.995 3.497-42.044-13.373a2.517 2.517 0 1 0-1.526 4.798L55.7 39.602v29.924a2.518 2.518 0 0 0 5.035 0V39.602l14.268-4.532v16.702a2.518 2.518 0 0 0 3.273 2.4l5.873-1.874a2.517 2.517 0 1 0-1.526-4.798l-2.593.825V33.472l13.006-4.14v14.854l-2.86.91a2.517 2.517 0 0 0 .756 4.916c.256 0 .51-.04.755-.118l4.617-1.468a2.517 2.517 0 0 0 1.762-2.4V27.722l13.021-4.139v55.136l-3.272 1.045a2.518 2.518 0 1 0 1.371 4.845c.031-.01 1.756-.558 5.175-1.648a2.517 2.517 0 0 0 1.762-2.4V20.139a2.517 2.517 0 0 0-.109-.674zm-38.496 9.514l-47.08-14.98 9.739-3.1 47.079 14.98-9.738 3.1zm18.04-5.74L48.483 8.255l9.736-3.096 47.079 14.98-9.738 3.099z" id="svg_3"/>
        <path fill="#434A54" fill-rule="nonzero" d="M13.345 63A2.345 2.345 0 0 0 11 65.345v17.034a2.345 2.345 0 0 0 4.69 0V65.345A2.345 2.345 0 0 0 13.345 63zM13.344 56c-.617 0-1.221.25-1.657.687a2.363 2.363 0 0 0-.687 1.66c0 .613.25 1.218.687 1.656a2.36 2.36 0 0 0 1.657.684A2.36 2.36 0 0 0 15 60.004c.436-.438.687-1.04.687-1.657 0-.619-.251-1.223-.687-1.66A2.361 2.361 0 0 0 13.344 56zM22.344 85c-.617 0-1.221.25-1.657.687a2.363 2.363 0 0 0-.687 1.66c0 .613.25 1.218.687 1.656a2.36 2.36 0 0 0 1.657.684A2.36 2.36 0 0 0 24 89.004c.436-.438.686-1.04.686-1.657 0-.619-.25-1.223-.686-1.66A2.361 2.361 0 0 0 22.344 85z" id="svg_4"/>
        <path fill="#55C6D9" fill-rule="nonzero" d="M98.5 53.47a2.518 2.518 0 0 0-2.518 2.517v26.246c-.014 12.508-10.15 22.645-22.659 22.659h-30.21a2.518 2.518 0 0 0-2.518 2.517v5.235L22.327 99.857 40.595 87.07v5.234a2.518 2.518 0 0 0 2.517 2.517h22.659c8.339-.008 15.097-6.766 15.105-15.105v-1.07a2.518 2.518 0 0 0-5.035 0v1.07c0 5.561-4.509 10.07-10.07 10.07H45.63v-7.553a2.518 2.518 0 0 0-3.96-2.062L16.493 97.795a2.517 2.517 0 0 0 0 4.124l25.177 17.623a2.517 2.517 0 0 0 3.96-2.062v-7.553h27.693c15.288-.018 27.676-12.406 27.694-27.694V55.987a2.518 2.518 0 0 0-2.518-2.518z" id="svg_5"/>
        <path fill="#F05562" d="M20 41h25.183v6.519L31.979 80h-8.135L36.66 48.354H20z" id="svg_6"/>
    </g><path fill="#fe980f" fill-opacity="1" stroke="#fe980f" stroke-opacity="1" stroke-width="1" stroke-dasharray="none" stroke-linejoin="miter" stroke-linecap="butt" stroke-dashoffset="" fill-rule="evenodd" opacity="1" marker-start="" marker-mid="" marker-end="" id="svg_7" d="M 30.78620546320535 13.89655231947562 C 30.78620546320535 13.89655231947562 77.33792807026802 28.89655182619582 77.33792807026802 28.89655182619582 C 77.33792807026802 28.89655182619582 86.82068637911412 25.79310365239164 86.99310016654769 25.79310365239164 C 87.16551395398126 25.79310365239164 40.09654998461788 10.793104145671442 40.09654998461788 10.793104145671442 C 40.09654998461788 10.793104145671442 30.78620546320535 13.89655231947562 30.78620546320535 13.89655231947562 z" style="color: rgb(254, 152, 15);"/><path fill="#fe980f" fill-opacity="1" stroke="#fe980f" stroke-opacity="1" stroke-width="1" stroke-dasharray="none" stroke-linejoin="miter" stroke-linecap="butt" stroke-dashoffset="" fill-rule="evenodd" opacity="1" marker-start="" marker-mid="" marker-end="" id="svg_9" d="M 20.09655064232429 40.9655169465454 C 20.09655064232429 40.9655169465454 44.924136032757715 41.13793073397897 44.924136032757715 41.13793073397897 C 44.924136032757715 41.13793073397897 44.924136032757715 47.34482708158733 44.827586206896555 47.241379310344826 C 44.924136032757715 47.34482708158733 31.820688187806738 80.10344669396477 31.820688187806738 80.10344669396477 C 31.820688187806738 80.10344669396477 23.889653965862728 79.93103290653119 23.889653965862728 79.93103290653119 C 23.889653965862728 79.93103290653119 35.441377723911614 48.03448223132158 35.441377723911614 48.03448223132158 C 35.441377723911614 48.03448223132158 20.09655064232429 48.03448223132158 20.09655064232429 48.03448223132158 C 20.09655064232429 48.03448223132158 20.09655064232429 40.9655169465454 20.09655064232429 40.9655169465454 z" style="color: rgb(254, 152, 15);"/><path fill="#fe980f" fill-opacity="1" stroke="#fe980f" stroke-opacity="1" stroke-width="1" stroke-dasharray="none" stroke-linejoin="miter" stroke-linecap="butt" stroke-dashoffset="" fill-rule="evenodd" opacity="1" marker-start="" marker-mid="" marker-end="" id="svg_11" d="M 80.09654866920508 33.551724086902084 C 80.09654866920508 33.551724086902084 79.92413488177151 47.86206844388802 79.92413488177151 47.86206844388802 C 79.92413488177151 47.86206844388802 92.85516893928893 43.89655133291601 92.75862068965517 43.793103448275865 C 92.85516893928893 43.89655133291601 92.85516893928893 29.586206975930086 92.85516893928893 29.586206975930086 C 92.85516893928893 29.586206975930086 80.09654866920508 33.551724086902084 80.09654866920508 33.551724086902084 z" style="color: rgb(254, 152, 15);"/><path fill="#fe980f" fill-opacity="1" stroke="#fe980f" stroke-opacity="1" stroke-width="1" stroke-dasharray="none" stroke-linejoin="miter" stroke-linecap="butt" stroke-dashoffset="" fill-rule="evenodd" opacity="1" marker-start="" marker-mid="" marker-end="" id="svg_13" d="M 88.37241046601623 45.79310299468523 C 88.37241046601623 45.79310299468523 88.19999667858265 48.03448223132158 88.19999667858265 48.03448223132158" style="color: rgb(254, 152, 15);"/><path fill="#fe980f" fill-opacity="1" stroke="#fe980f" stroke-opacity="1" stroke-width="1" stroke-dasharray="none" stroke-linejoin="miter" stroke-linecap="butt" stroke-dashoffset="" fill-rule="evenodd" opacity="1" marker-start="" marker-mid="" marker-end="" id="svg_8" d="M 87.85516910371553 44.586206482650276 C 87.85516910371553 44.586206482650276 88.19999667858265 47.68965465645446 88.19999667858265 47.68965465645446 C 88.19999667858265 47.68965465645446 86.13103122937987 48.379309806188715 86.13103122937987 48.379309806188715 C 86.13103122937987 48.379309806188715 84.92413471734491 44.586206482650276 84.82758620689656 44.48275862068966 C 84.92413471734491 44.586206482650276 87.85516910371553 44.586206482650276 87.85516910371553 44.586206482650276 z" style="color: rgb(254, 152, 15);" class=""/><polyline fill="none" stroke="#fe980f" stroke-dashoffset="" fill-rule="evenodd" marker-start="" marker-mid="" marker-end="" id="svg_12" points="86.475858804247,46.65517193185306 86.13103122937987,46.65517193185306 85.9586174419463,46.65517193185306 85.61378986707916,46.65517193185306 85.44137607964561,46.48275814441949 85.26896229221204,46.48275814441949 85.09654850477847,46.48275814441949 84.92413471734491,46.31034435698593 84.75172092991134,46.31034435698593 84.92413471734491,46.31034435698593 84.92413471734491,46.48275814441949 85.09654850477847,46.48275814441949 85.26896229221204,46.48275814441949 85.44137607964561,46.48275814441949 85.61378986707916,46.65517193185306 85.61378986707916,46.827585719286624 85.44137607964561,46.827585719286624 85.26896229221204,46.827585719286624 85.09654850477847,46.827585719286624 84.92413471734491,46.827585719286624 84.75172092991134,46.827585719286624 84.57930714247777,46.827585719286624 84.40689335504422,46.827585719286624 84.40689335504422,46.65517193185306 84.57930714247777,46.65517193185306 84.75172092991134,46.65517193185306 84.92413471734491,46.65517193185306 85.09654850477847,46.65517193185306 85.26896229221204,46.827585719286624 85.44137607964561,46.999999506720194 85.44137607964561,47.172413294153756 85.44137607964561,47.34482708158732 85.26896229221204,47.34482708158732 " style="color: rgb(254, 152, 15);"/><polyline fill="none" stroke="#fe980f" stroke-dashoffset="" fill-rule="evenodd" marker-start="" marker-mid="" marker-end="" id="svg_10" points="86.475858804247,48.20689601875515 86.30344501681343,47.86206844388802 86.30344501681343,47.68965465645446 86.13103122937987,47.68965465645446 85.9586174419463,47.68965465645446 85.9586174419463,47.517240869020895 85.78620365451273,47.517240869020895 85.61378986707916,47.34482708158733 85.44137607964561,47.34482708158733 85.44137607964561,47.172413294153756 85.26896229221204,47.172413294153756 85.26896229221204,46.999999506720194 " style="color: rgb(254, 152, 15);"/><polyline fill="none" stroke="#fe980f" stroke-dashoffset="" fill-rule="evenodd" marker-start="" marker-mid="" marker-end="" id="svg_14" points="88.02758289114908,45.62068920725167 88.02758289114908,45.62068920725167 88.02758289114908,45.62068920725167 88.19999667858265,45.62068920725167 88.37241046601623,45.62068920725167 88.54482425344978,45.62068920725167 88.37241046601623,45.62068920725167 88.19999667858265,45.62068920725167 88.19999667858265,45.44827541981811 88.19999667858265,45.27586163238455 88.37241046601623,45.27586163238455 " style="color: rgb(254, 152, 15);"/><polyline fill="none" stroke="#fe980f" stroke-dashoffset="" fill-rule="evenodd" marker-start="" marker-mid="" marker-end="" id="svg_15" points="85.09654850477847,46.4827581444195 85.09654850477847,46.4827581444195 85.09654850477847,46.65517193185306 85.09654850477847,46.65517193185306 85.09654850477847,46.82758571928663 84.92413471734491,46.82758571928663 84.92413471734491,46.999999506720194 84.75172092991134,46.999999506720194 84.92413471734491,46.999999506720194 85.09654850477847,46.999999506720194 85.26896229221204,46.999999506720194 85.44137607964561,46.999999506720194 85.61378986707916,46.999999506720194 85.78620365451273,46.999999506720194 85.78620365451273,47.172413294153756 85.61378986707916,47.172413294153756 85.44137607964561,47.172413294153756 85.26896229221204,47.172413294153756 85.09654850477847,47.172413294153756 84.92413471734491,47.172413294153756 84.92413471734491,46.999999506720194 84.75172092991134,46.999999506720194 84.75172092991134,46.82758571928663 " style="color: rgb(254, 152, 15);"/><polyline fill="none" stroke="#fe980f" stroke-dashoffset="" fill-rule="evenodd" marker-start="" marker-mid="" marker-end="" id="svg_16" points="85.78620365451273,47.86206844388802 85.78620365451273,47.68965465645446 85.78620365451273,47.517240869020895 85.61378986707916,47.517240869020895 85.44137607964561,47.517240869020895 " style="color: rgb(254, 152, 15);"/><polyline fill="none" stroke="#fe980f" stroke-dashoffset="" fill-rule="evenodd" marker-start="" marker-mid="" marker-end="" id="svg_17" points="88.54482425344978,44.41379269521671 88.54482425344978,44.41379269521671 88.54482425344978,44.41379269521671 88.54482425344978,44.586206482650276 88.54482425344978,44.758620270083846 88.54482425344978,44.93103405751741 " style="color: rgb(254, 152, 15);"/><polyline fill="none" stroke="#fe980f" stroke-dashoffset="" fill-rule="evenodd" marker-start="" marker-mid="" marker-end="" id="svg_18" points="92.51034136442178,43.206896183181755 92.51034136442178,43.206896183181755 92.51034136442178,43.37930997061532 92.33792757698824,43.37930997061532 92.33792757698824,43.55172375804889 92.16551378955465,43.55172375804889 " style="color: rgb(254, 152, 15);"/></g></svg>