<svg xmlns="http://www.w3.org/2000/svg" width="126" height="120"><rect id="backgroundrect" width="100%" height="100%" x="0" y="0" fill="none" stroke="none"/>
    
<g class="currentLayer" style=""><title>Layer 1</title><g fill="none" fill-rule="evenodd" id="svg_1">
        <path fill="#F05562" fill-rule="nonzero" d="M35.476 117.433H13.02a4.678 4.678 0 0 1-4.678-4.678v-38.13a4.679 4.679 0 0 1 4.678-4.68h22.457a4.678 4.678 0 0 1 4.679 4.68v38.13a4.679 4.679 0 0 1-4.679 4.678z" id="svg_2"/>
        <path fill="#FFF" fill-rule="nonzero" d="M110.14 83.748h-7.322a5.614 5.614 0 1 0 0-11.229H62.247l1.956-2.505V58.206l-11.387 4.192-12.661 12.694v34.388l6.451 5.626a9.448 9.448 0 0 0 6.21 2.327h44.213c3.147 0 5.799-2.575 5.74-5.722a5.614 5.614 0 0 0-5.614-5.506h7.854c3.148 0 5.8-2.576 5.74-5.723a5.614 5.614 0 0 0-5.614-5.505h5.005a5.614 5.614 0 0 0 0-11.23z" id="svg_3"/>
        <path fill="#434A54" fill-rule="nonzero" d="M24.248 105.737c-.615 0-1.219.25-1.654.685a2.357 2.357 0 0 0-.686 1.654c0 .616.25 1.22.686 1.654a2.357 2.357 0 0 0 1.654.686c.615 0 1.219-.25 1.653-.686a2.356 2.356 0 0 0 .686-1.654c0-.615-.25-1.219-.686-1.654a2.355 2.355 0 0 0-1.653-.685zM114.184 45.108c-.615 0-1.219.25-1.654.686a2.358 2.358 0 0 0-.685 1.654c0 .615.25 1.219.685 1.653a2.357 2.357 0 0 0 1.654.686c.617 0 1.219-.25 1.654-.686a2.35 2.35 0 0 0 .687-1.653 2.35 2.35 0 0 0-.687-1.654 2.352 2.352 0 0 0-1.654-.686z" id="svg_4"/>
        <path fill="#434A54" fill-rule="nonzero" d="M125.088 27.686a2.34 2.34 0 0 0-1.655-.685l-57.546.003a2.34 2.34 0 0 0-2.34 2.34v25.965a67.055 67.055 0 0 0-9.353 4.108c-2.939 1.57-4.657 2.985-5.495 3.822l-7.43 7.43a7.015 7.015 0 0 0-5.793-3.063H13.02a7.026 7.026 0 0 0-7.017 7.018v38.13a7.026 7.026 0 0 0 7.017 7.019h22.458c3.287 0 6.053-2.273 6.81-5.33l2.782 2.426a11.786 11.786 0 0 0 7.748 2.904h70.617a2.34 2.34 0 0 0 2.339-2.34V29.34c0-.62-.247-1.215-.685-1.654zm-89.612 87.408H13.02c-1.29 0-2.34-1.05-2.34-2.34v-38.13c0-1.29 1.05-2.339 2.34-2.339h8.89v26.948a2.34 2.34 0 0 0 4.678 0V72.285h8.89c1.29 0 2.339 1.05 2.339 2.34v38.13c0 1.29-1.05 2.34-2.34 2.34zm12.668-1.75l-5.65-4.928V76.061l7.576-7.687c2.146-1.858 3.941-3.194 5.386-4.01 3.045-1.717 5.74-2.913 8.085-3.588v6.289l-2.266 6.03a2.34 2.34 0 0 0 2.266 1.76l39.277.003a3.279 3.279 0 0 1 3.276 3.275 3.279 3.279 0 0 1-3.276 3.275H79.252a2.34 2.34 0 0 0 0 4.679h30.889a3.279 3.279 0 0 1 3.275 3.275 3.279 3.279 0 0 1-3.275 3.275H79.25a2.34 2.34 0 0 0 0 4.679h25.884a3.279 3.279 0 0 1 3.275 3.275 3.279 3.279 0 0 1-3.275 3.275H79.252a2.34 2.34 0 0 0 0 4.679h17.904a3.279 3.279 0 0 1 3.275 3.275 3.279 3.279 0 0 1-3.275 3.275h-44.34a7.113 7.113 0 0 1-4.672-1.752zm56.257 1.75c.453-1 .708-2.108.708-3.275a7.905 7.905 0 0 0-.708-3.275h.734c4.386 0 7.954-3.568 7.954-7.954 0-1.279-.306-2.488-.845-3.56 3.368-.924 5.85-4.011 5.85-7.668a7.91 7.91 0 0 0-1.57-4.739V54.974a2.34 2.34 0 0 0-4.679 0v26.62a7.956 7.956 0 0 0-1.705-.186c.377-1 .632-2.108.632-3.275 0-4.385-3.568-7.953-7.954-7.953H68.227V32.676l52.867-.002v82.42h-16.693z" id="svg_5"/>
        <path fill="#434A54" d="M76.005 32h13.001v39H76.005z" id="svg_6"/>
        <path fill="#55C6D9" fill-rule="nonzero" d="M26.404 63.276a2.5 2.5 0 0 1-3.808 0C7.889 45.982.5 33.213.5 24.5c0-13.255 10.745-24 24-24s24 10.745 24 24c0 8.713-7.389 21.482-22.096 38.776zM43.5 24.5c0-10.493-8.507-19-19-19s-19 8.507-19 19c0 6.788 6.313 18.014 19 33.272 12.687-15.258 19-26.484 19-33.272z" id="svg_7"/>
        <path fill="#55C6D9" fill-rule="nonzero" d="M24.5 36.25c-6.49 0-11.75-5.26-11.75-11.75s5.26-11.75 11.75-11.75 11.75 5.26 11.75 11.75-5.26 11.75-11.75 11.75zm0-4.5a7.25 7.25 0 1 0 0-14.5 7.25 7.25 0 0 0 0 14.5z" id="svg_8"/>
    </g><path fill="#fe980f" fill-opacity="1" stroke="#fe980f" stroke-opacity="1" stroke-width="1" stroke-dasharray="none" stroke-linejoin="miter" stroke-linecap="butt" stroke-dashoffset="" fill-rule="evenodd" opacity="1" marker-start="" marker-mid="" marker-end="" id="svg_9" d="M 26.66896337742761 72.17241247202077 C 26.66896337742761 72.17241247202077 35.634480323973015 72.17241247202077 35.634480323973015 72.17241247202077 C 35.634480323973015 72.17241247202077 36.841376836007974 72.86206762175502 36.841376836007974 72.86206762175502 C 36.841376836007974 72.86206762175502 37.53103198574224 74.06896413378998 37.53103198574224 74.06896413378998 C 37.53103198574224 74.06896413378998 37.53103198574224 112.3448249440415 37.53103198574224 112.3448249440415 C 37.53103198574224 112.3448249440415 37.013790623441544 114.41379039324431 37.013790623441544 114.41379039324431" style="color: rgb(254, 152, 15);"/><path fill="#fe980f" fill-opacity="1" stroke="#fe980f" stroke-opacity="1" stroke-width="1" stroke-dasharray="none" stroke-linejoin="miter" stroke-linecap="butt" stroke-dashoffset="" fill-rule="evenodd" opacity="1" marker-start="" marker-mid="" marker-end="" id="svg_10" d="M26.496549589994046,72.17241247202075 " style="color: rgb(254, 152, 15);"/><path fill="#fe980f" fill-opacity="1" stroke="#fe980f" stroke-opacity="1" stroke-width="1" stroke-dasharray="none" stroke-linejoin="miter" stroke-linecap="butt" stroke-dashoffset="" fill-rule="evenodd" opacity="1" marker-start="" marker-mid="" marker-end="" id="svg_11" d="M26.66896337742761,73.03448140918859 " style="color: rgb(254, 152, 15);"/><path fill="#fe980f" fill-opacity="1" stroke="#fe980f" stroke-opacity="1" stroke-width="1" stroke-dasharray="none" stroke-linejoin="miter" stroke-linecap="butt" stroke-dashoffset="" fill-rule="evenodd" opacity="1" marker-start="" marker-mid="" marker-end="" id="svg_13" d="M 27.18620473972831 72.86206762175502 C 27.18620473972831 72.86206762175502 27.70344610202901 114.58620418067787 27.70344610202901 114.58620418067787 C 27.70344610202901 114.58620418067787 35.28965274910589 114.4137903932443 35.28965274910589 114.4137903932443 C 35.28965274910589 114.4137903932443 36.668963048574405 113.55172145607645 36.55172413793104 113.44827586206897 C 36.668963048574405 113.55172145607645 27.18620473972831 72.86206762175502 27.18620473972831 72.86206762175502 z" style="color: rgb(254, 152, 15);"/><path fill="#fe980f" fill-opacity="1" stroke="#fe980f" stroke-opacity="1" stroke-width="1" stroke-dasharray="none" stroke-linejoin="miter" stroke-linecap="butt" stroke-dashoffset="" fill-rule="evenodd" opacity="1" marker-start="" marker-mid="" marker-end="" id="svg_15" d="M 21.32413596698708 72.51724004688788 C 21.32413596698708 72.51724004688788 20.806894604686384 114.58620418067787 20.806894604686384 114.58620418067787 C 20.806894604686384 114.58620418067787 12.35861902044168 114.58620418067787 12.241379310344827 114.48275862068967 C 12.35861902044168 114.58620418067787 10.979308720973151 112.8620663063422 10.862068965517242 112.75862068965517 C 10.979308720973151 112.8620663063422 10.979308720973151 74.4137917086571 10.979308720973151 74.4137917086571 C 10.979308720973151 74.4137917086571 12.875860382742372 72.51724004688788 12.875860382742372 72.51724004688788 C 12.875860382742372 72.51724004688788 21.32413596698708 72.51724004688788 21.32413596698708 72.51724004688788 z" style="color: rgb(254, 152, 15);"/><path fill="#fe980f" fill-opacity="1" stroke="#fe980f" stroke-opacity="1" stroke-width="1" stroke-dasharray="none" stroke-linejoin="miter" stroke-linecap="butt" stroke-dashoffset="" fill-rule="evenodd" opacity="1" marker-start="" marker-mid="" marker-end="" id="svg_17" d="M 21.32413596698708 110.62068706970585 C 21.32413596698708 110.62068706970585 28.048273676896137 110.62068706970585 28.048273676896137 110.62068706970585 C 28.048273676896137 110.62068706970585 28.048273676896137 114.06896281837717 28.048273676896137 114.06896281837717 C 28.048273676896137 114.06896281837717 19.944825667518558 114.4137903932443 19.944825667518558 114.4137903932443" style="color: rgb(254, 152, 15);"/><path fill="#fe980f" fill-opacity="1" stroke="#fe980f" stroke-opacity="1" stroke-width="1" stroke-dasharray="none" stroke-linejoin="miter" stroke-linecap="butt" stroke-dashoffset="" fill-rule="evenodd" opacity="1" marker-start="" marker-mid="" marker-end="" id="svg_19" d="M 17.875860218315772 101.13792876085975 C 17.875860218315772 101.13792876085975 31.84137700043457 102.51723906032828 31.84137700043457 102.51723906032828 C 31.84137700043457 102.51723906032828 31.15172185070032 106.82758374616742 31.03448275862069 106.72413793103449 C 31.15172185070032 106.82758374616742 18.048274005749334 103.55172178492967 17.931034482758623 103.44827586206897 C 18.048274005749334 103.55172178492967 17.875860218315772 101.13792876085975 17.875860218315772 101.13792876085975 z" style="color: rgb(254, 152, 15);"/><polyline fill="none" stroke="#fe980f" stroke-dashoffset="" fill-rule="evenodd" marker-start="" marker-mid="" marker-end="" id="svg_21" points="27.875859889462568,113.55172145607645 27.70344610202901,113.55172145607645 27.70344610202901,113.72413524351003 27.531032314595436,113.72413524351003 27.358618527161873,113.72413524351003 27.18620473972831,113.72413524351003 27.013790952294745,113.72413524351003 26.841377164861175,113.8965490309436 26.66896337742761,113.8965490309436 26.496549589994046,113.8965490309436 26.324135802560473,113.8965490309436 26.15172201512691,113.8965490309436 25.979308227693352,113.8965490309436 25.806894440259782,113.8965490309436 25.979308227693352,113.8965490309436 26.15172201512691,113.8965490309436 26.324135802560473,113.8965490309436 26.496549589994046,113.8965490309436 26.66896337742761,113.8965490309436 26.841377164861175,113.8965490309436 26.841377164861175,114.06896281837717 27.013790952294745,114.06896281837717 27.013790952294745,114.24137660581073 27.18620473972831,114.24137660581073 27.013790952294745,114.24137660581073 26.841377164861175,114.24137660581073 26.66896337742761,114.24137660581073 26.496549589994046,114.24137660581073 26.324135802560473,114.24137660581073 26.15172201512691,114.24137660581073 25.979308227693352,114.24137660581073 25.806894440259782,114.24137660581073 25.63448065282622,114.24137660581073 25.46206686539265,114.24137660581073 25.289653077959088,114.24137660581073 25.117239290525525,114.24137660581073 24.944825503091955,114.24137660581073 24.772411715658393,114.24137660581073 24.944825503091955,114.4137903932443 25.117239290525525,114.4137903932443 25.289653077959088,114.4137903932443 25.46206686539265,114.4137903932443 25.63448065282622,114.4137903932443 25.806894440259782,114.4137903932443 25.979308227693352,114.4137903932443 26.15172201512691,114.4137903932443 26.324135802560473,114.4137903932443 26.496549589994046,114.4137903932443 26.66896337742761,114.4137903932443 26.841377164861175,114.4137903932443 27.013790952294745,114.4137903932443 27.18620473972831,114.4137903932443 " style="color: rgb(254, 152, 15);"/><polyline fill="none" stroke="#fe980f" stroke-dashoffset="" fill-rule="evenodd" marker-start="" marker-mid="" marker-end="" id="svg_22" points="27.70344610202901,114.06896281837717 27.18620473972831,114.06896281837717 27.013790952294745,114.06896281837717 26.841377164861175,114.06896281837717 26.66896337742761,114.06896281837717 26.496549589994046,114.06896281837717 26.324135802560473,114.06896281837717 26.15172201512691,114.06896281837717 25.979308227693352,114.06896281837717 25.806894440259782,114.06896281837717 25.63448065282622,114.06896281837717 25.46206686539265,114.06896281837717 25.117239290525525,114.06896281837717 24.944825503091955,114.06896281837717 24.772411715658393,114.06896281837717 24.599997928224823,114.06896281837717 24.42758414079126,114.06896281837717 24.255170353357695,114.06896281837717 24.082756565924132,114.06896281837717 23.91034277849057,114.06896281837717 23.737928991056997,114.06896281837717 23.565515203623434,114.06896281837717 23.39310141618986,114.06896281837717 23.2206876287563,114.06896281837717 23.04827384132274,114.06896281837717 22.87586005388917,114.06896281837717 22.703446266455607,114.06896281837717 22.531032479022038,114.06896281837717 22.358618691588475,114.06896281837717 22.186204904154906,114.06896281837717 22.358618691588475,114.06896281837717 22.531032479022038,114.06896281837717 22.703446266455607,114.06896281837717 22.87586005388917,114.06896281837717 23.04827384132274,114.06896281837717 23.2206876287563,114.06896281837717 23.39310141618986,114.06896281837717 23.565515203623434,114.06896281837717 23.737928991056997,114.06896281837717 23.91034277849057,114.06896281837717 24.082756565924132,114.06896281837717 24.255170353357695,114.06896281837717 24.42758414079126,114.06896281837717 24.599997928224823,114.06896281837717 24.599997928224823,114.24137660581073 24.42758414079126,114.24137660581073 24.255170353357695,114.24137660581073 24.082756565924132,114.24137660581073 23.91034277849057,114.24137660581073 23.737928991056997,114.24137660581073 23.565515203623434,114.24137660581073 23.39310141618986,114.24137660581073 23.2206876287563,114.24137660581073 23.04827384132274,114.24137660581073 22.87586005388917,114.24137660581073 22.703446266455607,114.24137660581073 22.531032479022038,114.24137660581073 22.358618691588475,114.24137660581073 22.186204904154906,114.24137660581073 22.013791116721343,114.24137660581073 " style="color: rgb(254, 152, 15);"/><polyline fill="none" stroke="#fe980f" stroke-dashoffset="" fill-rule="evenodd" marker-start="" marker-mid="" marker-end="" id="svg_23" points="36.15172168627371,113.37930766864291 36.15172168627371,113.55172145607645 36.15172168627371,113.72413524351003 36.15172168627371,113.8965490309436 36.15172168627371,114.06896281837717 36.15172168627371,114.24137660581073 36.15172168627371,114.4137903932443 35.97930789884014,114.4137903932443 35.806894111406585,114.4137903932443 35.634480323973015,114.4137903932443 35.462066536539446,114.4137903932443 " style="color: rgb(254, 152, 15);"/><polyline fill="none" stroke="#fe980f" stroke-dashoffset="" fill-rule="evenodd" marker-start="" marker-mid="" marker-end="" id="svg_24" points="12.18620523300811,111.82758358174081 12.18620523300811,112.3448249440415 12.013791445574547,112.68965251890866 12.013791445574547,112.8620663063422 12.013791445574547,113.03448009377578 12.013791445574547,113.20689388120933 11.841377658140978,113.37930766864291 11.841377658140978,113.55172145607645 11.841377658140978,113.72413524351003 11.841377658140978,113.8965490309436 11.841377658140978,114.06896281837717 11.841377658140978,114.24137660581073 " style="color: rgb(254, 152, 15);"/><polyline fill="none" stroke="#fe980f" stroke-dashoffset="" fill-rule="evenodd" marker-start="" marker-mid="" marker-end="" id="svg_25" points="19.255170517784293,107.34482510846811 20.11723945495212,106.13792859643316 20.11723945495212,105.96551480899957 20.462067029819252,105.62068723413246 20.634480817252822,105.62068723413246 20.806894604686384,105.44827344669888 21.151722179553516,105.27585965926534 21.151722179553516,105.10344587183175 21.49654975442065,105.10344587183175 21.66896354185421,104.93103208439821 21.84137732928778,104.93103208439821 22.013791116721343,104.75861829696463 22.186204904154906,104.75861829696463 22.358618691588475,104.75861829696463 22.531032479022038,104.75861829696463 22.703446266455607,104.75861829696463 22.703446266455607,104.93103208439821 22.358618691588475,105.44827344669888 22.186204904154906,105.62068723413246 22.013791116721343,105.62068723413246 21.84137732928778,105.62068723413246 21.66896354185421,105.62068723413246 21.49654975442065,105.79310102156603 21.32413596698708,105.96551480899957 21.151722179553516,105.96551480899957 20.979308392119947,105.96551480899957 20.806894604686384,105.96551480899957 20.806894604686384,106.13792859643316 20.634480817252822,106.13792859643316 20.634480817252822,106.31034238386673 20.462067029819252,106.31034238386673 20.462067029819252,106.13792859643316 20.462067029819252,105.96551480899957 20.462067029819252,105.79310102156603 20.634480817252822,105.62068723413246 20.806894604686384,105.62068723413246 20.979308392119947,105.44827344669888 21.151722179553516,105.44827344669888 21.49654975442065,105.27585965926534 21.49654975442065,105.10344587183175 21.66896354185421,105.10344587183175 21.84137732928778,105.10344587183175 22.013791116721343,104.93103208439821 22.186204904154906,104.93103208439821 22.358618691588475,104.93103208439821 22.531032479022038,104.93103208439821 22.531032479022038,104.75861829696463 22.703446266455607,104.75861829696463 22.87586005388917,104.75861829696463 22.703446266455607,104.75861829696463 " style="color: rgb(254, 152, 15);"/><polyline fill="none" stroke="#fe980f" stroke-dashoffset="" fill-rule="evenodd" marker-start="" marker-mid="" marker-end="" id="svg_26" points="11.668963870707415,111.99999736917438 11.668963870707415,112.17241115660796 11.668963870707415,112.3448249440415 11.668963870707415,112.51723873147508 11.668963870707415,112.68965251890866 11.668963870707415,112.8620663063422 11.668963870707415,113.03448009377578 11.668963870707415,113.20689388120933 11.668963870707415,113.37930766864291 11.668963870707415,113.55172145607645 11.668963870707415,113.72413524351003 11.668963870707415,113.8965490309436 11.668963870707415,114.06896281837717 11.841377658140978,114.06896281837717 12.013791445574547,114.06896281837717 12.18620523300811,114.06896281837717 12.18620523300811,114.24137660581073 12.35861902044168,114.24137660581073 " style="color: rgb(254, 152, 15);"/><path fill="#fe980f" fill-opacity="1" stroke="#fe980f" stroke-opacity="1" stroke-width="1" stroke-dasharray="none" stroke-linejoin="miter" stroke-linecap="butt" stroke-dashoffset="" fill-rule="evenodd" opacity="1" marker-start="" marker-mid="" marker-end="" d="M27.70344610202901,79.75861911909763L27.358618527161873,103.20689421006254" id="svg_12"/><path fill="#fe980f" fill-opacity="1" stroke="#fe980f" stroke-opacity="1" stroke-width="1" stroke-dasharray="none" stroke-linejoin="miter" stroke-linecap="butt" stroke-dashoffset="" fill-rule="evenodd" opacity="1" marker-start="" marker-mid="" marker-end="" d="M20.979308392119947,84.58620516723747L21.49654975442065,103.55172178492967" id="svg_16"/><path fill="#fe980f" fill-opacity="1" stroke="#fe980f" stroke-opacity="1" stroke-width="1" stroke-dasharray="none" stroke-linejoin="miter" stroke-linecap="butt" stroke-dashoffset="" fill-rule="evenodd" opacity="1" marker-start="" marker-mid="" marker-end="" d="M24.42758414079126,103.3793079974961L29.772411551231787,98.20689437448912" id="svg_20"/><path fill="#fe980f" fill-opacity="1" stroke="#fe980f" stroke-opacity="1" stroke-width="1" stroke-dasharray="none" stroke-linejoin="miter" stroke-linecap="butt" stroke-dashoffset="" fill-rule="evenodd" opacity="1" marker-start="" marker-mid="" marker-end="" d="M26.66896337742761,104.75861829696463L27.531032314595436,108.03448025820236" id="svg_14"/><path fill="#fe980f" fill-opacity="1" stroke="#fe980f" stroke-opacity="1" stroke-width="1" stroke-dasharray="none" stroke-linejoin="miter" stroke-linecap="butt" stroke-dashoffset="" fill-rule="evenodd" opacity="1" marker-start="" marker-mid="" marker-end="" d="M28.737928826630394,106.82758374616742L25.46206686539265,112.17241115660796" id="svg_27"/><path fill="#fe980f" fill-opacity="1" stroke="#fe980f" stroke-opacity="1" stroke-width="1" stroke-dasharray="none" stroke-linejoin="miter" stroke-linecap="butt" stroke-dashoffset="" fill-rule="evenodd" opacity="1" marker-start="" marker-mid="" marker-end="" d="M18.7379291554836,108.72413540793663L22.531032479022038,110.96551464457298" id="svg_29"/><polyline fill="none" stroke="#fe980f" stroke-dashoffset="" fill-rule="evenodd" marker-start="" marker-mid="" marker-end="" id="svg_31" points="22.013791116721343,110.79310085713942 22.013791116721343,110.44827328227228 21.84137732928778,110.27585949483873 21.84137732928778,110.10344570740517 21.66896354185421,110.10344570740517 21.49654975442065,110.10344570740517 21.49654975442065,109.93103191997157 21.49654975442065,109.93103191997157 21.32413596698708,109.93103191997157 21.32413596698708,109.75861813253803 21.32413596698708,109.58620434510448 21.32413596698708,109.41379055767091 21.151722179553516,109.41379055767091 21.151722179553516,109.24137677023732 21.151722179553516,108.89654919537021 21.151722179553516,108.72413540793663 21.151722179553516,108.55172162050306 21.151722179553516,108.3793078330695 21.151722179553516,108.20689404563596 21.151722179553516,108.03448025820236 21.151722179553516,107.86206647076881 21.151722179553516,107.68965268333525 21.151722179553516,107.51723889590167 21.151722179553516,107.34482510846811 21.32413596698708,107.34482510846811 21.32413596698708,107.17241132103456 21.32413596698708,106.99999753360098 21.32413596698708,106.82758374616742 21.32413596698708,106.65516995873386 21.32413596698708,106.48275617130028 21.32413596698708,106.31034238386673 21.32413596698708,106.13792859643316 21.32413596698708,105.96551480899957 21.32413596698708,105.79310102156603 21.49654975442065,105.62068723413246 21.49654975442065,105.44827344669888 21.49654975442065,105.10344587183175 21.66896354185421,105.10344587183175 21.66896354185421,104.93103208439821 21.66896354185421,104.75861829696463 21.66896354185421,104.4137907220975 21.66896354185421,104.24137693466396 21.66896354185421,104.06896314723036 21.66896354185421,103.89654935979681 21.66896354185421,103.72413557236322 " style="color: rgb(254, 152, 15);"/><polyline fill="none" stroke="#fe980f" stroke-dashoffset="" fill-rule="evenodd" marker-start="" marker-mid="" marker-end="" id="svg_18" points="25.63448065282622,104.24137693466396 25.63448065282622,104.58620450953106 25.63448065282622,104.93103208439821 25.63448065282622,105.10344587183175 25.979308227693352,105.10344587183175 25.979308227693352,105.27585965926534 26.15172201512691,105.27585965926534 26.324135802560473,105.27585965926534 26.496549589994046,105.27585965926534 26.66896337742761,105.27585965926534 26.66896337742761,105.44827344669888 26.841377164861175,105.44827344669888 26.841377164861175,105.62068723413246 26.841377164861175,105.79310102156603 26.841377164861175,105.96551480899957 26.841377164861175,106.13792859643317 26.841377164861175,106.31034238386673 26.841377164861175,106.48275617130028 27.013790952294745,106.48275617130028 27.013790952294745,106.65516995873386 27.013790952294745,106.48275617130028 27.013790952294745,106.31034238386673 27.013790952294745,106.13792859643317 27.013790952294745,105.96551480899957 26.841377164861175,105.96551480899957 26.66896337742761,105.96551480899957 26.496549589994046,105.96551480899957 26.324135802560473,105.96551480899957 26.324135802560473,105.79310102156603 26.324135802560473,105.62068723413246 26.324135802560473,105.44827344669888 " style="color: rgb(254, 152, 15);"/><polyline fill="none" stroke="#fe980f" stroke-dashoffset="" fill-rule="evenodd" marker-start="" marker-mid="" marker-end="" id="svg_28" points="24.255170353357695,104.58620450953106 24.082756565924132,104.58620450953106 23.91034277849057,104.58620450953106 23.737928991056997,104.58620450953106 23.565515203623434,104.75861829696463 23.39310141618986,104.75861829696463 23.39310141618986,104.93103208439821 23.2206876287563,104.93103208439821 23.04827384132274,104.93103208439821 22.87586005388917,104.93103208439821 22.87586005388917,105.10344587183175 22.703446266455607,105.10344587183175 22.531032479022038,105.10344587183175 22.531032479022038,105.27585965926534 22.358618691588475,105.27585965926534 22.358618691588475,105.44827344669888 22.186204904154906,105.44827344669888 22.186204904154906,105.62068723413246 22.013791116721343,105.62068723413246 22.013791116721343,105.79310102156603 21.84137732928778,105.79310102156603 21.84137732928778,105.96551480899957 21.66896354185421,105.96551480899957 21.66896354185421,106.13792859643317 21.66896354185421,106.31034238386673 21.49654975442065,106.31034238386673 21.49654975442065,106.48275617130028 21.49654975442065,106.65516995873386 21.49654975442065,106.82758374616742 21.32413596698708,106.82758374616742 21.32413596698708,106.99999753360098 21.151722179553516,107.17241132103456 " style="color: rgb(254, 152, 15);"/><polyline fill="none" stroke="#fe980f" stroke-dashoffset="" fill-rule="evenodd" marker-start="" marker-mid="" marker-end="" id="svg_30" points="27.70344610202901,114.58620418067787 27.531032314595436,114.58620418067787 27.358618527161873,114.58620418067787 27.18620473972831,114.58620418067787 27.013790952294745,114.58620418067787 26.841377164861175,114.58620418067787 26.66896337742761,114.58620418067787 26.496549589994046,114.58620418067787 26.324135802560473,114.58620418067787 26.15172201512691,114.58620418067787 25.979308227693352,114.58620418067787 25.806894440259782,114.58620418067787 25.63448065282622,114.58620418067787 25.46206686539265,114.58620418067787 25.289653077959088,114.58620418067787 25.117239290525525,114.58620418067787 24.944825503091955,114.58620418067787 24.772411715658393,114.58620418067787 24.599997928224823,114.58620418067787 24.42758414079126,114.58620418067787 24.255170353357695,114.58620418067787 24.082756565924132,114.58620418067787 23.91034277849057,114.58620418067787 23.737928991056997,114.58620418067787 23.565515203623434,114.58620418067787 23.39310141618986,114.58620418067787 23.2206876287563,114.58620418067787 23.04827384132274,114.58620418067787 22.87586005388917,114.58620418067787 22.703446266455607,114.58620418067787 22.531032479022038,114.58620418067787 22.358618691588475,114.58620418067787 22.186204904154906,114.58620418067787 22.013791116721343,114.58620418067787 21.84137732928778,114.58620418067787 21.66896354185421,114.58620418067787 21.49654975442065,114.58620418067787 21.32413596698708,114.58620418067787 21.151722179553516,114.58620418067787 20.979308392119947,114.58620418067787 20.806894604686384,114.58620418067787 20.634480817252822,114.58620418067787 20.462067029819252,114.58620418067787 20.28965324238569,114.58620418067787 20.11723945495212,114.58620418067787 19.944825667518558,114.58620418067787 " style="color: rgb(254, 152, 15);"/><polyline fill="none" stroke="#fe980f" stroke-dashoffset="" fill-rule="evenodd" marker-start="" marker-mid="" marker-end="" id="svg_32" points="25.806894440259782,110.62068706970585 26.15172201512691,110.27585949483873 26.324135802560473,110.27585949483873 26.496549589994046,110.27585949483873 26.496549589994046,110.10344570740516 26.496549589994046,109.93103191997157 26.66896337742761,109.93103191997157 26.66896337742761,109.75861813253803 26.841377164861175,109.75861813253803 26.841377164861175,109.58620434510445 26.841377164861175,109.41379055767091 27.013790952294745,109.41379055767091 27.013790952294745,109.06896298280378 27.18620473972831,109.06896298280378 27.18620473972831,108.89654919537021 27.18620473972831,108.72413540793663 27.358618527161873,108.55172162050309 27.358618527161873,108.3793078330695 27.358618527161873,108.20689404563593 27.358618527161873,108.03448025820236 27.358618527161873,107.86206647076881 27.358618527161873,107.68965268333524 27.358618527161873,107.51723889590167 27.358618527161873,107.34482510846811 27.358618527161873,107.17241132103455 27.358618527161873,106.99999753360098 27.358618527161873,106.8275837461674 27.358618527161873,106.65516995873385 27.358618527161873,106.48275617130028 " style="color: rgb(254, 152, 15);"/><polyline fill="none" stroke="#fe980f" stroke-dashoffset="" fill-rule="evenodd" marker-start="" marker-mid="" marker-end="" id="svg_33" points="26.66896337742761,105.44827344669888 26.66896337742761,105.62068723413246 26.66896337742761,105.79310102156603 26.66896337742761,105.96551480899957 26.66896337742761,106.13792859643316 26.66896337742761,106.3103423838667 26.841377164861175,106.3103423838667 27.013790952294745,106.3103423838667 27.013790952294745,106.48275617130028 27.013790952294745,106.65516995873385 27.013790952294745,106.8275837461674 27.18620473972831,106.8275837461674 27.18620473972831,106.99999753360098 27.18620473972831,107.17241132103455 27.358618527161873,107.17241132103455 27.358618527161873,107.34482510846811 27.358618527161873,107.51723889590167 27.358618527161873,107.68965268333524 27.358618527161873,107.86206647076881 27.358618527161873,108.03448025820236 27.358618527161873,108.20689404563593 27.358618527161873,108.3793078330695 27.358618527161873,108.55172162050309 27.358618527161873,108.72413540793663 " style="color: rgb(254, 152, 15);"/><polyline fill="none" stroke="#fe980f" stroke-dashoffset="" fill-rule="evenodd" marker-start="" marker-mid="" marker-end="" id="svg_34" points="25.806894440259782,103.72413557236324 25.806894440259782,103.55172178492967 25.806894440259782,103.3793079974961 25.979308227693352,103.3793079974961 25.979308227693352,103.20689421006254 25.979308227693352,103.03448042262897 26.15172201512691,103.03448042262897 26.324135802560473,102.8620666351954 26.324135802560473,102.68965284776185 26.496549589994046,102.68965284776185 26.66896337742761,102.68965284776185 26.66896337742761,102.51723906032828 26.66896337742761,102.3448252728947 26.841377164861175,102.3448252728947 26.841377164861175,102.17241148546113 26.841377164861175,101.99999769802758 26.841377164861175,101.827583910594 26.841377164861175,101.65517012316046 26.841377164861175,101.48275633572688 26.841377164861175,101.31034254829333 26.841377164861175,101.13792876085975 26.841377164861175,100.96551497342621 27.013790952294745,100.96551497342621 27.013790952294745,100.79310118599263 27.18620473972831,100.79310118599263 27.18620473972831,100.62068739855906 27.358618527161873,100.62068739855906 27.358618527161873,100.44827361112549 27.358618527161873,100.27585982369193 27.358618527161873,100.10344603625836 27.358618527161873,99.93103224882479 27.358618527161873,99.75861846139124 27.531032314595436,99.75861846139124 27.531032314595436,99.58620467395767 27.531032314595436,99.4137908865241 " style="color: rgb(254, 152, 15);"/><polyline fill="none" stroke="#fe980f" stroke-dashoffset="" fill-rule="evenodd" marker-start="" marker-mid="" marker-end="" id="svg_35" points="24.599997928224823,102.34482527289472 24.772411715658393,102.34482527289472 24.944825503091955,102.34482527289472 25.289653077959088,102.17241148546113 25.46206686539265,101.99999769802758 25.63448065282622,101.99999769802758 25.806894440259782,101.99999769802758 25.979308227693352,101.99999769802758 25.979308227693352,101.82758391059403 26.15172201512691,101.82758391059403 26.15172201512691,101.65517012316046 26.324135802560473,101.65517012316046 26.324135802560473,101.48275633572688 26.496549589994046,101.48275633572688 26.496549589994046,101.31034254829333 26.66896337742761,101.13792876085975 26.841377164861175,100.96551497342621 " style="color: rgb(254, 152, 15);"/><polyline fill="none" stroke="#fe980f" stroke-dashoffset="" fill-rule="evenodd" marker-start="" marker-mid="" marker-end="" id="svg_36" points="26.841377164861175,101.13792876085975 26.841377164861175,100.79310118599263 27.013790952294745,100.79310118599263 27.013790952294745,100.62068739855906 27.013790952294745,100.4482736111255 27.18620473972831,100.4482736111255 " style="color: rgb(254, 152, 15);"/><polyline fill="none" stroke="#fe980f" stroke-dashoffset="" fill-rule="evenodd" marker-start="" marker-mid="" marker-end="" id="svg_37" points="21.66896354185421,101.99999769802758 21.66896354185421,101.82758391059403 21.66896354185421,101.65517012316046 21.66896354185421,101.48275633572688 21.66896354185421,101.31034254829333 21.66896354185421,101.13792876085975 21.66896354185421,100.96551497342621 21.66896354185421,100.79310118599263 21.84137732928778,100.79310118599263 21.84137732928778,100.62068739855906 21.84137732928778,100.79310118599263 " style="color: rgb(254, 152, 15);"/><polyline fill="none" stroke="#fe980f" stroke-dashoffset="" fill-rule="evenodd" marker-start="" marker-mid="" marker-end="" id="svg_38" points="27.70344610202901,106.31034238386673 27.531032314595436,106.31034238386673 27.531032314595436,106.48275617130028 27.531032314595436,106.65516995873386 27.531032314595436,106.82758374616742 27.358618527161873,106.82758374616742 27.358618527161873,106.99999753360098 27.358618527161873,107.17241132103456 27.358618527161873,107.34482510846811 27.358618527161873,107.51723889590167 " style="color: rgb(254, 152, 15);"/><polyline fill="none" stroke="#fe980f" stroke-dashoffset="" fill-rule="evenodd" marker-start="" marker-mid="" marker-end="" id="svg_39" points="24.082756565924132,104.93103208439821 23.39310141618986,104.93103208439821 23.2206876287563,104.93103208439821 23.04827384132274,105.10344587183175 22.87586005388917,105.10344587183175 22.87586005388917,105.27585965926534 " style="color: rgb(254, 152, 15);"/><polyline fill="none" stroke="#fe980f" stroke-dashoffset="" fill-rule="evenodd" marker-start="" marker-mid="" marker-end="" id="svg_40" points="23.565515203623434,104.93103208439821 23.39310141618986,104.93103208439821 23.04827384132274,104.93103208439821 23.04827384132274,105.10344587183175 22.87586005388917,105.27585965926534 22.703446266455607,105.27585965926534 22.531032479022038,105.27585965926534 22.358618691588475,105.27585965926534 22.531032479022038,105.27585965926534 22.703446266455607,105.27585965926534 22.87586005388917,105.27585965926534 23.04827384132274,105.27585965926534 23.2206876287563,105.27585965926534 23.39310141618986,105.27585965926534 23.565515203623434,105.27585965926534 23.737928991056997,105.27585965926534 23.737928991056997,105.10344587183175 " style="color: rgb(254, 152, 15);"/><polyline fill="none" stroke="#fe980f" stroke-dashoffset="" fill-rule="evenodd" marker-start="" marker-mid="" marker-end="" id="svg_41" points="27.18620473972831,87.17241197874094 27.18620473972831,87.86206712847522 27.18620473972831,88.03448091590877 27.18620473972831,88.20689470334234 27.18620473972831,88.37930849077591 27.18620473972831,88.55172227820947 27.18620473972831,88.72413606564304 27.18620473972831,88.8965498530766 27.18620473972831,89.06896364051016 27.18620473972831,89.06896364051016 27.18620473972831,89.24137742794373 27.18620473972831,89.4137912153773 27.18620473972831,89.58620500281086 27.18620473972831,89.75861879024443 27.18620473972831,89.93103257767801 27.18620473972831,90.10344636511155 27.18620473972831,90.27586015254514 27.18620473972831,90.4482739399787 27.18620473972831,90.62068772741225 27.18620473972831,90.79310151484583 27.18620473972831,90.96551530227937 27.18620473972831,91.13792908971296 27.18620473972831,91.31034287714652 27.18620473972831,91.48275666458008 27.18620473972831,91.65517045201365 27.18620473972831,91.82758423944722 27.18620473972831,91.99999802688077 27.18620473972831,92.17241181431436 27.18620473972831,92.34482560174791 27.18620473972831,92.51723938918147 27.18620473972831,92.68965317661505 27.18620473972831,92.86206696404861 27.18620473972831,93.03448075148218 27.18620473972831,93.20689453891576 27.18620473972831,93.3793083263493 27.18620473972831,93.55172211378289 27.358618527161873,93.55172211378289 27.358618527161873,93.72413590121646 27.358618527161873,93.89654968865 27.358618527161873,94.06896347608358 27.358618527161873,94.24137726351712 27.358618527161873,94.4137910509507 27.358618527161873,94.58620483838425 27.358618527161873,94.75861862581783 27.358618527161873,94.93103241325137 27.358618527161873,95.10344620068497 27.358618527161873,95.27585998811853 27.358618527161873,95.62068756298567 27.358618527161873,95.79310135041922 27.531032314595436,95.79310135041922 27.531032314595436,95.96551513785279 27.531032314595436,96.13792892528636 27.531032314595436,96.31034271271992 27.531032314595436,96.48275650015349 27.531032314595436,96.65517028758705 27.70344610202901,96.82758407502061 27.70344610202901,96.99999786245418 27.70344610202901,97.17241164988775 27.70344610202901,97.3448254373213 27.70344610202901,97.51723922475487 27.70344610202901,97.68965301218846 27.70344610202901,97.862066799622 27.70344610202901,98.03448058705558 27.70344610202901,98.20689437448912 27.70344610202901,98.37930816192271 27.70344610202901,98.55172194935628 27.70344610202901,98.89654952422337 " style="color: rgb(254, 152, 15);"/><path fill="none" fill-opacity="1" stroke="#fe980f" stroke-opacity="1" stroke-width="1" stroke-dasharray="none" stroke-linejoin="miter" stroke-linecap="butt" stroke-dashoffset="" fill-rule="evenodd" opacity="1" marker-start="" marker-mid="" marker-end="" d="M27.18620473972831,81.31034320599971L27.18620473972831,101.3103425482933" id="svg_42"/></g></svg>