<svg xmlns="http://www.w3.org/2000/svg" viewBox="0 0 101 120"><style><![CDATA[.B{stroke:#fe980f}.C{fill:#434a54}.D{fill-rule:nonzero}]]></style><g fill-rule="evenodd"><path d="M93.444 53.814c1.786-2.2 2.43-3.223 2.43-3.813s-.645-1.614-2.43-3.814l-.225-.277c-2.13-2.632-3.122-4.174-3.687-6.267-.424-1.572-.486-3.202-.3-5.156l.343-2.553c.425-2.778.47-3.965.22-4.394-.256-.437-1.317-1.01-3.646-1.908l-.297-.115c-3.584-1.38-5.158-2.173-6.795-3.794s-2.438-3.18-3.833-6.727l-.116-.295c-.908-2.305-1.486-3.355-1.928-3.608-.398-.228-1.582-.206-3.904.138l-.376.056-2.727.362c-1.98.194-3.628.134-5.218-.287-2.197-.58-3.654-1.52-6.612-3.872-2.223-1.768-3.256-2.407-3.853-2.407-.478 0-1.424.516-2.918 1.67l-.765.602c-3.127 2.487-4.584 3.426-6.78 4.007-2.264.598-4.047.5-7.874-.065-2.72-.41-3.92-.453-4.352-.205-.466.267-1.03 1.325-2.044 3.903-1.393 3.547-2.195 5.105-3.832 6.726-1.507 1.492-3.195 2.392-6.082 3.518l-1.012.39c-2.33.9-3.39 1.472-3.644 1.908-.23.395-.21 1.568.14 3.868l.056.372.366 2.697c.196 1.96.135 3.592-.3 5.166-.587 2.175-1.536 3.617-3.912 6.544l-.74.922c-1.17 1.48-1.692 2.42-1.692 2.893s.52 1.4 1.684 2.885l.61.76c2.512 3.094 3.46 4.537 4.048 6.712.425 1.572.486 3.203.3 5.16l-.343 2.55c-.425 2.777-.47 3.964-.22 4.393.256.437 1.317 1 3.646 1.91l.297.114c3.584 1.38 5.158 2.173 6.796 3.794s2.438 3.18 3.832 6.727l.116.295c.908 2.306 1.486 3.355 1.928 3.608.398.228 1.583.206 3.906-.138l.376-.056 2.734-.363 1.973-.104c1.15 0 2.215.12 3.237.392 2.197.58 3.653 1.52 6.61 3.872 2.223 1.768 3.256 2.407 3.853 2.407s1.63-.64 3.853-2.407l.28-.222c2.658-2.1 4.215-3.1 6.33-3.65 2.264-.6 4.045-.5 7.874.065 2.72.408 3.92.452 4.352.204.466-.267 1.03-1.325 2.044-3.902 1.393-3.547 2.195-5.106 3.833-6.727s3.2-2.414 6.795-3.794l.298-.115c2.33-.9 3.4-1.47 3.644-1.908.23-.394.2-1.567-.138-3.867l-.057-.372c-.6-3.86-.68-5.623-.076-7.864.587-2.174 1.536-3.616 3.912-6.544zm.073 7.6c-.407 1.507-.336 2.898.16 6.128l.068.45c.507 3.353.537 4.963-.37 6.515-.937 1.603-2.364 2.373-5.715 3.668l-.303.116c-3.045 1.172-4.284 1.797-5.374 2.876s-1.72 2.306-2.905 5.32c-1.443 3.674-2.15 4.998-3.822 5.956-1.642.94-3.124.885-7.036.298-3.263-.5-4.668-.56-6.2-.157-1.387.367-2.6 1.125-4.816 2.9l-.277.22C53.803 98.186 52.486 99 50.5 99s-3.303-.815-6.436-3.307c-2.504-1.99-3.648-2.728-5.094-3.1-.65-.173-1.362-.254-2.17-.254-.48 0-.995.03-1.567.085l-2.363.313-.543.08c-3.388.502-5.014.532-6.582-.366-1.62-.927-2.397-2.34-3.705-5.657l-.118-.3c-1.184-3.014-1.814-4.24-2.904-5.32s-2.33-1.703-5.375-2.875l-.3-.116c-3.352-1.295-4.78-2.065-5.717-3.668-.95-1.625-.894-3.092-.3-6.965l.33-2.425c.15-1.508.106-2.675-.17-3.703-.386-1.43-1.13-2.563-3.143-5.04l-.782-.974C1.827 53.202 1 51.717 1 50s.828-3.204 2.564-5.405l.64-.797c2.15-2.648 2.894-3.78 3.28-5.21.278-1.03.32-2.198.17-3.71l-.315-2.334-.082-.535c-.507-3.354-.537-4.963.37-6.516.937-1.602 2.364-2.373 5.716-3.667l.302-.116.696-.27c2.393-.933 3.683-1.62 4.678-2.606 1.1-1.08 1.72-2.306 2.905-5.32 1.444-3.674 2.15-5 3.823-5.956 1.64-.94 3.124-.886 7.035-.298 3.26.49 4.668.56 6.2.157 1.446-.383 2.6-1.12 5.093-3.11l.98-.77C47.264 1.82 48.765 1 50.5 1c1.986 0 3.304.815 6.437 3.307 2.504 1.99 3.647 2.728 5.093 3.1 1.04.275 2.22.318 3.746.168l2.358-.312.542-.08c3.387-.502 5.012-.532 6.58.366 1.62.928 2.398 2.34 3.705 5.658l.118.3c1.184 3.014 1.815 4.24 2.905 5.32s2.33 1.703 5.374 2.876l.3.116c3.352 1.294 4.78 2.064 5.717 3.668.95 1.624.894 3.09.3 6.965l-.33 2.428c-.15 1.506-.106 2.673.17 3.7.37 1.372 1.136 2.564 2.92 4.767l.222.273c2.517 3.1 3.34 4.406 3.34 6.37s-.823 3.27-3.34 6.372c-2.012 2.478-2.756 3.6-3.143 5.04z" stroke="#434a54" class="C D"/><ellipse cx="51.5" cy="51" rx="31.5" ry="31" fill="#f05562"/><g class="D"><path d="M67.05 33.12a2.751 2.751 0 0 1 3.823-.602 2.7 2.7 0 0 1 .605 3.792L47.62 68.88a2.751 2.751 0 0 1-3.916.532L31.036 59.44a2.7 2.7 0 0 1-.443-3.813 2.752 2.752 0 0 1 3.845-.44L44.87 63.4l22.18-30.28z" fill="#fff"/><path d="M51.5 18c1.142 0 2.068.912 2.068 2.037s-.926 2.037-2.068 2.037c-16.217 0-29.364 12.95-29.364 28.926S35.283 79.926 51.5 79.926 80.864 66.976 80.864 51c0-1.125.926-2.037 2.068-2.037S85 49.875 85 51c0 18.225-14.998 33-33.5 33S18 69.225 18 51s14.998-33 33.5-33z" class="C"/><path d="M75.46 97.206c0-1.218 1.016-2.206 2.27-2.206s2.27.988 2.27 2.206v20.587c0 1.42-1.36 2.47-2.784 2.15L51.7 114.175l-25.922 5.768c-1.422.317-2.777-.733-2.777-2.15v-13.725c0-1.218 1.016-2.206 2.27-2.206s2.27.988 2.27 2.206v10.957l23.656-5.264a2.334 2.334 0 0 1 1.021.002l23.243 5.253v-17.8zM25.5 95c-.657 0-1.302.267-1.767.733a2.52 2.52 0 0 0-.733 1.77c0 .654.267 1.3.733 1.767s1.1.73 1.767.73 1.302-.265 1.767-.73A2.52 2.52 0 0 0 28 97.503 2.52 2.52 0 0 0 25.5 95z" fill="#55c6d9"/><path d="M59.5 18c-.657 0-1.303.267-1.767.733a2.52 2.52 0 0 0-.733 1.77c0 .654.267 1.3.733 1.767s1.1.73 1.767.73 1.303-.265 1.767-.73.733-1.1.733-1.767A2.52 2.52 0 0 0 59.5 18z" class="C"/></g><g fill="#fe980f" class="B"><path d="M51.2 22.172s-5.345.172-6.897.862-3.276.7-5.7 2.07m.173.344s-9.3 4.3-14.655 15.345-.172 19.655-.172 19.655m-.001.172s3.448 9.483 12.93 15 21.552 3.793 24.138 1.897"/><path d="M61.017 77.517S69.465 76.3 76.2 65.793s4.483-15.7 4.655-15.862M28 36h26v13H28z"/><path d="M28.948 49.586l15.517 13.276 26.552-35.345L39.12 25.62 24.3 45.7c.155.103 4.638 3.897 4.638 3.897zM76.017 32L44.983 72.7c0 .173 15.862 3.966 15.862 3.966l20.7-28.448L76.018 32z"/><path d="M40.155 25.448l34.483 7.07L54.483 22.07c.155.103-14.328 3.38-14.328 3.38zm-7.758 26.035l-6.724 10.7-3.276-7.414 5.7-9.655 4.3 6.38z"/><path d="M27.914 56.483l16.724 14.483-9.3.862-10.7-12.414c-.173 0 3.276-2.93 3.276-2.93zm9.656-2.93l-10 1.38-.7-5.172 11.052-.62c.155.103-.362 4.414-.362 4.414z"/><path d="M29.12 50.62c0 .172.7 8.448.534 8.345.155.103-4.155-1.276-4.3-1.38.155.103-.2-7.138-.2-7.138l3.966.172zm24.656 18.794l-13.793 1.552 12.26 2.138c.155.103 1.535-3.7 1.535-3.7zM78.26 47.517l2.07 7.586-16.552 21.034-10 1.897L78.26 47.517zM67.397 28.552l7.76 7.586 1.897-2.07c0-.172-12.414-10.7-12.414-10.7s-11.034 0-11.2-.103c.155.103 13.948 5.276 13.948 5.276z"/><path d="M72.57 32.345l-.345 7.76 9.655 8.276m.344-.001l-2.586-9.138 2.586 9.138z"/><path d="M72.57 35.276c0 .345-17.07 23.448-17.07 23.448l19.655-12.586c0-.172-2.586-11.207-2.586-10.862z"/></g></g><g fill="none" class="B"><path d="M46.707 25.103l1.896-1.206v-.173h.345v-.172h-2.07l-.172.172h-.345l-.172.173h-.173l-.172.172h-.173.7l.172-.172h.7l.173-.173h.344v-.172l.173-.173h.172l.173-.172h.172v-.173h.172l.173-.172h-.7l-.172.172h-.345l-.517.173-.173.172h-.172l-.345.173-.172.172h-.345v.173H45.5l-.172.172h-.345v.172H44.8l-.172.173h-.517l-.173.172h-.517l-.517.173h-.345v.172h-1.724v.172h-.173l-.172.173h-.172.172l.345-.173.345-.172h1.034l.173-.172h.517v-.173h.172l.173-.172v-.173h.172l.172-.172h.173l.172-.172v-.173l.345-.172v-.173h.173v-.172.345h-.173l-.345.172v.173h-.517v.172h-.345l-.172.172h-.173v.173h-.172l-.172.172h-.345l-.173.173h-.172l-.345.172h-.517v.172H39.8v.173h-.172v.172h-.172v.173h-.345l-.173.172h-.345l-.172.173v.172h-.172v-.862h.344m10.7-2.76h1.552v-.172h.172v-.173h.862V22h1.552l.172.172H54.8v.173h.7v.172h.345l.172.173v.172h.173v.172h.344V22.7h-.172v-.173H56.2v-.172h-.173V22h-.172v-.345H55.5v-.172h-.7"/><path d="M53.43 22.7v-.518h.172V22h.173v-.172h.345v-.173h.345V21.3h.172v-.172h.172m3.277 2.596h-.862l-.172-.172h-.173v-.7h-.345V22.7h-.172v-.173H56.2v-.345h-.173V22h-.172v-.345l.172-.172V21.3M28.603 55.448h.7l.173-.172h.517v-.173l.172-.172h.345v-.172h.172l.173-.518.172-.344v-.173l.173-.345h.172M79.8 50.276V49.24l.173-.172v-.172h.172v-.173h.173l.344-.172.173-.173h1.034v.173h-.345v.172H81.2v.345h-.173v-.7h.7v-.172h.517V47l-.172-.172V46.3H81.9v-.517h-.172v-1.38h-.173v-.7h-.172v-.862H81.2v-.14h-.173v-.862m.173 1.196v-1.206h-.173v-.173h-.172V41.3h-.173v-.344H80.5v-.518h-.172v-.345l-.173-.172h-.172v-.862H79.8v-.172h-.172v-.518l-.172-.172v-.173l-.173-.172V37.7h-.172l-.173-.173v-.172h-.172V37h-.173v-.172h-.172v-.173l-.172-.172V36.3"/><path d="M80.328 41.828v-.173l-.173-.345-.172-.172v-.345l-.173-.172v-.345h-.172v-.345h-.172v-.172h-.173v-.345l-.172-.173v-.172l-.173-.172-.172-.173h-.173v-.345l-.172-.172v-.173.7h.172l.345.345.173.172v.173h.172l.173.172h.344v.173l.173.172h.172v.172h.345m-1.207-1.906v-.345h-.172V37.7h-.173v-.173h-.172v-.345h-.173v-.517h-.172V36.3h-.172v-.172h-.173l-.172-.172v-.345h-.173v-.173l-.172-.172v-.173h-.172v-.172l-.173-.172v-.345h-.172l-.173-.173m-1.38-1.714v-.345h-.172V32h-.173v-.172H74.8v-.173h-.344v-.172h-.173l-.172-.173v-.172h-.173v-.517h-.172v-.173.518h.172v.344h.7v-.517h-.172v-.172h-.7v-.173h-.173v-.517h-.517v-.172l-.172-.173v-.172h-.173v-.345l-.172-.172v-.173h-.172v-.172h-.345v-.173h-.345v-.172h-.173v-.173h-.172v-.172H71.2"/><path d="M76.2 33.034v-.172l-.173-.172h-.345l-.172-.173h-.345v-.172h-.517l-.172-.173h-.173L74.12 32h-.173l-.172-.172h-.173v-.173l-.172-.172V31.3l-.172-.172h-.173v-.517l-.172-.173v-.172h-.173v-.173l-.172-.172h-.172l-.173-.345h-.172l-.345-.345-.345-.344-.345-.173h-.172v-.172h-.173l-.172-.173-.172-.172v-.173l-.173-.172v-.345l-.172-.172v-.173H69.8V27h-.172v-.172h-.345v-.173h-.172v-.172h-.345V26.3"/><path d="M71.017 27.7l-.172-.173H70.5v-.172h-.345l-.172-.173H69.8l-.344-.344h-.173v-.345l-.172-.173v-.344h-.345v-.173h-.173l-.172-.172h-.517l-.345-.345h-.172"/><path d="M70.672 27.172h-.7L69.8 27h-.172l-.172-.172v-.173h-.173l-.345-.345h-.172v-.344h-.345v-.173h-.172v-.172h-.173v-.173h-.345v-.172h-.172v-.173h-.345v-.172h-.345v-.172h-.345v-.173h-.172l-.172-.172h-.173v-.173m-5.335-.001v-.517l.173-.172v-.173h.345l.172-.172h.172l.173-.173v-.517h.7v.173h.517v.172l.172.172v.173h.7m-5.193.69l-.517-.173h-.172l-.173-.172v-.173l-.517-.172v-.173h-.172V22.7l-.345-.345h-.173v-.173h-.172V22H56.2v-.862"/><path d="M57.052 22.7l-.173-.518-.172-.344v-.173h-.173v-.172h-.172V21.3H56.2v-.172h-1.552v-.172h-.7v-.173h.173v-.172h.172v.172m24.483 17.424l-.345-.517-.172-.173v-.172l-.173-.173-.172-.344-.173-.173h-.172v-.172h-.172v-.517h-.173v-2.242h-.345v-.172h-.345v-.173m-2.758-2.586V29.76l-.173-.173v-.345h-.172v-.172.517m-1.897-.7l-.172-.345v-.173H71.2v-.172h-.173v-.345h-.172V27.7l-.173-.173v-.345H70.5V27h-.172v-.172h-.345v-.173h-.345v-.172h-.172V26.3h-.173"/></g></svg>