<svg xmlns="http://www.w3.org/2000/svg" width="101" height="120"><rect id="backgroundrect" width="100%" height="100%" x="0" y="0" fill="none" stroke="none"/>
    
<g class="currentLayer" style=""><title>Layer 1</title><g fill="none" fill-rule="evenodd" id="svg_1" class="">
        <path fill="#434A54" fill-rule="nonzero" stroke="#434A54" d="M93.444,53.814 c1.786,-2.2 2.431,-3.223 2.431,-3.813 c0,-0.5910000000000001 -0.6450000000000001,-1.614 -2.431,-3.814 l-0.22500000000000003,-0.277 c-2.1310000000000002,-2.632 -3.122,-4.174 -3.6870000000000003,-6.267 c-0.42400000000000004,-1.572 -0.48600000000000004,-3.202 -0.29000000000000004,-5.156 c0.07300000000000001,-0.7340000000000001 0.15800000000000003,-1.35 0.3430000000000001,-2.553 c0.42500000000000004,-2.778 0.47000000000000003,-3.965 0.22000000000000003,-4.394 c-0.256,-0.43700000000000006 -1.3170000000000002,-1.009 -3.646,-1.908 l-0.29700000000000004,-0.11500000000000002 c-3.584,-1.3800000000000001 -5.158,-2.173 -6.795,-3.794 c-1.6380000000000001,-1.621 -2.438,-3.179 -3.833,-6.727 l-0.11600000000000002,-0.29500000000000004 c-0.908,-2.305 -1.486,-3.355 -1.928,-3.608 c-0.3980000000000001,-0.22800000000000004 -1.582,-0.20600000000000002 -3.904,0.138 l-0.37600000000000006,0.05600000000000001 c-1.369,0.20500000000000002 -1.988,0.29000000000000004 -2.7270000000000003,0.36200000000000004 c-1.979,0.19400000000000003 -3.628,0.134 -5.218,-0.28700000000000003 c-2.197,-0.5800000000000001 -3.654,-1.52 -6.612,-3.872 c-2.223,-1.7680000000000002 -3.2560000000000002,-2.407 -3.853,-2.407 c-0.47800000000000004,0 -1.424,0.516 -2.918,1.6700000000000002 c-0.22000000000000003,0.17 -0.44000000000000006,0.3430000000000001 -0.7650000000000001,0.6020000000000001 c-3.127,2.487 -4.584,3.426 -6.78,4.007 c-2.2640000000000002,0.5980000000000001 -4.047,0.51 -7.8740000000000006,-0.06500000000000002 c-2.72,-0.40900000000000003 -3.919,-0.453 -4.352,-0.20500000000000002 c-0.466,0.267 -1.031,1.3250000000000002 -2.044,3.903 c-1.393,3.547 -2.195,5.105 -3.832,6.726 c-1.5070000000000001,1.492 -3.195,2.392 -6.082,3.518 c-0.2,0.07800000000000001 -0.35800000000000004,0.14 -0.7140000000000001,0.276 l-0.29800000000000004,0.11500000000000002 c-2.329,0.9 -3.3890000000000002,1.472 -3.644,1.908 c-0.23,0.3950000000000001 -0.20900000000000002,1.568 0.139,3.8680000000000003 l0.05600000000000001,0.37200000000000005 c0.20700000000000002,1.353 0.29300000000000004,1.9660000000000002 0.36600000000000005,2.697 c0.19600000000000004,1.96 0.135,3.592 -0.29000000000000004,5.166 c-0.5870000000000001,2.175 -1.536,3.617 -3.912,6.5440000000000005 c-0.3960000000000001,0.49000000000000005 -0.5700000000000001,0.7060000000000001 -0.7400000000000001,0.922 C5.646,48.588 5.124,49.526 5.124,50 c0,0.47300000000000003 0.52,1.4100000000000001 1.6840000000000002,2.8850000000000002 c0.17300000000000001,0.21800000000000003 0.3480000000000001,0.43700000000000006 0.6110000000000001,0.7610000000000001 c2.512,3.094 3.46,4.537 4.048,6.712 c0.42500000000000004,1.572 0.48600000000000004,3.203 0.29000000000000004,5.159 c-0.07300000000000001,0.7330000000000001 -0.15900000000000003,1.348 -0.3430000000000001,2.55 c-0.42500000000000004,2.777 -0.47000000000000003,3.964 -0.22000000000000003,4.393 c0.256,0.43700000000000006 1.3170000000000002,1.01 3.646,1.909 l0.29700000000000004,0.11400000000000002 c3.584,1.3800000000000001 5.158,2.173 6.796,3.794 c1.637,1.621 2.438,3.179 3.832,6.727 l0.11600000000000002,0.29500000000000004 c0.908,2.306 1.486,3.355 1.928,3.608 c0.3980000000000001,0.22800000000000004 1.5830000000000002,0.20600000000000002 3.906,-0.138 l0.37600000000000006,-0.05600000000000001 c1.372,-0.20600000000000002 1.9929999999999999,-0.29000000000000004 2.734,-0.36300000000000004 c0.6990000000000002,-0.06800000000000002 1.346,-0.10400000000000001 1.9729999999999999,-0.10400000000000001 c1.15,0 2.215,0.12100000000000001 3.237,0.39200000000000007 c2.197,0.5800000000000001 3.653,1.52 6.611,3.872 c2.223,1.7680000000000002 3.2560000000000002,2.407 3.853,2.407 c0.5970000000000001,0 1.6300000000000001,-0.6390000000000001 3.853,-2.407 l0.28,-0.22200000000000003 c2.6580000000000004,-2.11 4.215,-3.09 6.33,-3.6500000000000004 c2.2640000000000002,-0.5990000000000001 4.045,-0.51 7.8740000000000006,0.06500000000000002 c2.72,0.40800000000000003 3.92,0.452 4.352,0.20400000000000001 c0.466,-0.267 1.031,-1.3250000000000002 2.044,-3.902 c1.393,-3.547 2.195,-5.106 3.833,-6.727 c1.637,-1.62 3.21,-2.414 6.795,-3.794 l0.29800000000000004,-0.11500000000000002 c2.33,-0.8990000000000001 3.39,-1.471 3.644,-1.908 c0.231,-0.3940000000000001 0.21000000000000002,-1.5670000000000002 -0.138,-3.867 l-0.05700000000000001,-0.37200000000000005 c-0.5900000000000001,-3.8600000000000003 -0.6810000000000002,-5.623 -0.07600000000000001,-7.864 c0.5870000000000001,-2.174 1.536,-3.616 3.912,-6.5440000000000005 zm0.07300000000000001,7.599 c-0.40700000000000003,1.5070000000000001 -0.3360000000000001,2.898 0.15900000000000003,6.128 c0.04000000000000001,0.258 0.04000000000000001,0.258 0.06800000000000002,0.45 c0.507,3.353 0.537,4.963 -0.37000000000000005,6.515 c-0.937,1.6030000000000002 -2.364,2.373 -5.715,3.668 l-0.30300000000000005,0.11600000000000002 c-3.045,1.172 -4.284,1.7970000000000002 -5.374,2.8760000000000003 c-1.09,1.079 -1.7200000000000002,2.306 -2.9050000000000002,5.32 c-1.443,3.6740000000000004 -2.15,4.998 -3.822,5.956 c-1.6420000000000001,0.9400000000000001 -3.124,0.8850000000000001 -7.036,0.29800000000000004 c-3.263,-0.49000000000000005 -4.668,-0.56 -6.19,-0.15700000000000003 c-1.387,0.36700000000000005 -2.59,1.125 -4.816,2.89 l-0.277,0.22000000000000003 C53.803,98.186 52.486,99 50.5,99 c-1.9849999999999999,0 -3.303,-0.8150000000000001 -6.436,-3.307 c-2.504,-1.991 -3.648,-2.728 -5.094,-3.11 c-0.6500000000000001,-0.17300000000000001 -1.362,-0.254 -2.171,-0.254 c-0.48100000000000004,0 -0.995,0.029000000000000005 -1.5670000000000002,0.08500000000000002 c-0.6480000000000001,0.06300000000000001 -1.219,0.14100000000000001 -2.363,0.31300000000000006 l-0.543,0.08000000000000002 c-3.388,0.502 -5.014,0.532 -6.582,-0.36600000000000005 c-1.62,-0.927 -2.3970000000000002,-2.34 -3.705,-5.657 l-0.11800000000000002,-0.30000000000000004 c-1.184,-3.014 -1.814,-4.24 -2.904,-5.32 c-1.09,-1.078 -2.33,-1.703 -5.375,-2.875 l-0.30000000000000004,-0.11600000000000002 c-3.352,-1.295 -4.78,-2.065 -5.7170000000000005,-3.668 c-0.9500000000000001,-1.625 -0.8940000000000001,-3.092 -0.30100000000000005,-6.965 c0.18700000000000003,-1.219 0.265,-1.784 0.33000000000000007,-2.425 c0.15000000000000002,-1.508 0.10600000000000001,-2.6750000000000003 -0.171,-3.7030000000000003 c-0.38600000000000007,-1.4300000000000002 -1.131,-2.563 -3.143,-5.041 c-0.41000000000000003,-0.506 -0.5960000000000001,-0.7370000000000001 -0.782,-0.974 C1.827,53.202 1,51.717 1,50 c0,-1.718 0.8280000000000001,-3.204 2.564,-5.405 c0.18400000000000002,-0.234 0.36800000000000005,-0.463 0.6390000000000001,-0.797 c2.15,-2.648 2.894,-3.7800000000000002 3.2800000000000002,-5.211 c0.278,-1.029 0.32100000000000006,-2.198 0.17,-3.709 c-0.06400000000000002,-0.6400000000000001 -0.14200000000000002,-1.203 -0.31500000000000006,-2.334 l-0.08200000000000002,-0.535 c-0.507,-3.354 -0.537,-4.963 0.37000000000000005,-6.516 c0.937,-1.602 2.364,-2.373 5.716,-3.6670000000000003 l0.30200000000000005,-0.11600000000000002 l0.6960000000000002,-0.27 c2.3930000000000002,-0.933 3.6830000000000003,-1.62 4.678,-2.606 c1.09,-1.08 1.7200000000000002,-2.306 2.9050000000000002,-5.32 c1.444,-3.6740000000000004 2.15,-4.999 3.823,-5.956 c1.641,-0.9400000000000001 3.124,-0.8860000000000001 7.035,-0.29800000000000004 c3.261,0.48900000000000005 4.668,0.56 6.19,0.15700000000000003 c1.4460000000000002,-0.38300000000000006 2.59,-1.12 5.093,-3.111 c0.51,-0.405 0.7420000000000001,-0.5880000000000001 0.98,-0.771 C47.264,1.819 48.765,1 50.5,1 c1.986,0 3.3040000000000003,0.8150000000000001 6.437,3.307 c2.504,1.991 3.6470000000000002,2.728 5.093,3.11 c1.039,0.275 2.22,0.31800000000000006 3.746,0.16800000000000004 c0.6460000000000001,-0.06300000000000001 1.216,-0.14 2.358,-0.31200000000000006 l0.542,-0.08000000000000002 c3.387,-0.502 5.012,-0.532 6.58,0.36600000000000005 c1.62,0.928 2.398,2.34 3.705,5.658 l0.11800000000000002,0.29900000000000004 c1.184,3.014 1.815,4.24 2.9050000000000002,5.32 c1.09,1.079 2.329,1.703 5.374,2.8760000000000003 l0.30000000000000004,0.11600000000000002 c3.352,1.294 4.78,2.064 5.7170000000000005,3.668 c0.9500000000000001,1.624 0.8940000000000001,3.091 0.30100000000000005,6.965 c-0.18700000000000003,1.22 -0.265,1.786 -0.33000000000000007,2.428 c-0.15000000000000002,1.506 -0.10600000000000001,2.673 0.171,3.7 c0.37000000000000005,1.372 1.1360000000000001,2.564 2.92,4.767 l0.22200000000000003,0.273 C99.176,46.73 100,48.035 100,50 c0,1.965 -0.8230000000000001,3.271 -3.34,6.372 c-2.012,2.478 -2.7560000000000002,3.6100000000000003 -3.143,5.041 z" id="svg_2"/>
        <ellipse cx="51.5" cy="51" fill="#F05562" rx="31.5" ry="31" id="svg_3"/>
        <path fill="#FFF" fill-rule="nonzero" d="M67.049,33.12 a2.7510000000000003,2.7510000000000003 0 0 1 3.823,-0.6020000000000001 a2.7,2.7 0 0 1 0.6050000000000001,3.792 L47.62,68.88 a2.7510000000000003,2.7510000000000003 0 0 1 -3.916,0.532 L31.036,59.44 a2.7,2.7 0 0 1 -0.44300000000000006,-3.813 a2.7520000000000002,2.7520000000000002 0 0 1 3.845,-0.44000000000000006 L44.87,63.4 l22.179,-30.28 z" id="svg_4"/>
        <path fill="#434A54" fill-rule="nonzero" d="M51.5,18 c1.142,0 2.068,0.912 2.068,2.037 s-0.926,2.037 -2.068,2.037 c-16.217,0 -29.364,12.95 -29.364,28.926 c0,15.975 13.147,28.926 29.364,28.926 S80.864,66.976 80.864,51 c0,-1.125 0.926,-2.037 2.068,-2.037 S85,49.875 85,51 c0,18.225 -14.998,33 -33.5,33 C32.998000000000005,84 18,69.225 18,51 s14.998,-33 33.5,-33 z" id="svg_5"/>
        <path fill="#55C6D9" fill-rule="nonzero" d="M75.46,97.206 c0,-1.218 1.016,-2.206 2.27,-2.206 s2.27,0.988 2.27,2.206 v20.587 c0,1.42 -1.36,2.47 -2.784,2.149 l-25.517,-5.767 l-25.922,5.768 c-1.4220000000000002,0.31700000000000006 -2.777,-0.7330000000000001 -2.777,-2.15 v-13.725 c0,-1.218 1.016,-2.206 2.27,-2.206 s2.27,0.988 2.27,2.206 v10.957 l23.656,-5.264 a2.334,2.334 0 0 1 1.021,0.0020000000000000005 l23.243,5.253 v-17.81 zM25.5,95 c-0.6570000000000001,0 -1.302,0.267 -1.7670000000000001,0.7330000000000001 a2.52,2.52 0 0 0 -0.7330000000000001,1.77 c0,0.6540000000000001 0.267,1.3 0.7330000000000001,1.7670000000000001 c0.465,0.465 1.11,0.7300000000000001 1.7670000000000001,0.7300000000000001 c0.6570000000000001,0 1.302,-0.265 1.7670000000000001,-0.7300000000000001 c0.466,-0.468 0.7330000000000001,-1.11 0.7330000000000001,-1.7670000000000001 a2.52,2.52 0 0 0 -0.7330000000000001,-1.77 A2.519,2.519 0 0 0 25.5,95 z" id="svg_6"/>
        <path fill="#434A54" fill-rule="nonzero" d="M59.5,18 c-0.6570000000000001,0 -1.303,0.267 -1.7670000000000001,0.7330000000000001 a2.52,2.52 0 0 0 -0.7330000000000001,1.77 c0,0.6540000000000001 0.267,1.3 0.7330000000000001,1.7670000000000001 c0.465,0.465 1.11,0.7300000000000001 1.7670000000000001,0.7300000000000001 c0.6570000000000001,0 1.303,-0.265 1.7670000000000001,-0.7300000000000001 c0.465,-0.468 0.7330000000000001,-1.11 0.7330000000000001,-1.7670000000000001 a2.52,2.52 0 0 0 -0.7330000000000001,-1.77 A2.519,2.519 0 0 0 59.5,18 z" id="svg_7"/>
    </g><path fill="#fe980f" fill-opacity="1" stroke="#fe980f" stroke-opacity="1" stroke-width="1" stroke-dasharray="none" stroke-linejoin="miter" stroke-linecap="butt" stroke-dashoffset="" fill-rule="evenodd" opacity="1" marker-start="" marker-mid="" marker-end="" id="svg_8" d="M51.18965243669534,22.68965547858746 " style="color: rgb(254, 152, 15);"/><path fill="#fe980f" fill-opacity="1" stroke="#fe980f" stroke-opacity="1" stroke-width="1" stroke-dasharray="none" stroke-linejoin="miter" stroke-linecap="butt" stroke-dashoffset="" fill-rule="evenodd" opacity="1" marker-start="" marker-mid="" marker-end="" id="svg_9" d="M50.844824861828215,22.344827903720326 " style="color: rgb(254, 152, 15);"/><path fill="#fe980f" fill-opacity="1" stroke="#fe980f" stroke-opacity="1" stroke-width="1" stroke-dasharray="none" stroke-linejoin="miter" stroke-linecap="butt" stroke-dashoffset="" fill-rule="evenodd" opacity="1" marker-start="" marker-mid="" marker-end="" id="svg_10" d="M51.706893798996035,22.0000003288532 " style="color: rgb(254, 152, 15);"/><path fill="#fe980f" fill-opacity="1" stroke="#fe980f" stroke-opacity="1" stroke-width="1" stroke-dasharray="none" stroke-linejoin="miter" stroke-linecap="butt" stroke-dashoffset="" fill-rule="evenodd" opacity="1" marker-start="" marker-mid="" marker-end="" id="svg_11" d="M 51.18965243669534 22.172414116286763 C 51.18965243669534 22.172414116286763 45.844825026254824 22.34482790372034 44.293100939352726 23.034483053454597 C 42.74137685245063 23.724138203188854 41.017238978114975 23.724138203188847 38.60344595404506 25.103448502657375" style="color: rgb(254, 152, 15);"/><path fill="#fe980f" fill-opacity="1" stroke="#fe980f" stroke-opacity="1" stroke-width="1" stroke-dasharray="none" stroke-linejoin="miter" stroke-linecap="butt" stroke-dashoffset="" fill-rule="evenodd" opacity="1" marker-start="" marker-mid="" marker-end="" id="svg_12" d="M38.77585974147863,25.275862290090945 " style="color: rgb(254, 152, 15);"/><path fill="#fe980f" fill-opacity="1" stroke="#fe980f" stroke-opacity="1" stroke-width="1" stroke-dasharray="none" stroke-linejoin="miter" stroke-linecap="butt" stroke-dashoffset="" fill-rule="evenodd" opacity="1" marker-start="" marker-mid="" marker-end="" id="svg_13" d="M38.4310321666115,25.275862290090938 " style="color: rgb(254, 152, 15);"/><path fill="#fe980f" fill-opacity="1" stroke="#fe980f" stroke-opacity="1" stroke-width="1" stroke-dasharray="none" stroke-linejoin="miter" stroke-linecap="butt" stroke-dashoffset="" fill-rule="evenodd" opacity="1" marker-start="" marker-mid="" marker-end="" id="svg_14" d="M 38.77585974147863 25.44827607752451 C 38.77585974147863 25.44827607752451 29.465515220066095 29.758620763363645 24.120687809625565 40.79310315911184 C 18.775860399185035 51.82758555486003 23.948274022191995 60.44827492653831 23.948274022191995 60.44827492653831" style="color: rgb(254, 152, 15);"/><path fill="#fe980f" fill-opacity="1" stroke="#fe980f" stroke-opacity="1" stroke-width="1" stroke-dasharray="none" stroke-linejoin="miter" stroke-linecap="butt" stroke-dashoffset="" fill-rule="evenodd" opacity="1" marker-start="" marker-mid="" marker-end="" id="svg_15" d="M 23.948274022191995 60.62068871397187 C 23.948274022191995 60.62068871397187 27.396549770863295 70.10344702281796 36.8793080797094 75.62068822069206 C 46.36206638855551 81.13792941856616 58.431031508905086 79.4137915442305 61.017238320408566 77.51723988246128" style="color: rgb(254, 152, 15);"/><path fill="#fe980f" fill-opacity="1" stroke="#fe980f" stroke-opacity="1" stroke-width="1" stroke-dasharray="none" stroke-linejoin="miter" stroke-linecap="butt" stroke-dashoffset="" fill-rule="evenodd" opacity="1" marker-start="" marker-mid="" marker-end="" id="svg_16" d="M61.017238320408566,77.68965366989484 " style="color: rgb(254, 152, 15);"/><path fill="#fe980f" fill-opacity="1" stroke="#fe980f" stroke-opacity="1" stroke-width="1" stroke-dasharray="none" stroke-linejoin="miter" stroke-linecap="butt" stroke-dashoffset="" fill-rule="evenodd" opacity="1" marker-start="" marker-mid="" marker-end="" id="svg_17" d="M 61.017238320408566 77.51723988246128 C 61.017238320408566 77.51723988246128 69.46551390465329 76.31034337042632 76.18965161456234 65.79310233697883 C 82.91378932447138 55.27586130353134 80.67241008783505 50.10344768052438 80.8448238752686 49.93103389309081" style="color: rgb(254, 152, 15);"/><rect fill="#fe980f" stroke="#fe980f" stroke-dashoffset="" fill-rule="evenodd" id="svg_19" x="28" y="36" width="26" height="13" style="color: rgb(254, 152, 15);"/><path fill="#fe980f" fill-opacity="1" stroke="#fe980f" stroke-opacity="1" stroke-width="1" stroke-dasharray="none" stroke-linejoin="miter" stroke-linecap="butt" stroke-dashoffset="" fill-rule="evenodd" opacity="1" marker-start="" marker-mid="" marker-end="" id="svg_21" d="M 28.948273857765404 49.58620631822367 C 28.948273857765404 49.58620631822367 44.46551472678629 62.86206795060822 44.46551472678629 62.86206795060822 C 44.46551472678629 62.86206795060822 71.01723799155538 27.517241526727293 71.01723799155538 27.517241526727293 C 71.01723799155538 27.517241526727293 39.12068731634575 25.620689864958074 39.12068731634575 25.620689864958074 C 39.12068731634575 25.620689864958074 24.46551538449269 45.79310299468523 24.310344827586206 45.689655172413794 C 24.46551538449269 45.79310299468523 28.948273857765404 49.58620631822367 28.948273857765404 49.58620631822367 z" style="color: rgb(254, 152, 15);"/><path fill="#fe980f" fill-opacity="1" stroke="#fe980f" stroke-opacity="1" stroke-width="1" stroke-dasharray="none" stroke-linejoin="miter" stroke-linecap="butt" stroke-dashoffset="" fill-rule="evenodd" opacity="1" marker-start="" marker-mid="" marker-end="" id="svg_23" d="M 76.01723782712877 32 C 76.01723782712877 32 44.98275608908699 72.51724004688788 44.98275608908699 72.68965383432145 C 44.98275608908699 72.86206762175502 60.84482453297501 76.65517094529345 60.84482453297501 76.65517094529345 C 60.84482453297501 76.65517094529345 81.53447902500285 48.20689601875515 81.53447902500285 48.20689601875515 C 81.53447902500285 48.20689601875515 76.01723782712877 32 76.01723782712877 32 z" style="color: rgb(254, 152, 15);"/><path fill="#fe980f" fill-opacity="1" stroke="#fe980f" stroke-opacity="1" stroke-width="1" stroke-dasharray="none" stroke-linejoin="miter" stroke-linecap="butt" stroke-dashoffset="" fill-rule="evenodd" opacity="1" marker-start="" marker-mid="" marker-end="" id="svg_25" d="M 40.155170040947155 25.448276077524508 C 40.155170040947155 25.448276077524508 74.63792752766024 32.517241362300695 74.63792752766024 32.517241362300695 C 74.63792752766024 32.517241362300695 54.63792818536665 22.172414116286763 54.48275862068966 22.06896551724138 C 54.63792818536665 22.172414116286763 40.155170040947155 25.448276077524508 40.155170040947155 25.448276077524508 z" style="color: rgb(254, 152, 15);"/><path fill="#fe980f" fill-opacity="1" stroke="#fe980f" stroke-opacity="1" stroke-width="1" stroke-dasharray="none" stroke-linejoin="miter" stroke-linecap="butt" stroke-dashoffset="" fill-rule="evenodd" opacity="1" marker-start="" marker-mid="" marker-end="" id="svg_27" d="M 32.39654960643671 51.4827579799929 C 32.39654960643671 51.4827579799929 25.67241189652765 62.17241280087396 25.67241189652765 62.17241280087396 C 25.67241189652765 62.17241280087396 22.396549935289915 54.75861994123065 22.396549935289915 54.75861994123065 C 22.396549935289915 54.75861994123065 28.086204920597567 45.10344784495097 28.086204920597567 45.10344784495097 C 28.086204920597567 45.10344784495097 32.39654960643671 51.4827579799929 32.39654960643671 51.4827579799929 z" style="color: rgb(254, 152, 15);"/><path fill="#fe980f" fill-opacity="1" stroke="#fe980f" stroke-opacity="1" stroke-width="1" stroke-dasharray="none" stroke-linejoin="miter" stroke-linecap="butt" stroke-dashoffset="" fill-rule="evenodd" opacity="1" marker-start="" marker-mid="" marker-end="" id="svg_29" d="M 27.913791133164 56.482757815566295 C 27.913791133164 56.482757815566295 44.63792851421985 70.9655159599858 44.63792851421985 70.9655159599858 C 44.63792851421985 70.9655159599858 35.32758399280732 71.82758489715363 35.32758399280732 71.82758489715363 C 35.32758399280732 71.82758489715363 24.810342959359822 59.41379220193691 24.637929171926256 59.41379220193691 C 24.46551538449269 59.41379220193691 27.913791133164 56.482757815566295 27.913791133164 56.482757815566295 z" style="color: rgb(254, 152, 15);"/><path fill="#fe980f" fill-opacity="1" stroke="#fe980f" stroke-opacity="1" stroke-width="1" stroke-dasharray="none" stroke-linejoin="miter" stroke-linecap="butt" stroke-dashoffset="" fill-rule="evenodd" opacity="1" marker-start="" marker-mid="" marker-end="" id="svg_31" d="M 37.56896322944367 53.55172342919568 C 37.56896322944367 53.55172342919568 27.56896355829687 54.93103372866421 27.56896355829687 54.93103372866421 C 27.56896355829687 54.93103372866421 26.879308408562608 49.75862010565724 26.879308408562608 49.75862010565724 C 26.879308408562608 49.75862010565724 38.08620459174436 49.24137874335654 37.93103448275862 49.13793103448276 C 38.08620459174436 49.24137874335654 37.56896322944367 53.55172342919568 37.56896322944367 53.55172342919568 z" style="color: rgb(254, 152, 15);"/><path fill="#fe980f" fill-opacity="1" stroke="#fe980f" stroke-opacity="1" stroke-width="1" stroke-dasharray="none" stroke-linejoin="miter" stroke-linecap="butt" stroke-dashoffset="" fill-rule="evenodd" opacity="1" marker-start="" marker-mid="" marker-end="" id="svg_33" d="M 29.120687645198956 50.62068904282507 C 29.120687645198956 50.79310283025863 29.81034279493322 59.06896462706977 29.655172413793103 58.96551724137931 C 29.81034279493322 59.06896462706977 25.49999810909408 57.689654327601254 25.344827586206897 57.58620689655172 C 25.49999810909408 57.689654327601254 25.155170534226954 50.4482752553915 25.155170534226954 50.4482752553915 C 25.155170534226954 50.4482752553915 29.120687645198956 50.44827525539151 29.120687645198956 50.62068904282507 z" style="color: rgb(254, 152, 15);"/><path fill="#fe980f" fill-opacity="1" stroke="#fe980f" stroke-opacity="1" stroke-width="1" stroke-dasharray="none" stroke-linejoin="miter" stroke-linecap="butt" stroke-dashoffset="" fill-rule="evenodd" opacity="1" marker-start="" marker-mid="" marker-end="" id="svg_35" d="M 53.77585924819883 69.41379187308371 C 53.77585924819883 69.41379187308371 39.982756253513585 70.9655159599858 39.982756253513585 70.9655159599858 C 39.982756253513585 70.9655159599858 52.3965489487303 73.20689519662214 52.24137931034483 73.10344827586208 C 52.3965489487303 73.20689519662214 53.77585924819883 69.41379187308371 53.77585924819883 69.41379187308371 z" style="color: rgb(254, 152, 15);"/><path fill="#fe980f" fill-opacity="1" stroke="#fe980f" stroke-opacity="1" stroke-width="1" stroke-dasharray="none" stroke-linejoin="miter" stroke-linecap="butt" stroke-dashoffset="" fill-rule="evenodd" opacity="1" marker-start="" marker-mid="" marker-end="" id="svg_37" d="M 78.25861706376512 47.517240869020895 C 78.25861706376512 47.517240869020895 80.32758251296791 55.103447516097766 80.32758251296791 55.103447516097766 C 80.32758251296791 55.103447516097766 63.77585891934562 76.13792958299275 63.77585891934562 76.13792958299275 C 63.77585891934562 76.13792958299275 53.77585924819883 78.03448124476198 53.77585924819883 78.03448124476198 C 53.77585924819883 78.03448124476198 78.25861706376512 47.517240869020895 78.25861706376512 47.517240869020895 z" style="color: rgb(254, 152, 15);"/><path fill="#fe980f" fill-opacity="1" stroke="#fe980f" stroke-opacity="1" stroke-width="1" stroke-dasharray="none" stroke-linejoin="miter" stroke-linecap="butt" stroke-dashoffset="" fill-rule="evenodd" opacity="1" marker-start="" marker-mid="" marker-end="" id="svg_39" d="M 67.3965484554505 28.551724251328686 C 67.3965484554505 28.551724251328686 75.15516888996095 36.13793089840557 75.15516888996095 36.13793089840557 C 75.15516888996095 36.13793089840557 77.05172055173016 34.241379236636355 77.05172055173016 34.068965449202786 C 77.05172055173016 33.896551661769216 64.63792785651344 23.37931062832172 64.63792785651344 23.37931062832172 C 64.63792785651344 23.37931062832172 53.603445460765265 23.37931062832172 53.44827586206897 23.27586206896552 C 53.603445460765265 23.37931062832172 67.3965484554505 28.551724251328686 67.3965484554505 28.551724251328686 z" style="color: rgb(254, 152, 15);"/><path fill="#fe980f" fill-opacity="1" stroke="#fe980f" stroke-opacity="1" stroke-width="1" stroke-dasharray="none" stroke-linejoin="miter" stroke-linecap="butt" stroke-dashoffset="" fill-rule="evenodd" opacity="1" marker-start="" marker-mid="" marker-end="" id="svg_41" d="M 72.56896207845746 32.344827574867125 C 72.56896207845746 32.344827574867125 72.22413450359034 40.10344800937757 72.22413450359034 40.10344800937757 C 72.22413450359034 40.10344800937757 81.87930659986999 48.379309806188715 81.87930659986999 48.379309806188715" style="color: rgb(254, 152, 15);"/><path fill="#fe980f" fill-opacity="1" stroke="#fe980f" stroke-opacity="1" stroke-width="1" stroke-dasharray="none" stroke-linejoin="miter" stroke-linecap="butt" stroke-dashoffset="" fill-rule="evenodd" opacity="1" marker-start="" marker-mid="" marker-end="" id="svg_18" d="M82.39654796217069,48.55172359362228 " style="color: rgb(254, 152, 15);"/><path fill="#fe980f" fill-opacity="1" stroke="#fe980f" stroke-opacity="1" stroke-width="1" stroke-dasharray="none" stroke-linejoin="miter" stroke-linecap="butt" stroke-dashoffset="" fill-rule="evenodd" opacity="1" marker-start="" marker-mid="" marker-end="" id="svg_20" d="M 82.22413417473713 48.379309806188715 C 82.22413417473713 48.379309806188715 79.63792736323366 39.241379072209746 79.63792736323366 39.241379072209746 C 79.63792736323366 39.241379072209746 82.22413417473713 48.379309806188715 82.22413417473713 48.379309806188715 z" style="color: rgb(254, 152, 15);"/><path fill="#fe980f" fill-opacity="1" stroke="#fe980f" stroke-opacity="1" stroke-width="1" stroke-dasharray="none" stroke-linejoin="miter" stroke-linecap="butt" stroke-dashoffset="" fill-rule="evenodd" opacity="1" marker-start="" marker-mid="" marker-end="" id="svg_24" d="M82.05172038730355,48.379309806188715 " style="color: rgb(254, 152, 15);"/><path fill="#fe980f" fill-opacity="1" stroke="#fe980f" stroke-opacity="1" stroke-width="1" stroke-dasharray="none" stroke-linejoin="miter" stroke-linecap="butt" stroke-dashoffset="" fill-rule="evenodd" opacity="1" marker-start="" marker-mid="" marker-end="" id="svg_22" d="M 72.56896207845746 35.27586196123774 C 72.56896207845746 35.62068953610487 55.499997122534474 58.72413705220264 55.499997122534474 58.72413705220264 C 55.499997122534474 58.72413705220264 75.15516888996095 46.310344356985915 75.15516888996095 46.13793056955235 C 75.15516888996095 45.96551678211879 72.56896207845746 34.931034386370605 72.56896207845746 35.27586196123774 z" style="color: rgb(254, 152, 15);"/><polyline fill="none" stroke="#fe980f" stroke-dashoffset="" fill-rule="evenodd" marker-start="" marker-mid="" marker-end="" id="svg_28" points="46.706893963422644,25.103448502657375 48.603445625191846,23.89655199062242 48.603445625191846,23.724138203188854 48.77585941262542,23.724138203188854 48.94827320005899,23.724138203188854 48.94827320005899,23.551724415755288 48.77585941262542,23.551724415755288 48.603445625191846,23.551724415755288 48.4310318377583,23.551724415755288 47.9137904754576,23.551724415755288 47.74137668802404,23.551724415755288 47.396549113156894,23.551724415755288 47.22413532572334,23.551724415755288 46.8793077508562,23.551724415755288 46.706893963422644,23.724138203188854 46.534480175989074,23.724138203188854 46.36206638855551,23.724138203188854 46.189652601121935,23.89655199062242 46.01723881368837,23.89655199062242 45.84482502625481,24.068965778055983 45.67241123882124,24.068965778055983 45.499997451387685,24.068965778055983 45.67241123882124,24.068965778055983 45.84482502625481,24.068965778055983 46.01723881368837,24.068965778055983 46.36206638855551,24.068965778055983 46.534480175989074,23.89655199062242 46.706893963422644,23.89655199062242 46.8793077508562,23.89655199062242 47.05172153828977,23.89655199062242 47.22413532572334,23.89655199062242 47.396549113156894,23.724138203188854 47.56896290059046,23.724138203188854 47.74137668802404,23.724138203188854 47.74137668802404,23.551724415755288 47.9137904754576,23.379310628321726 48.08620426289116,23.379310628321726 48.25861805032472,23.20689684088816 48.4310318377583,23.20689684088816 48.4310318377583,23.034483053454597 48.603445625191846,23.034483053454597 48.77585941262542,22.862069266021027 48.603445625191846,22.862069266021027 48.4310318377583,22.862069266021027 48.25861805032472,22.862069266021027 48.08620426289116,22.862069266021027 47.9137904754576,23.034483053454597 47.74137668802404,23.034483053454597 47.56896290059046,23.034483053454597 47.05172153828977,23.20689684088816 46.8793077508562,23.379310628321726 46.706893963422644,23.379310628321726 46.36206638855551,23.551724415755288 46.189652601121935,23.724138203188854 45.84482502625481,23.724138203188854 45.84482502625481,23.89655199062242 45.67241123882124,23.89655199062242 45.499997451387685,23.89655199062242 45.327583663954115,24.068965778055983 45.155169876520546,24.068965778055983 44.98275608908699,24.068965778055983 44.98275608908699,24.241379565489552 44.81034230165342,24.241379565489552 44.63792851421985,24.41379335292312 44.293100939352726,24.41379335292312 44.12068715191916,24.41379335292312 43.94827336448559,24.58620714035668 43.77585957705203,24.58620714035668 43.60344578961846,24.58620714035668 43.43103200218489,24.58620714035668 42.9137906398842,24.758620927790247 42.74137685245063,24.758620927790247 42.56896306501707,24.758620927790247 42.56896306501707,24.931034715223817 42.22413549014993,24.931034715223817 42.051721702716364,24.931034715223817 41.87930791528281,24.931034715223817 41.70689412784924,24.931034715223817 41.53448034041567,24.931034715223817 41.362066552982114,24.931034715223817 41.189652765548544,24.931034715223817 41.017238978114975,24.931034715223817 40.84482519068142,24.931034715223817 40.84482519068142,25.103448502657375 40.67241140324785,25.103448502657375 40.49999761581428,25.275862290090945 40.32758382838071,25.275862290090945 40.155170040947155,25.275862290090945 40.32758382838071,25.275862290090945 40.49999761581428,25.275862290090945 40.84482519068142,25.103448502657375 41.189652765548544,24.931034715223817 41.53448034041567,24.931034715223817 41.87930791528281,24.931034715223817 42.051721702716364,24.931034715223817 42.22413549014993,24.931034715223817 42.3965492775835,24.758620927790247 42.56896306501707,24.758620927790247 42.9137906398842,24.758620927790247 42.9137906398842,24.58620714035668 43.08620442731777,24.58620714035668 43.25861821475132,24.41379335292312 43.25861821475132,24.241379565489552 43.43103200218489,24.241379565489552 43.60344578961846,24.068965778055983 43.77585957705203,24.068965778055983 43.94827336448559,23.89655199062242 43.94827336448559,23.724138203188854 44.293100939352726,23.551724415755288 44.293100939352726,23.379310628321726 44.46551472678629,23.379310628321726 44.46551472678629,23.20689684088816 44.46551472678629,23.379310628321726 44.46551472678629,23.551724415755288 44.293100939352726,23.551724415755288 43.94827336448559,23.724138203188854 43.94827336448559,23.89655199062242 43.60344578961846,23.89655199062242 43.43103200218489,23.89655199062242 43.43103200218489,24.068965778055983 43.25861821475132,24.068965778055983 43.08620442731777,24.068965778055983 42.9137906398842,24.241379565489552 42.74137685245063,24.241379565489552 42.74137685245063,24.41379335292312 42.56896306501707,24.41379335292312 42.3965492775835,24.58620714035668 42.22413549014993,24.58620714035668 42.051721702716364,24.58620714035668 41.87930791528281,24.758620927790247 41.70689412784924,24.758620927790247 41.362066552982114,24.931034715223817 41.189652765548544,24.931034715223817 41.017238978114975,24.931034715223817 40.84482519068142,24.931034715223817 40.84482519068142,25.103448502657375 40.67241140324785,25.103448502657375 40.49999761581428,25.103448502657375 40.32758382838071,25.103448502657375 40.155170040947155,25.103448502657375 39.982756253513585,25.103448502657375 39.810342466080016,25.103448502657375 39.810342466080016,25.275862290090945 39.63792867864646,25.275862290090945 39.63792867864646,25.44827607752451 39.46551489121289,25.44827607752451 39.46551489121289,25.620689864958074 39.29310110377932,25.620689864958074 39.12068731634575,25.620689864958074 38.948273528912196,25.79310365239164 38.77585974147863,25.79310365239164 38.60344595404506,25.79310365239164 38.4310321666115,25.96551743982521 38.4310321666115,26.137931227258772 38.25861837917793,26.137931227258772 38.25861837917793,25.96551743982521 38.25861837917793,25.79310365239164 38.25861837917793,25.620689864958074 38.25861837917793,25.44827607752451 38.25861837917793,25.275862290090945 38.4310321666115,25.275862290090945 38.60344595404506,25.275862290090945 " style="color: rgb(254, 152, 15);"/><polyline fill="none" stroke="#fe980f" stroke-dashoffset="" fill-rule="evenodd" marker-start="" marker-mid="" marker-end="" id="svg_30" points="49.29310077492612,22.517241691153895 49.46551456235969,22.517241691153895 49.63792834979325,22.517241691153895 49.81034213722681,22.517241691153895 49.98275592466039,22.517241691153895 50.15516971209395,22.517241691153895 50.32758349952752,22.517241691153895 50.499997286961076,22.517241691153895 50.672411074394645,22.517241691153895 50.844824861828215,22.517241691153895 50.844824861828215,22.344827903720333 51.01723864926177,22.344827903720333 51.01723864926177,22.172414116286763 51.18965243669534,22.172414116286763 51.36206622412891,22.172414116286763 51.534480011562465,22.172414116286763 51.706893798996035,22.172414116286763 51.8793075864296,22.172414116286763 51.8793075864296,22.0000003288532 52.051721373863174,22.0000003288532 52.22413516129672,22.0000003288532 52.3965489487303,22.0000003288532 52.56896273616387,22.0000003288532 52.741376523597424,22.0000003288532 52.91379031103099,22.0000003288532 53.08620409846456,22.0000003288532 53.25861788589814,22.0000003288532 53.43103167333169,22.0000003288532 53.603445460765265,22.172414116286763 53.77585924819883,22.172414116286763 53.94827303563239,22.172414116286763 54.120686823065945,22.172414116286763 54.29310061049952,22.172414116286763 54.46551439793309,22.172414116286763 54.63792818536665,22.172414116286763 54.81034197280022,22.172414116286763 54.81034197280022,22.344827903720333 54.982755760233786,22.344827903720333 55.15516954766734,22.344827903720333 55.32758333510091,22.344827903720333 55.499997122534474,22.344827903720333 55.499997122534474,22.517241691153895 55.672410909968036,22.517241691153895 55.84482469740161,22.517241691153895 56.017238484835175,22.68965547858746 56.017238484835175,22.862069266021027 56.189652272268745,22.862069266021027 56.189652272268745,23.034483053454597 56.3620660597023,23.034483053454597 56.53447984713587,23.034483053454597 56.53447984713587,22.862069266021027 56.53447984713587,22.68965547858746 56.3620660597023,22.68965547858746 56.3620660597023,22.517241691153895 56.189652272268745,22.517241691153895 56.189652272268745,22.344827903720333 56.017238484835175,22.344827903720333 56.017238484835175,22.172414116286763 56.017238484835175,22.0000003288532 55.84482469740161,22.0000003288532 55.84482469740161,21.827586541419635 55.84482469740161,21.65517275398607 55.672410909968036,21.65517275398607 55.499997122534474,21.65517275398607 55.499997122534474,21.482758966552502 55.32758333510091,21.482758966552502 55.15516954766734,21.482758966552502 54.982755760233786,21.482758966552502 54.81034197280022,21.482758966552502 " style="color: rgb(254, 152, 15);"/><polyline fill="none" stroke="#fe980f" stroke-dashoffset="" fill-rule="evenodd" marker-start="" marker-mid="" marker-end="" id="svg_32" points="53.43103167333169,22.68965547858746 53.43103167333169,22.517241691153895 53.43103167333169,22.344827903720333 53.43103167333169,22.172414116286763 53.603445460765265,22.172414116286763 53.603445460765265,22.0000003288532 53.77585924819883,22.0000003288532 53.77585924819883,21.827586541419635 53.94827303563239,21.827586541419635 54.120686823065945,21.827586541419635 54.120686823065945,21.65517275398607 54.29310061049952,21.65517275398607 54.46551439793309,21.65517275398607 54.46551439793309,21.482758966552502 54.46551439793309,21.31034517911894 54.63792818536665,21.31034517911894 54.63792818536665,21.137931391685374 54.81034197280022,21.137931391685374 " style="color: rgb(254, 152, 15);"/><polyline fill="none" stroke="#fe980f" stroke-dashoffset="" fill-rule="evenodd" marker-start="" marker-mid="" marker-end="" id="svg_34" points="58.08620393403795,23.724138203188854 57.9137901466044,23.724138203188854 57.74137635917082,23.724138203188854 57.56896257173726,23.724138203188854 57.3965487843037,23.724138203188854 57.22413499687014,23.724138203188854 57.051721209436565,23.551724415755288 56.879307422002995,23.551724415755288 56.879307422002995,23.379310628321726 56.879307422002995,23.20689684088816 56.879307422002995,23.034483053454597 56.879307422002995,22.862069266021027 56.70689363456944,22.862069266021027 56.53447984713587,22.862069266021027 56.53447984713587,22.68965547858746 56.3620660597023,22.68965547858746 56.3620660597023,22.517241691153895 56.189652272268745,22.517241691153895 56.189652272268745,22.344827903720333 56.189652272268745,22.172414116286763 56.017238484835175,22.172414116286763 56.017238484835175,22.0000003288532 55.84482469740161,22.0000003288532 55.84482469740161,21.827586541419635 55.84482469740161,21.65517275398607 56.017238484835175,21.482758966552502 56.017238484835175,21.31034517911894 " style="color: rgb(254, 152, 15);"/><polyline fill="none" stroke="#fe980f" stroke-dashoffset="" fill-rule="evenodd" marker-start="" marker-mid="" marker-end="" id="svg_36" points="28.603446282898265,55.44827509096489 28.77586007033183,55.44827509096489 28.948273857765404,55.44827509096489 29.120687645198956,55.44827509096489 29.293101432632525,55.44827509096489 29.465515220066095,55.27586130353133 29.63792900749965,55.27586130353133 29.81034279493322,55.27586130353133 29.98275658236679,55.27586130353133 29.98275658236679,55.103447516097766 30.15517036980036,54.93103372866421 30.327584157233915,54.93103372866421 30.49999794466748,54.93103372866421 30.49999794466748,54.758619941230634 30.672411732101054,54.758619941230634 30.844825519534613,54.24137857892994 31.01723930696818,53.89655100406281 31.01723930696818,53.724137216629245 31.189653094401752,53.37930964176212 31.362066881835318,53.37930964176212 " style="color: rgb(254, 152, 15);"/><polyline fill="none" stroke="#fe980f" stroke-dashoffset="" fill-rule="evenodd" marker-start="" marker-mid="" marker-end="" id="svg_38" points="79.81034115066721,50.27586146795793 79.81034115066721,49.413792530790104 79.81034115066721,49.24137874335654 79.98275493810077,49.06896495592298 79.98275493810077,48.89655116848941 80.15516872553435,48.89655116848941 80.15516872553435,48.72413738105585 80.32758251296791,48.72413738105585 80.67241008783505,48.55172359362228 80.8448238752686,48.379309806188715 81.01723766270216,48.379309806188715 81.18965145013574,48.379309806188715 81.3620652375693,48.379309806188715 81.53447902500285,48.379309806188715 81.70689281243644,48.379309806188715 81.87930659986999,48.379309806188715 82.05172038730355,48.379309806188715 81.87930659986999,48.379309806188715 81.87930659986999,48.55172359362228 81.70689281243644,48.55172359362228 81.53447902500285,48.55172359362228 81.53447902500285,48.72413738105585 81.3620652375693,48.72413738105585 81.18965145013574,48.72413738105585 81.18965145013574,48.89655116848941 81.18965145013574,49.06896495592298 81.01723766270216,49.06896495592298 81.01723766270216,48.89655116848941 81.01723766270216,48.72413738105585 81.01723766270216,48.55172359362228 81.01723766270216,48.379309806188715 81.18965145013574,48.379309806188715 81.3620652375693,48.379309806188715 81.53447902500285,48.379309806188715 81.70689281243644,48.379309806188715 81.70689281243644,48.206896018755145 81.87930659986999,48.206896018755145 82.05172038730355,48.206896018755145 82.22413417473713,48.206896018755145 82.22413417473713,48.03448223132158 82.22413417473713,47.86206844388802 82.22413417473713,47.68965465645446 82.22413417473713,47.517240869020895 82.22413417473713,47.34482708158732 82.22413417473713,47.172413294153756 82.22413417473713,46.999999506720194 82.05172038730355,46.827585719286624 82.05172038730355,46.65517193185306 82.05172038730355,46.48275814441949 82.05172038730355,46.31034435698593 81.87930659986999,46.31034435698593 81.87930659986999,46.13793056955235 81.87930659986999,45.96551678211879 81.87930659986999,45.79310299468523 81.70689281243644,45.79310299468523 81.70689281243644,45.62068920725167 81.70689281243644,45.44827541981811 81.70689281243644,45.27586163238453 81.70689281243644,45.10344784495097 81.70689281243644,44.93103405751741 81.70689281243644,44.75862027008384 81.70689281243644,44.586206482650276 81.70689281243644,44.413792695216706 81.53447902500285,44.413792695216706 81.53447902500285,44.241378907783144 81.53447902500285,44.068965120349574 81.53447902500285,43.89655133291601 81.53447902500285,43.72413754548245 81.3620652375693,43.72413754548245 81.3620652375693,43.55172375804888 81.3620652375693,43.37930997061532 81.3620652375693,43.20689618318175 81.3620652375693,43.034482395748185 81.3620652375693,42.86206860831462 81.18965145013574,42.86206860831462 81.18965145013574,42.68965482088105 81.01723766270216,42.68965482088105 81.01723766270216,42.51724103344749 81.01723766270216,42.34482724601392 81.01723766270216,42.17241345858036 81.01723766270216,41.99999967114679 81.01723766270216,41.827585883713226 " style="color: rgb(254, 152, 15);"/><polyline fill="none" stroke="#fe980f" stroke-dashoffset="" fill-rule="evenodd" marker-start="" marker-mid="" marker-end="" id="svg_40" points="81.18965145013574,43.034482395748185 81.18965145013574,42.86206860831462 81.18965145013574,42.68965482088105 81.18965145013574,42.51724103344749 81.18965145013574,42.34482724601392 81.18965145013574,42.17241345858036 81.18965145013574,41.99999967114679 81.18965145013574,41.827585883713226 81.01723766270216,41.827585883713226 81.01723766270216,41.655172096279664 80.8448238752686,41.655172096279664 80.8448238752686,41.482758308846094 80.8448238752686,41.31034452141253 80.67241008783505,41.31034452141253 80.67241008783505,41.13793073397896 80.67241008783505,40.9655169465454 80.49999630040146,40.9655169465454 80.49999630040146,40.79310315911184 80.49999630040146,40.62068937167827 80.49999630040146,40.448275584244705 80.32758251296791,40.448275584244705 80.32758251296791,40.275861796811135 80.32758251296791,40.10344800937757 80.15516872553435,39.931034221944 79.98275493810077,39.931034221944 79.98275493810077,39.75862043451044 79.98275493810077,39.58620664707688 79.98275493810077,39.41379285964331 79.98275493810077,39.241379072209746 79.98275493810077,39.068965284776176 79.81034115066721,39.068965284776176 79.81034115066721,38.896551497342614 79.63792736323366,38.896551497342614 79.63792736323366,38.724137709909044 79.63792736323366,38.55172392247548 79.63792736323366,38.37931013504192 79.46551357580007,38.20689634760835 79.46551357580007,38.03448256017479 79.29309978836652,37.86206877274122 79.29309978836652,37.689654985307655 79.12068600093293,37.689654985307655 78.94827221349938,37.51724119787409 78.94827221349938,37.34482741044052 78.77585842606582,37.34482741044052 78.77585842606582,37.17241362300696 78.77585842606582,36.99999983557339 78.60344463863224,36.99999983557339 78.60344463863224,36.82758604813983 78.43103085119868,36.82758604813983 78.43103085119868,36.65517226070626 78.25861706376512,36.482758473272696 78.25861706376512,36.310344685839134 " style="color: rgb(254, 152, 15);"/><polyline fill="none" stroke="#fe980f" stroke-dashoffset="" fill-rule="evenodd" marker-start="" marker-mid="" marker-end="" id="svg_42" points="80.32758251296791,41.827585883713226 80.32758251296791,41.655172096279664 80.15516872553435,41.31034452141253 79.98275493810077,41.13793073397896 79.98275493810077,40.9655169465454 79.98275493810077,40.79310315911184 79.81034115066721,40.62068937167827 79.81034115066721,40.448275584244705 79.81034115066721,40.275861796811135 79.63792736323366,40.275861796811135 79.63792736323366,40.10344800937757 79.63792736323366,39.931034221944 79.46551357580007,39.931034221944 79.46551357580007,39.75862043451044 79.29309978836652,39.75862043451044 79.29309978836652,39.58620664707688 79.29309978836652,39.41379285964331 79.12068600093293,39.241379072209746 79.12068600093293,39.068965284776176 78.94827221349938,38.896551497342614 78.77585842606582,38.724137709909044 78.60344463863224,38.724137709909044 78.60344463863224,38.37931013504192 78.43103085119868,38.20689634760835 78.43103085119868,38.03448256017479 78.43103085119868,37.86206877274122 78.43103085119868,37.689654985307655 78.43103085119868,37.51724119787409 78.43103085119868,37.689654985307655 78.43103085119868,37.86206877274122 78.43103085119868,38.03448256017479 78.43103085119868,38.20689634760835 78.43103085119868,38.37931013504192 78.43103085119868,38.55172392247548 78.43103085119868,38.724137709909044 78.60344463863224,38.724137709909044 78.77585842606582,38.896551497342614 78.94827221349938,39.068965284776176 79.12068600093293,39.241379072209746 79.12068600093293,39.41379285964331 79.29309978836652,39.41379285964331 79.46551357580007,39.58620664707688 79.63792736323366,39.58620664707688 79.81034115066721,39.58620664707688 79.81034115066721,39.75862043451044 79.98275493810077,39.931034221944 80.15516872553435,39.931034221944 80.15516872553435,40.10344800937757 80.32758251296791,40.10344800937757 80.49999630040146,40.10344800937757 " style="color: rgb(254, 152, 15);"/><polyline fill="none" stroke="#fe980f" stroke-dashoffset="" fill-rule="evenodd" marker-start="" marker-mid="" marker-end="" id="svg_43" points="79.29309978836652,38.20689634760835 79.29309978836652,37.86206877274122 79.12068600093293,37.86206877274122 79.12068600093293,37.689654985307655 78.94827221349938,37.689654985307655 78.94827221349938,37.51724119787409 78.77585842606582,37.51724119787409 78.77585842606582,37.34482741044052 78.77585842606582,37.17241362300696 78.60344463863224,37.17241362300696 78.60344463863224,36.99999983557339 78.60344463863224,36.82758604813983 78.60344463863224,36.65517226070626 78.43103085119868,36.65517226070626 78.43103085119868,36.482758473272696 78.43103085119868,36.310344685839134 78.25861706376512,36.310344685839134 78.25861706376512,36.137930898405564 78.08620327633156,36.137930898405564 77.91378948889799,35.965517110972 77.91378948889799,35.79310332353843 77.91378948889799,35.62068953610487 77.74137570146442,35.62068953610487 77.74137570146442,35.44827574867131 77.56896191403087,35.27586196123774 77.56896191403087,35.103448173804175 77.3965481265973,35.103448173804175 77.3965481265973,34.931034386370605 77.22413433916373,34.75862059893704 77.22413433916373,34.58620681150347 77.22413433916373,34.41379302406991 77.05172055173016,34.41379302406991 76.8793067642966,34.24137923663635 " style="color: rgb(254, 152, 15);"/><polyline fill="none" stroke="#fe980f" stroke-dashoffset="" fill-rule="evenodd" marker-start="" marker-mid="" marker-end="" id="svg_44" points="75.49999646482807,32.51724136230069 75.49999646482807,32.344827574867125 75.49999646482807,32.17241378743356 75.3275826773945,32.17241378743356 75.3275826773945,31.999999999999996 75.15516888996095,31.999999999999996 75.15516888996095,31.827586212566434 74.98275510252738,31.827586212566434 74.81034131509381,31.827586212566434 74.81034131509381,31.655172425132864 74.63792752766024,31.655172425132864 74.46551374022668,31.655172425132864 74.46551374022668,31.482758637699302 74.29309995279311,31.482758637699302 74.12068616535954,31.310344850265743 74.12068616535954,31.13793106283217 73.94827237792599,31.13793106283217 73.94827237792599,30.965517275398607 73.94827237792599,30.79310348796504 73.94827237792599,30.62068970053148 73.77585859049242,30.62068970053148 73.77585859049242,30.448275913097905 73.77585859049242,30.62068970053148 73.77585859049242,30.79310348796504 73.77585859049242,30.965517275398607 73.94827237792599,30.965517275398607 73.94827237792599,31.13793106283217 73.94827237792599,31.310344850265743 74.12068616535954,31.310344850265743 74.29309995279311,31.310344850265743 74.46551374022668,31.310344850265743 74.63792752766024,31.310344850265743 74.63792752766024,31.13793106283217 74.63792752766024,30.965517275398607 74.63792752766024,30.79310348796504 74.46551374022668,30.79310348796504 74.46551374022668,30.62068970053148 74.29309995279311,30.62068970053148 74.12068616535954,30.62068970053148 73.94827237792599,30.62068970053148 73.77585859049242,30.62068970053148 73.77585859049242,30.448275913097905 73.60344480305885,30.448275913097905 73.60344480305885,30.275862125664343 73.60344480305885,30.10344833823078 73.60344480305885,29.931034550797207 73.4310310156253,29.931034550797207 73.25861722819172,29.931034550797207 73.08620344075815,29.931034550797207 73.08620344075815,29.758620763363645 72.91378965332459,29.58620697593008 72.91378965332459,29.413793188496516 72.74137586589103,29.413793188496516 72.74137586589103,29.241379401062954 72.74137586589103,29.068965613629384 72.56896207845746,28.89655182619582 72.56896207845746,28.724138038762252 72.39654829102389,28.724138038762252 72.39654829102389,28.55172425132869 72.22413450359034,28.55172425132869 72.05172071615677,28.55172425132869 72.05172071615677,28.37931046389512 71.8793069287232,28.37931046389512 71.70689314128963,28.37931046389512 71.70689314128963,28.206896676461557 71.53447935385607,28.206896676461557 71.53447935385607,28.034482889027995 71.3620655664225,28.034482889027995 71.3620655664225,27.86206910159443 71.18965177898893,27.86206910159443 " style="color: rgb(254, 152, 15);"/><polyline fill="none" stroke="#fe980f" stroke-dashoffset="" fill-rule="evenodd" marker-start="" marker-mid="" marker-end="" id="svg_45" points="76.18965161456234,33.03448272460139 76.18965161456234,32.86206893716782 76.01723782712877,32.68965514973426 75.8448240396952,32.68965514973426 75.67241025226164,32.68965514973426 75.49999646482807,32.51724136230069 75.3275826773945,32.51724136230069 75.15516888996095,32.51724136230069 75.15516888996095,32.344827574867125 74.98275510252738,32.344827574867125 74.81034131509381,32.344827574867125 74.63792752766024,32.344827574867125 74.46551374022668,32.17241378743356 74.29309995279311,32.17241378743356 74.12068616535954,31.999999999999996 73.94827237792599,31.999999999999996 73.77585859049242,31.827586212566434 73.60344480305885,31.827586212566434 73.60344480305885,31.655172425132864 73.4310310156253,31.482758637699302 73.4310310156253,31.310344850265743 73.25861722819172,31.13793106283217 73.08620344075815,31.13793106283217 73.08620344075815,30.965517275398607 73.08620344075815,30.79310348796504 73.08620344075815,30.62068970053148 72.91378965332459,30.448275913097905 72.91378965332459,30.275862125664343 72.74137586589103,30.275862125664343 72.74137586589103,30.10344833823078 72.56896207845746,29.931034550797207 72.39654829102389,29.931034550797207 72.22413450359034,29.58620697593008 72.05172071615677,29.58620697593008 71.70689314128963,29.241379401062954 71.3620655664225,28.89655182619582 71.01723799155538,28.724138038762252 70.8448242041218,28.724138038762252 70.8448242041218,28.55172425132869 70.67241041668824,28.55172425132869 70.49999662925467,28.37931046389512 70.32758284182111,28.206896676461557 70.32758284182111,28.034482889027995 70.15516905438754,27.86206910159443 70.15516905438754,27.689655314160866 70.15516905438754,27.517241526727297 69.98275526695397,27.34482773929373 69.98275526695397,27.172413951860165 69.81034147952042,27.172413951860165 69.81034147952042,27.000000164426595 69.63792769208685,27.000000164426595 69.63792769208685,26.827586376993033 69.46551390465328,26.827586376993033 69.29310011721971,26.827586376993033 69.29310011721971,26.655172589559466 69.12068632978615,26.655172589559466 69.12068632978615,26.482758802125904 68.94827254235258,26.482758802125904 68.77585875491901,26.482758802125904 68.77585875491901,26.310345014692338 " style="color: rgb(254, 152, 15);"/><polyline fill="none" stroke="#fe980f" stroke-dashoffset="" fill-rule="evenodd" marker-start="" marker-mid="" marker-end="" id="svg_46" points="71.01723799155538,27.689655314160866 70.8448242041218,27.517241526727297 70.67241041668824,27.517241526727297 70.49999662925467,27.517241526727297 70.49999662925467,27.34482773929373 70.32758284182111,27.34482773929373 70.15516905438754,27.34482773929373 69.98275526695397,27.172413951860165 69.81034147952042,27.172413951860165 69.63792769208685,27.000000164426595 69.46551390465328,26.827586376993033 69.29310011721971,26.827586376993033 69.29310011721971,26.655172589559466 69.29310011721971,26.482758802125904 69.12068632978615,26.310345014692338 69.12068632978615,26.137931227258772 69.12068632978615,25.96551743982521 68.94827254235258,25.96551743982521 68.77585875491901,25.96551743982521 68.77585875491901,25.79310365239164 68.60344496748546,25.79310365239164 68.43103118005189,25.620689864958074 68.25861739261832,25.620689864958074 68.08620360518476,25.620689864958074 67.9137898177512,25.620689864958074 67.74137603031762,25.44827607752451 67.56896224288406,25.275862290090945 67.3965484554505,25.275862290090945 " style="color: rgb(254, 152, 15);"/><polyline fill="none" stroke="#fe980f" stroke-dashoffset="" fill-rule="evenodd" marker-start="" marker-mid="" marker-end="" id="svg_47" points="70.67241041668824,27.172413951860165 70.49999662925467,27.172413951860165 70.32758284182111,27.172413951860165 70.15516905438754,27.172413951860165 69.98275526695397,27.172413951860165 69.81034147952042,27.000000164426595 69.63792769208685,27.000000164426595 69.46551390465328,26.827586376993033 69.46551390465328,26.655172589559466 69.29310011721971,26.655172589559466 69.12068632978615,26.482758802125904 68.94827254235258,26.310345014692338 68.77585875491901,26.310345014692338 68.77585875491901,26.137931227258772 68.77585875491901,25.96551743982521 68.60344496748546,25.96551743982521 68.43103118005189,25.96551743982521 68.43103118005189,25.79310365239164 68.25861739261832,25.79310365239164 68.25861739261832,25.620689864958074 68.08620360518476,25.620689864958074 68.08620360518476,25.44827607752451 67.9137898177512,25.44827607752451 67.74137603031762,25.44827607752451 67.74137603031762,25.275862290090945 67.56896224288406,25.275862290090945 67.56896224288406,25.103448502657375 67.3965484554505,25.103448502657375 67.22413466801693,25.103448502657375 67.22413466801693,24.931034715223817 67.05172088058336,24.931034715223817 66.8793070931498,24.931034715223817 66.8793070931498,24.758620927790247 66.70689330571624,24.758620927790247 66.53447951828267,24.758620927790247 66.53447951828267,24.58620714035668 66.3620657308491,24.58620714035668 66.18965194341554,24.41379335292312 66.01723815598197,24.41379335292312 66.01723815598197,24.241379565489552 " style="color: rgb(254, 152, 15);"/><polyline fill="none" stroke="#fe980f" stroke-dashoffset="" fill-rule="evenodd" marker-start="" marker-mid="" marker-end="" id="svg_48" points="60.67241074554144,24.241379565489552 60.67241074554144,24.068965778055983 60.67241074554144,23.89655199062242 60.67241074554144,23.724138203188854 60.84482453297501,23.551724415755288 60.84482453297501,23.379310628321726 61.017238320408566,23.379310628321726 61.189652107842136,23.379310628321726 61.3620658952757,23.20689684088816 61.534479682709275,23.20689684088816 61.70689347014284,23.034483053454597 61.70689347014284,22.862069266021027 61.70689347014284,22.68965547858746 61.70689347014284,22.517241691153895 61.8793072575764,22.517241691153895 62.05172104500997,22.517241691153895 62.224134832443525,22.517241691153895 62.396548619877095,22.517241691153895 62.396548619877095,22.68965547858746 62.568962407310664,22.68965547858746 62.74137619474424,22.68965547858746 62.91378998217779,22.68965547858746 62.91378998217779,22.862069266021027 63.086203769611366,23.034483053454597 63.086203769611366,23.20689684088816 63.25861755704493,23.20689684088816 63.431031344478484,23.20689684088816 63.603445131912046,23.20689684088816 63.77585891934562,23.20689684088816 " style="color: rgb(254, 152, 15);"/><polyline fill="none" stroke="#fe980f" stroke-dashoffset="" fill-rule="evenodd" marker-start="" marker-mid="" marker-end="" id="svg_49" points="58.60344529633866,23.89655199062242 58.08620393403795,23.724138203188854 57.9137901466044,23.724138203188854 57.74137635917082,23.551724415755288 57.74137635917082,23.379310628321726 57.22413499687014,23.20689684088816 57.22413499687014,23.034483053454597 57.051721209436565,23.034483053454597 57.051721209436565,22.862069266021027 57.051721209436565,22.68965547858746 56.879307422002995,22.517241691153895 56.70689363456944,22.344827903720333 56.53447984713587,22.344827903720333 56.53447984713587,22.172414116286763 56.3620660597023,22.172414116286763 56.3620660597023,22.0000003288532 56.189652272268745,22.0000003288532 56.189652272268745,21.827586541419635 56.189652272268745,21.65517275398607 56.189652272268745,21.482758966552502 56.189652272268745,21.31034517911894 56.189652272268745,21.137931391685374 " style="color: rgb(254, 152, 15);"/><polyline fill="none" stroke="#fe980f" stroke-dashoffset="" fill-rule="evenodd" marker-start="" marker-mid="" marker-end="" id="svg_50" points="57.051721209436565,22.68965547858746 56.879307422002995,22.172414116286763 56.70689363456944,21.827586541419635 56.70689363456944,21.65517275398607 56.53447984713587,21.65517275398607 56.53447984713587,21.482758966552502 56.3620660597023,21.482758966552502 56.3620660597023,21.31034517911894 56.189652272268745,21.31034517911894 56.189652272268745,21.137931391685374 56.017238484835175,21.137931391685374 55.84482469740161,21.137931391685374 55.672410909968036,21.137931391685374 55.499997122534474,21.137931391685374 55.32758333510091,21.137931391685374 55.15516954766734,21.137931391685374 54.982755760233786,21.137931391685374 54.81034197280022,21.137931391685374 54.63792818536665,21.137931391685374 54.63792818536665,20.965517604251808 54.46551439793309,20.965517604251808 54.29310061049952,20.965517604251808 54.120686823065945,20.965517604251808 53.94827303563239,20.965517604251808 53.77585924819883,20.965517604251808 53.94827303563239,20.965517604251808 53.94827303563239,20.793103816818242 54.120686823065945,20.793103816818242 54.120686823065945,20.620690029384676 54.29310061049952,20.620690029384676 54.29310061049952,20.793103816818242 " style="color: rgb(254, 152, 15);"/><polyline fill="none" stroke="#fe980f" stroke-dashoffset="" fill-rule="evenodd" marker-start="" marker-mid="" marker-end="" id="svg_26" points="78.77585842606582,38.20689634760836 78.43103085119868,37.689654985307655 78.25861706376512,37.51724119787409 78.25861706376512,37.34482741044053 78.08620327633156,37.17241362300696 77.91378948889799,36.82758604813983 77.74137570146442,36.655172260706266 77.56896191403087,36.655172260706266 77.56896191403087,36.482758473272696 77.3965481265973,36.482758473272696 77.3965481265973,36.310344685839134 77.3965481265973,36.13793089840557 77.3965481265973,35.965517110972 77.22413433916373,35.965517110972 77.22413433916373,35.79310332353844 77.22413433916373,35.62068953610487 77.22413433916373,35.44827574867131 77.22413433916373,35.275861961237744 77.22413433916373,35.103448173804175 77.22413433916373,34.93103438637061 77.22413433916373,34.75862059893704 77.22413433916373,34.58620681150348 77.22413433916373,34.41379302406991 77.22413433916373,34.24137923663635 77.22413433916373,34.068965449202786 77.22413433916373,33.896551661769216 77.22413433916373,33.72413787433565 77.05172055173016,33.72413787433565 76.8793067642966,33.72413787433565 76.8793067642966,33.551724086902084 76.70689297686303,33.551724086902084 76.53447918942946,33.551724086902084 76.53447918942946,33.37931029946852 " style="color: rgb(254, 152, 15);"/><polyline fill="none" stroke="#fe980f" stroke-dashoffset="" fill-rule="evenodd" marker-start="" marker-mid="" marker-end="" id="svg_51" points="73.77585859049242,30.79310348796504 73.77585859049242,30.44827591309791 73.77585859049242,30.27586212566434 73.77585859049242,30.103448338230777 73.77585859049242,29.931034550797214 73.77585859049242,29.758620763363645 73.60344480305885,29.586206975930086 73.60344480305885,29.413793188496513 73.60344480305885,29.24137940106295 73.4310310156253,29.24137940106295 73.4310310156253,29.068965613629388 73.4310310156253,29.24137940106295 73.4310310156253,29.413793188496513 73.4310310156253,29.586206975930086 " style="color: rgb(254, 152, 15);"/><polyline fill="none" stroke="#fe980f" stroke-dashoffset="" fill-rule="evenodd" marker-start="" marker-mid="" marker-end="" id="svg_52" points="71.53447935385607,28.89655182619582 71.3620655664225,28.551724251328686 71.3620655664225,28.379310463895123 71.18965177898893,28.379310463895123 71.18965177898893,28.20689667646155 71.01723799155538,28.20689667646155 71.01723799155538,28.034482889027988 71.01723799155538,27.86206910159443 70.8448242041218,27.86206910159443 70.8448242041218,27.68965531416086 70.67241041668824,27.517241526727297 70.67241041668824,27.34482773929373 70.67241041668824,27.172413951860165 70.49999662925467,27.172413951860165 70.49999662925467,27.000000164426595 70.32758284182111,27.000000164426595 70.32758284182111,26.827586376993033 70.15516905438754,26.827586376993033 69.98275526695397,26.827586376993033 69.98275526695397,26.655172589559466 69.81034147952042,26.655172589559466 69.63792769208685,26.655172589559466 69.63792769208685,26.4827588021259 69.46551390465328,26.4827588021259 69.46551390465328,26.310345014692338 69.29310011721971,26.310345014692338 " style="color: rgb(254, 152, 15);"/></g></svg>