<svg xmlns="http://www.w3.org/2000/svg" viewBox="0 0 109 119"><style><![CDATA[.B{stroke:#fe980f}.C{fill-rule:evenodd}]]></style><g fill="none"><g class="C"><g fill-rule="nonzero"><path d="M90.77 87.807c8.304 0 15.035-6.73 15.035-15.034s-6.73-15.035-15.034-15.035v30.07z" fill="#f05562"/><path d="M94.364 13.832C85.444 4.912 73.63 0 61.1 0S36.758 4.912 27.84 13.832a47.536 47.536 0 0 0-8.387 11.31c-1.403 3.833 3.126 4.77 4.225 2.22C30.78 13.942 44.9 4.78 61.1 4.78c23.332 0 42.314 18.982 42.314 42.313V60.8c-3.178-3.355-7.67-5.454-12.644-5.454a2.39 2.39 0 0 0-2.39 2.39v30.07a2.39 2.39 0 0 0 2.39 2.39c9.518 0 17.274-7.672 17.418-17.157.002-.03.004-8.678.007-25.946 0-12.53-4.913-24.343-13.832-33.262zM93.16 85.2V60.355c5.833 1.12 10.254 6.263 10.254 12.418S98.994 84.07 93.16 85.2zm10.678 2.376c-.606 0-1.2.247-1.63.676a2.324 2.324 0 0 0-.675 1.632 2.33 2.33 0 0 0 .675 1.63 2.32 2.32 0 0 0 3.26 0 2.327 2.327 0 0 0 .675-1.63 2.32 2.32 0 0 0-.675-1.632 2.323 2.323 0 0 0-1.63-.676zm-1.308 7.514a2.39 2.39 0 0 0-3.267.874c-4.64 8.03-11.93 13.554-21.176 16.084l-1.203-5.66a2.39 2.39 0 0 0-2.836-1.842l-8.068 1.715a2.39 2.39 0 0 0-1.841 2.835l1.715 8.07a2.39 2.39 0 0 0 2.835 1.84l8.07-1.715c11.713-2.5 20.927-9.037 26.645-18.935a2.39 2.39 0 0 0-.874-3.266zm-33.218 15.35l3.392-.72.72 3.392-3.392.72-.72-3.392z" fill="#434a54"/><path d="M8.852 36.64a3.689 3.689 0 0 0-3.688 3.688v42.554a3.689 3.689 0 0 0 3.688 3.689h54.575l6.26 7.712a.738.738 0 0 0 1.31-.465v-53.5a3.689 3.689 0 0 0-3.688-3.689H8.852zm0 54.357a8.115 8.115 0 0 1-8.114-8.115V40.328a8.115 8.115 0 0 1 8.114-8.115H67.3a8.115 8.115 0 0 1 8.114 8.115v53.5a5.164 5.164 0 0 1-9.173 3.254l-4.93-6.075H8.85z" fill="#55c6d9"/></g><path d="M10 67.062v-3.408l7.868-8.14c1.482-1.555 2.634-3.077 2.634-4.63 0-1.853-1.25-3.01-2.996-3.01-1.777 0-3.094 1.058-3.85 2.713l-3.82-2.25c1.48-3.31 4.477-4.897 7.604-4.897 3.95 0 7.605 2.647 7.605 7.28 0 2.81-1.613 5.226-3.786 7.4l-4.5 4.533h8.658v4.4H10zM45.8 58.9v4.235h-2.47v3.937h-4.575v-3.937H27.87V58.9l7.936-15.45h4.872L32.774 58.9h5.99v-5.492h4.576V58.9h2.47zm5.865.413h14.88v3.87l-7.803 19.3h-4.806l7.572-18.793h-9.843v-4.367z" fill="#434a54"/><path d="M56.717 44.26l-20.555 38.2h1.992l20.54-38.2z" fill="#f05562"/></g><path d="M57.183 44.35L36.695 82.4M58.16 44.35L37.67 82.4m55.6-21.707l.244 24.634" class="B"/></g><g fill="#fe980f" class="C B"><path d="M94.012 65.327v8.05m0-11.22l.244 22.195"/><path d="M94.012 61.424v5.854m.488-5.854l.244 22.195m.244-21.95l.488 20.976m.487-20.732l.244 20.244m0-19.756l.488 19.268m.488-19.024l.244 18.293m.975-17.317v16.098m-.975-16.098l.488 18.537m1.22-17.562l.244 14.878m.722-13.658v11.95m.5-10.487v10.488m.97-9.766l-.244 8.78m.974-6.82l-.488 4.878"/><path d="M92.55 60.45l3.902 1.463 3.793 3.2c.1.205 2.305 5.083 2.305 5.083l-.488 6.098-2.195 4.4-4.634 3.415s-2.195.976-2.305.77"/><path d="M102.55 69.473l.244 3.66-.976 4.878.732-8.537z"/></g><path d="M99.866 64.84l.244.244v.488h.24v.488m.98.974V68h.5l.24.244v.73h.24v.488" fill="none" class="B"/><path d="M101.57 78l-3.17 3.415" fill="#fe980f" class="B C"/></svg>