<svg xmlns="http://www.w3.org/2000/svg" width="165" height="165"><g fill-rule="evenodd"><circle cx="82.424" cy="82.424" r="82.424" fill="#00bfd6" transform="matrix(-1 0 0 1 165 0)"/><path fill="#fff" d="M39.56 99.96l42.774-42.775-2.585-2.586 45.575-45.575a-21.59 21.59 0 0 0 30.654 0-21.59 21.59 0 0 0 0 30.653L110.374 85.28l-2.56-2.56-42.774 42.775L39.56 99.96z"/><path fill="#fb3449" d="M148.785 32.458c4.4-4.4 4.4-11.583 0-16.215-4.4-4.4-11.583-4.4-16.216 0L94.16 54.6l16.24 15.973 38.385-38.115z"/><path fill="#fff" d="M17.66 123.125l18.8-11.34 16.754 16.754-11.34 18.8-39.137 14.922z"/><path d="M76.81 76.156l11.847 11.847 3.638-3.638-11.847-11.847zM66.484 86.462L78.33 98.31l3.638-3.638L70.12 82.824zm-10.307 10.3L68.024 108.6l3.638-3.638-11.846-11.847zM31.07 130.33l3.64 3.637 3.637-3.64-3.638-3.637zm-8.994 9.02l3.638 3.638 3.638-3.638-3.638-3.638z" fill="#193651"/><path fill="#fb3449" d="M55.532 130.855l7.73-7.73-21.387-21.388-7.73 7.73"/><path fill="#193651" d="M.42 161.24l14.95-39.166c.27-.51.512-1.024 1.024-1.293l18.3-11.07-2.317-2.317 5.657-5.657-2.047-2.047 42.747-42.505-2.586-2.586L121.74 9.024c-2.586-1.805-6.17-1.536-8.512.51l-32.7 32.7c-2.317 2.318-5.145 3.34-8.243 3.34s-5.926-1.023-8.242-3.34l3.6-3.61c2.585 2.586 6.706 2.586 9.265 0l32.7-32.7c2.317-2.317 5.145-3.34 8.243-3.34 2.828 0 5.414 1.024 7.73 2.828C129.715 1.804 135.13 0 140.786 0c6.436 0 12.632 2.586 16.994 7.22 9.536 9.535 9.536 24.996 0 34.262L110.4 88.86l-2.586-2.585-42.748 42.774-2.047-2.074-5.656 5.657-2.317-2.317-11.07 18.3c-.27.512-.782.78-1.294 1.024L3.5 164.58c-.27.268-2.316 0-2.828-.513-.242-.754-.78-1.805-.242-2.828zm111.275-80.864l42.477-42.504c7.46-7.46 7.46-19.582 0-27.044-3.6-3.6-8.243-5.656-13.387-5.656s-9.778 2.074-13.657 5.656L84.38 53.576l27.314 26.8zM65.3 121.6l38.895-38.897-21.9-21.9L43.4 99.7l21.9 21.9zm-25.24 23.677l11.072-18.02c1.804-2.317 4.12-.782 4.4 0l3.852-3.88L41.606 105.6l-3.852 3.85c.78 0 2.317 2.83 0 4.4l-18.02 11.072L7.1 157.873l32.97-12.606z"/><path d="M94.575 54.377l39.245-39.245 6.18-1.925c.236.038 6.65 1.547 6.65 1.547l4.292 4.5c.236.038 1 7.208 1 7.208l-2.264 4.528L110.8 69.848 94.574 54.376zm-53.207 51.698l16.98 16.98-3.255 2.604a175.3 175.3 0 0 0-4.528-1.132c.236.038-11.84-12.038-11.84-12.038v-3.774l2.642-2.642z" fill="#fe980f" stroke="#fe980f"/></g><g fill="none"><path stroke="#fe980f" d="M39.104 113.245l.377.377h.377l.377.377h.377v.377h.755v.377h.377v.755h.377v1.132h.755v.755h.755v.377h.755v.755h.377v.377h.377l.377.377h.755v.755h.377v.377h.377v.377h.377v.755h.377v.755h.377v.377h.377v.377h.377v.377h.377v.377h.377v.755h.377v.377h.755m5.665-1.13v1.132h-3.02v-.377h-1.887v.377h-.377v.377"/><path stroke="#fe980f" d="M49.67 123.057l.377.377v.377l.377.377v.377h.377v.755l.377.377v.377-.755h.377v-.377h3.396l.377.377"/></g></svg>