<svg xmlns="http://www.w3.org/2000/svg" width="165" height="165"><rect id="backgroundrect" width="100%" height="100%" x="0" y="0" fill="none" stroke="none"/>
    
<g class="currentLayer" style=""><title>Layer 1</title><g fill="none" fill-rule="evenodd" id="svg_1" class="">
        <circle cx="82.42400360107422" cy="82.42400360107422" r="82.42400360107422" fill="#00BFD6" transform="matrix(-1,0,0,1,165,0) " stroke-width="0" id="svg_2"/>
        <path fill="#FFF" d="M39.559,99.96 L82.333,57.185 l-2.585,-2.5860000000000003 L125.32300000000001,9.024 a-21.59,21.59 0 0 0 30.654,0 a-21.59,21.59 0 0 0 0,30.653 L110.374,85.28 l-2.559,-2.56 l-42.774,42.775 l-25.482,-25.535 z" stroke-width="0" id="svg_3"/>
        <path fill="#FB3449" d="M148.785,32.458 c4.39,-4.39 4.39,-11.583 0,-16.215 c-4.39,-4.39 -11.583,-4.39 -16.216,0 L94.16,54.6 L110.4,70.573 L148.785,32.458 z" stroke-width="0" id="svg_4"/>
        <path fill="#FFF" d="M17.659999999999997,123.125 l18.801,-11.34 l16.754,16.754 l-11.34,18.801 l-39.137,14.922 z" stroke-width="0" id="svg_5"/>
        <g fill="#193651" stroke-width="0" id="svg_6">
            <path d="M76.809,76.156 L88.656,88.003 l3.638,-3.638 l-11.847,-11.847 zM66.484,86.462 L78.33,98.309 l3.638,-3.638 l-11.847,-11.847 zM56.17700000000001,96.752 l11.847,11.847 l3.638,-3.638 l-11.846,-11.847 zM31.069999999999993,130.33 l3.6390000000000002,3.637 l3.637,-3.6390000000000002 l-3.638,-3.637 zM22.075999999999993,139.35 l3.638,3.638 l3.638,-3.638 l-3.638,-3.638 z" stroke-width="0" id="svg_7"/>
        </g>
        <path fill="#FB3449" d="M55.532,130.855 l7.73,-7.73 l-21.387,-21.388 l-7.73,7.73 " stroke-width="0" id="svg_8"/>
        <path fill="#193651" d="M0.4199999999999875,161.24 l14.95,-39.166 c0.27,-0.511 0.512,-1.024 1.024,-1.2930000000000001 l18.29,-11.07 l-2.317,-2.317 l5.657,-5.657 l-2.047,-2.047 l42.747,-42.505 l-2.5860000000000003,-2.5860000000000003 L121.74000000000001,9.024 c-2.5860000000000003,-1.8050000000000002 -6.1690000000000005,-1.536 -8.512,0.511 l-32.7,32.7 c-2.317,2.318 -5.145,3.34 -8.243,3.34 c-3.098,0 -5.926,-1.023 -8.242,-3.34 l3.6100000000000003,-3.609 c2.585,2.5860000000000003 6.706,2.5860000000000003 9.265,0 l32.7,-32.7 c2.317,-2.317 5.145,-3.34 8.243,-3.34 c2.8280000000000003,0 5.414,1.024 7.73,2.8280000000000003 C129.715,1.804 135.129,0 140.786,0 C147.222,0 153.418,2.5860000000000003 157.78,7.219 c9.536,9.535 9.536,24.996 0,34.262 l-47.38,47.38 l-2.5860000000000003,-2.585 l-42.748,42.774 l-2.047,-2.074 l-5.656000000000001,5.657 l-2.317,-2.317 l-11.07,18.29 c-0.27,0.512 -0.782,0.781 -1.294,1.024 l-39.192,14.95 c-0.269,0.268 -2.316,0 -2.8280000000000003,-0.513 c-0.24200000000000002,-0.7540000000000001 -0.78,-1.8050000000000002 -0.24200000000000002,-2.8280000000000003 zM111.695,80.376 L154.172,37.872 c7.46,-7.461 7.46,-19.582 0,-27.044 c-3.6100000000000003,-3.6100000000000003 -8.243,-5.656000000000001 -13.387,-5.656000000000001 c-5.145,0 -9.778,2.074 -13.657,5.656000000000001 L84.38,53.576 L111.694,80.377 zM65.31,121.59 L104.205,82.693 l-21.899,-21.899 L43.41,99.69 l21.9,21.9 zm-25.24,23.677 l11.072,-18.02 c1.804,-2.317 4.12,-0.782 4.39,0 l3.8520000000000003,-3.88 l-17.778,-17.777 l-3.8520000000000003,3.851 c0.781,0 2.317,2.829 0,4.39 l-18.02,11.072 l-12.633000000000001,32.97 l32.97,-12.606 z" stroke-width="0" id="svg_9"/>
    </g><polyline fill="#fe980f" stroke="#fe980f" stroke-width="2" stroke-linejoin="round" stroke-dashoffset="" fill-rule="nonzero" marker-start="" marker-mid="" marker-end="" id="svg_10" points="94.5754682945587,54.37735883686286 94.5754682945587,54.37735883686286 " style="color: rgb(254, 152, 15);"/><polyline fill="#fe980f" stroke="#fe980f" stroke-dashoffset="" fill-rule="evenodd" marker-start="" marker-mid="" marker-end="" id="svg_11" points="94.19810981757291,54.37735883686286 94.19810981757291,54.37735883686286 " style="color: rgb(254, 152, 15);"/><polyline fill="none" stroke="#000000" stroke-dashoffset="" fill-rule="evenodd" marker-start="" marker-mid="" marker-end="" id="svg_12" points="94.5754682945587,54.754717313848616 94.5754682945587,54.754717313848616 " style="color: rgb(254, 152, 15);"/><path fill="#fe980f" fill-opacity="1" stroke="#fe980f" stroke-opacity="1" stroke-width="1" stroke-dasharray="none" stroke-linejoin="miter" stroke-linecap="butt" stroke-dashoffset="" fill-rule="evenodd" opacity="1" marker-start="" marker-mid="" marker-end="" id="svg_13" d="M 94.5754682945587 54.37735883686286 C 94.5754682945587 54.37735883686286 133.82074990107878 15.132077230342745 133.82074990107878 15.132077230342745 C 133.82074990107878 15.132077230342745 140.2358440098369 13.245284845413897 140 13.20754716981132 C 140.2358440098369 13.245284845413897 146.65093811859498 14.754718753356975 146.65093811859498 14.754718753356975 C 146.65093811859498 14.754718753356975 151.17923984242424 19.28302047718622 150.9433962264151 19.245283018867926 C 151.17923984242424 19.28302047718622 151.93395679639576 26.452831539915856 151.93395679639576 26.452831539915856 C 151.93395679639576 26.452831539915856 149.66980593448113 30.9811332637451 149.66980593448113 30.9811332637451 C 149.66980593448113 30.9811332637451 110.8018828049468 69.84905639327945 110.8018828049468 69.84905639327945 C 110.8018828049468 69.84905639327945 94.5754682945587 54.37735883686286 94.5754682945587 54.37735883686286 z" style="color: rgb(254, 152, 15);"/><path fill="#fe980f" fill-opacity="1" stroke="#fe980f" stroke-opacity="1" stroke-width="1" stroke-dasharray="none" stroke-linejoin="miter" stroke-linecap="butt" stroke-dashoffset="" fill-rule="evenodd" opacity="1" marker-start="" marker-mid="" marker-end="" id="svg_15" d="M 41.367923039565085 106.0754701839134 C 41.367923039565085 106.0754701839134 58.34905450392474 123.05660164827306 58.34905450392474 123.05660164827306 C 58.34905450392474 123.05660164827306 55.330186688038594 125.69811098717346 55.09433962264151 125.66037735849056 C 55.330186688038594 125.69811098717346 50.80188496420933 124.56603555621615 50.56603773584906 124.52830188679246 C 50.80188496420933 124.56603555621615 38.72641370066469 112.49056429267148 38.72641370066469 112.49056429267148 C 38.72641370066469 112.49056429267148 38.72641370066469 108.7169795228138 38.72641370066469 108.7169795228138 C 38.72641370066469 108.7169795228138 41.367923039565085 106.0754701839134 41.367923039565085 106.0754701839134 z" style="color: rgb(254, 152, 15);"/><polyline fill="none" stroke="#fe980f" stroke-dashoffset="" fill-rule="evenodd" marker-start="" marker-mid="" marker-end="" id="svg_17" points="39.103772177650455,113.24528124664303 39.103772177650455,113.24528124664303 39.48113065463622,113.6226397236288 39.85848913162201,113.6226397236288 40.23584760860777,113.99999820061457 40.61320608559353,113.99999820061457 40.61320608559353,114.37735667760036 40.99056456257932,114.37735667760036 41.367923039565085,114.37735667760036 41.367923039565085,114.75471515458611 41.74528151655085,114.75471515458611 41.74528151655085,115.13207363157187 41.74528151655085,115.50943210855765 42.12263999353661,115.50943210855765 42.12263999353661,115.88679058554344 42.12263999353661,116.64150753951498 42.4999984705224,116.64150753951498 42.87735694750816,116.64150753951498 42.87735694750816,117.01886601650074 42.87735694750816,117.39622449348649 43.254715424493924,117.39622449348649 43.632073901479714,117.39622449348649 43.632073901479714,117.77358297047228 44.009432378465476,117.77358297047228 44.38679085545124,117.77358297047228 44.38679085545124,118.15094144745805 44.38679085545124,118.52829992444381 44.76414933243703,118.52829992444381 44.76414933243703,118.90565840142956 45.14150780942279,118.90565840142956 45.51886628640855,119.28301687841537 45.896224763394315,119.28301687841537 46.273583240380106,119.28301687841537 46.273583240380106,119.66037535540113 46.273583240380106,120.03773383238689 46.65094171736587,120.03773383238689 46.65094171736587,120.4150923093727 47.02830019435163,120.4150923093727 47.02830019435163,120.79245078635844 47.40565867133742,120.79245078635844 47.40565867133742,121.1698092633442 47.40565867133742,121.54716774032997 47.78301714832318,121.54716774032997 47.78301714832318,121.92452621731577 47.78301714832318,122.30188469430152 48.160375625308944,122.30188469430152 48.160375625308944,122.67924317128728 48.5377341022947,122.67924317128728 48.5377341022947,123.05660164827306 48.91509257928049,123.05660164827306 48.91509257928049,123.43396012525882 49.292451056266266,123.43396012525882 49.292451056266266,123.81131860224461 49.66980953325202,123.81131860224461 49.66980953325202,124.18867707923036 49.66980953325202,124.56603555621615 50.04716801023781,124.56603555621615 50.04716801023781,124.9433940332019 50.424526487223574,124.9433940332019 50.80188496420933,124.9433940332019 " style="color: rgb(254, 152, 15);"/><polyline fill="none" stroke="#fe980f" stroke-dashoffset="" fill-rule="evenodd" marker-start="" marker-mid="" marker-end="" id="svg_18" points="56.46226211899589,123.81131860224461 56.46226211899589,124.18867707923036 56.46226211899589,124.56603555621615 56.46226211899589,124.9433940332019 56.08490364201012,124.9433940332019 55.70754516502436,124.9433940332019 55.330186688038594,124.9433940332019 54.952828211052804,124.9433940332019 54.575469734067035,124.9433940332019 54.19811125708128,124.9433940332019 53.82075278009549,124.9433940332019 53.44339430310973,124.9433940332019 53.44339430310973,124.56603555621615 53.06603582612397,124.56603555621615 52.6886773491382,124.56603555621615 52.311318872152405,124.56603555621615 51.93396039516665,124.56603555621615 51.55660191818089,124.56603555621615 51.55660191818089,124.9433940332019 51.1792434411951,124.9433940332019 51.1792434411951,125.32075251018769 " style="color: rgb(254, 152, 15);"/><polyline fill="none" stroke="#fe980f" stroke-dashoffset="" fill-rule="evenodd" marker-start="" marker-mid="" marker-end="" id="svg_19" points="49.66980953325202,123.05660164827306 50.04716801023781,123.43396012525882 50.04716801023781,123.81131860224461 50.424526487223574,124.18867707923036 50.424526487223574,124.56603555621615 50.80188496420933,124.56603555621615 50.80188496420933,124.9433940332019 50.80188496420933,125.32075251018769 51.1792434411951,125.69811098717346 51.1792434411951,126.07546946415923 51.1792434411951,125.69811098717346 51.1792434411951,125.32075251018769 51.55660191818089,125.32075251018769 51.55660191818089,124.9433940332019 51.93396039516665,124.9433940332019 52.311318872152405,124.9433940332019 52.6886773491382,124.9433940332019 53.06603582612397,124.9433940332019 53.44339430310973,124.9433940332019 53.82075278009549,124.9433940332019 54.19811125708128,124.9433940332019 54.575469734067035,124.9433940332019 54.952828211052804,124.9433940332019 55.330186688038594,125.32075251018769 " style="color: rgb(254, 152, 15);"/></g></svg>